<svg width="20" height="20" viewBox="0 0 20 20" fill="none" xmlns="http://www.w3.org/2000/svg">
<rect width="20" height="20" rx="2" fill="#242A1F"/>
<path d="M14.7355 5.96993C14.8037 5.9003 14.8852 5.84498 14.9751 5.80722C15.065 5.76945 15.1615 5.75 15.259 5.75C15.3565 5.75 15.453 5.76945 15.5429 5.80722C15.6328 5.84498 15.7142 5.9003 15.7825 5.96993C16.0685 6.25893 16.0725 6.72593 15.7925 7.01993L9.87949 14.0099C9.81236 14.0837 9.73089 14.1429 9.64007 14.1841C9.54925 14.2252 9.45099 14.2474 9.3513 14.2493C9.25161 14.2511 9.15258 14.2327 9.06028 14.1949C8.96798 14.1572 8.88435 14.1011 8.81449 14.0299L5.21649 10.3839C5.07773 10.2424 5 10.0521 5 9.85393C5 9.65574 5.07773 9.46545 5.21649 9.32393C5.28474 9.2543 5.36619 9.19898 5.45608 9.16122C5.54597 9.12345 5.64249 9.104 5.73999 9.104C5.83749 9.104 5.93401 9.12345 6.0239 9.16122C6.11379 9.19898 6.19525 9.2543 6.26349 9.32393L9.31549 12.4169L14.7155 5.99193C14.7217 5.98421 14.7284 5.97686 14.7355 5.96993Z" fill="white"/>
</svg>
