<svg width="22" height="22" viewBox="0 0 22 22" fill="none" xmlns="http://www.w3.org/2000/svg">
<rect width="22" height="22" rx="2" fill="#FFDD00"/>
<path d="M9.5057 15C9.38374 15.0001 9.26296 14.9772 9.1503 14.9326C9.03764 14.888 8.93531 14.8226 8.8492 14.7401L5.28348 11.3344C5.19479 11.2526 5.12405 11.1548 5.07539 11.0466C5.02672 10.9384 5.00111 10.822 5.00004 10.7042C4.99896 10.5865 5.02246 10.4697 5.06915 10.3607C5.11584 10.2517 5.18479 10.1526 5.27197 10.0694C5.35916 9.9861 5.46284 9.92025 5.57695 9.87565C5.69107 9.83106 5.81335 9.80862 5.93664 9.80964C6.05994 9.81067 6.18178 9.83513 6.29507 9.88161C6.40836 9.92809 6.51082 9.99566 6.59648 10.0804L9.5057 12.859L16.4263 6.24896C16.6015 6.08741 16.836 5.99801 17.0795 6.00003C17.323 6.00205 17.5559 6.09533 17.728 6.25977C17.9002 6.42421 17.9978 6.64665 18 6.87919C18.0021 7.11173 17.9085 7.33577 17.7393 7.50304L10.1622 14.7401C10.0761 14.8226 9.97375 14.888 9.86109 14.9326C9.74843 14.9772 9.62765 15.0001 9.5057 15Z" fill="#0E0905"/>
</svg>
