<svg width="47" height="48" viewBox="0 0 47 48" fill="none" xmlns="http://www.w3.org/2000/svg">
<g filter="url(#filter0_b_1204_11070)">
<rect y="0.241211" width="47" height="47" rx="5" fill="#EEEEEE"/>
<path d="M22.25 34.9912V33.1162H32.875V23.6162C32.875 22.4079 32.6146 21.2464 32.0938 20.1318C31.5729 19.0173 30.875 18.0329 30 17.1787C29.125 16.3245 28.125 15.6423 27 15.1318C25.875 14.6214 24.7083 14.3662 23.5 14.3662C22.2917 14.3662 21.125 14.6214 20 15.1318C18.875 15.6423 17.875 16.3245 17 17.1787C16.125 18.0329 15.4271 19.0173 14.9062 20.1318C14.3854 21.2464 14.125 22.4079 14.125 23.6162V31.2412H13.5C12.8125 31.2412 12.224 30.9964 11.7344 30.5068C11.2448 30.0173 11 29.4287 11 28.7412V26.2412C11 25.762 11.1146 25.3402 11.3438 24.9756C11.5729 24.611 11.875 24.3141 12.25 24.085L12.3438 22.4287C12.5312 20.9079 12.9635 19.5329 13.6406 18.3037C14.3177 17.0745 15.1615 16.0329 16.1719 15.1787C17.1823 14.3245 18.3177 13.6631 19.5781 13.1943C20.8385 12.7256 22.1458 12.4912 23.5 12.4912C24.875 12.4912 26.1927 12.7256 27.4531 13.1943C28.7135 13.6631 29.8438 14.3298 30.8438 15.1943C31.8438 16.0589 32.6823 17.1006 33.3594 18.3193C34.0365 19.5381 34.4688 20.8975 34.6562 22.3975L34.75 24.0225C35.125 24.21 35.4271 24.486 35.6562 24.8506C35.8854 25.2152 36 25.6162 36 26.0537V28.9287C36 29.387 35.8854 29.7933 35.6562 30.1475C35.4271 30.5016 35.125 30.7725 34.75 30.96V33.1162C34.75 33.6318 34.5664 34.0732 34.1992 34.4404C33.832 34.8076 33.3906 34.9912 32.875 34.9912H22.25ZM19.75 25.9287C19.5 25.9287 19.2812 25.835 19.0938 25.6475C18.9062 25.46 18.8125 25.236 18.8125 24.9756C18.8125 24.7152 18.9062 24.4964 19.0938 24.3193C19.2812 24.1423 19.5052 24.0537 19.7656 24.0537C20.026 24.0537 20.2448 24.1436 20.4219 24.3232C20.599 24.5029 20.6875 24.7256 20.6875 24.9912C20.6875 25.2412 20.5977 25.46 20.418 25.6475C20.2383 25.835 20.0156 25.9287 19.75 25.9287ZM27.25 25.9287C27 25.9287 26.7812 25.835 26.5938 25.6475C26.4062 25.46 26.3125 25.236 26.3125 24.9756C26.3125 24.7152 26.4062 24.4964 26.5938 24.3193C26.7812 24.1423 27.0052 24.0537 27.2656 24.0537C27.526 24.0537 27.7448 24.1436 27.9219 24.3232C28.099 24.5029 28.1875 24.7256 28.1875 24.9912C28.1875 25.2412 28.0977 25.46 27.918 25.6475C27.7383 25.835 27.5156 25.9287 27.25 25.9287ZM16.0312 24.3037C15.9479 23.0745 16.1198 21.96 16.5469 20.96C16.974 19.96 17.5469 19.111 18.2656 18.4131C18.9844 17.7152 19.8125 17.1787 20.75 16.8037C21.6875 16.4287 22.625 16.2412 23.5625 16.2412C25.4583 16.2412 27.0521 16.8402 28.3438 18.0381C29.6354 19.236 30.4271 20.7308 30.7188 22.5225C28.7604 22.5016 27.0365 21.9756 25.5469 20.9443C24.0573 19.9131 22.9062 18.5745 22.0938 16.9287C21.7604 18.6162 21.0573 20.111 19.9844 21.4131C18.9115 22.7152 17.5938 23.6787 16.0312 24.3037Z" fill="#242A1F"/>
</g>
<defs>
<filter id="filter0_b_1204_11070" x="-5.86467" y="-5.62346" width="58.7293" height="58.7293" filterUnits="userSpaceOnUse" color-interpolation-filters="sRGB">
<feFlood flood-opacity="0" result="BackgroundImageFix"/>
<feGaussianBlur in="BackgroundImageFix" stdDeviation="2.93234"/>
<feComposite in2="SourceAlpha" operator="in" result="effect1_backgroundBlur_1204_11070"/>
<feBlend mode="normal" in="SourceGraphic" in2="effect1_backgroundBlur_1204_11070" result="shape"/>
</filter>
</defs>
</svg>
