<svg width="47" height="48" viewBox="0 0 47 48" fill="none" xmlns="http://www.w3.org/2000/svg">
<g filter="url(#filter0_b_1204_11081)">
<rect y="0.241211" width="47" height="47" rx="5" fill="#EEEEEE"/>
<path d="M24.5938 36.2412L24.2812 32.8037H23.0312C20.0521 32.8037 17.5104 31.7516 15.4062 29.6475C13.3021 27.5433 12.25 25.0016 12.25 22.0225C12.25 19.0433 13.3073 16.5016 15.4219 14.3975C17.5365 12.2933 20.0938 11.2412 23.0938 11.2412C24.5729 11.2412 25.9427 11.5068 27.2031 12.0381C28.4635 12.5693 29.5625 13.3141 30.5 14.2725C31.4375 15.2308 32.1719 16.361 32.7031 17.6631C33.2344 18.9652 33.5 20.387 33.5 21.9287C33.5 23.3037 33.2969 24.6787 32.8906 26.0537C32.4844 27.4287 31.8958 28.7412 31.125 29.9912C30.3542 31.2412 29.4167 32.3975 28.3125 33.46C27.2083 34.5225 25.9688 35.4495 24.5938 36.2412ZM26.1562 32.8662C27.8646 31.4287 29.2031 29.736 30.1719 27.7881C31.1406 25.8402 31.625 23.887 31.625 21.9287C31.625 19.3454 30.8177 17.2308 29.2031 15.585C27.5885 13.9391 25.5521 13.1162 23.0938 13.1162C20.5938 13.1162 18.474 13.986 16.7344 15.7256C14.9948 17.4652 14.125 19.5641 14.125 22.0225C14.125 24.4808 14.9948 26.5798 16.7344 28.3193C18.474 30.0589 20.5729 30.9287 23.0312 30.9287H26.1562V32.8662ZM23.0938 29.2725C23.4271 29.2725 23.7083 29.1579 23.9375 28.9287C24.1667 28.6995 24.2812 28.4183 24.2812 28.085C24.2812 27.7516 24.1667 27.4704 23.9375 27.2412C23.7083 27.012 23.4271 26.8975 23.0938 26.8975C22.7604 26.8975 22.4792 27.012 22.25 27.2412C22.0208 27.4704 21.9062 27.7516 21.9062 28.085C21.9062 28.4183 22.0208 28.6995 22.25 28.9287C22.4792 29.1579 22.7604 29.2725 23.0938 29.2725ZM22.25 25.0225H23.8125C23.8125 24.5016 23.901 24.0693 24.0781 23.7256C24.2552 23.3818 24.625 22.9287 25.1875 22.3662C25.75 21.8037 26.1458 21.2881 26.375 20.8193C26.6042 20.3506 26.7188 19.8454 26.7188 19.3037C26.7188 18.3662 26.401 17.5954 25.7656 16.9912C25.1302 16.387 24.2812 16.085 23.2188 16.085C22.3438 16.085 21.5625 16.3141 20.875 16.7725C20.1875 17.2308 19.6771 17.8558 19.3438 18.6475L20.7812 19.2412C21.0104 18.6995 21.3281 18.2985 21.7344 18.0381C22.1406 17.7777 22.6042 17.6475 23.125 17.6475C23.75 17.6475 24.2396 17.7985 24.5938 18.1006C24.9479 18.4027 25.125 18.8037 25.125 19.3037C25.125 19.6995 25.0104 20.1006 24.7812 20.5068C24.5521 20.9131 24.1458 21.4183 23.5625 22.0225C23 22.6058 22.6406 23.0745 22.4844 23.4287C22.3281 23.7829 22.25 24.3141 22.25 25.0225Z" fill="#242A1F"/>
</g>
<defs>
<filter id="filter0_b_1204_11081" x="-5.86467" y="-5.62346" width="58.7293" height="58.7293" filterUnits="userSpaceOnUse" color-interpolation-filters="sRGB">
<feFlood flood-opacity="0" result="BackgroundImageFix"/>
<feGaussianBlur in="BackgroundImageFix" stdDeviation="2.93234"/>
<feComposite in2="SourceAlpha" operator="in" result="effect1_backgroundBlur_1204_11081"/>
<feBlend mode="normal" in="SourceGraphic" in2="effect1_backgroundBlur_1204_11081" result="shape"/>
</filter>
</defs>
</svg>
