<svg width="44" height="44" viewBox="0 0 44 44" fill="none" xmlns="http://www.w3.org/2000/svg">
<g filter="url(#filter0_b_1204_11262)">
<rect x="0.0983887" y="0.167969" width="43.033" height="43.033" rx="5" fill="#242A1F"/>
<path d="M15.7008 33.5997C14.2735 33.5348 13.4981 33.2973 12.9824 33.0961C12.2991 32.8301 11.8119 32.5134 11.2991 32.0012C10.7862 31.4891 10.4688 31.0019 10.2042 30.3186C10.003 29.8029 9.76549 29.0275 9.70058 27.6002C9.62926 26.0574 9.61499 25.5945 9.61499 21.6856C9.61499 17.7768 9.63068 17.3146 9.69987 15.7703C9.76478 14.3431 10.0037 13.5691 10.2035 13.052C10.4695 12.3687 10.7869 11.8815 11.2983 11.3679C11.8105 10.8558 12.2977 10.5377 12.9817 10.273C13.4974 10.0719 14.2728 9.83436 15.7 9.76945C17.2436 9.69884 17.7072 9.68457 21.6146 9.68457C25.5235 9.68457 25.9857 9.70026 27.5299 9.76945C28.9572 9.83436 29.7311 10.0733 30.2483 10.273C30.9316 10.5377 31.4188 10.8558 31.9316 11.3679C32.4445 11.8801 32.7605 12.368 33.0265 13.0513C33.2277 13.567 33.4652 14.3423 33.5301 15.7696C33.6007 17.3139 33.615 17.7761 33.615 21.6849C33.615 25.5923 33.6007 26.056 33.5301 27.6002C33.4652 29.0275 33.2262 29.8029 33.0265 30.3186C32.7605 31.0019 32.4438 31.4891 31.9316 32.0012C31.4195 32.5134 30.9316 32.8301 30.2483 33.0961C29.7326 33.2973 28.9572 33.5348 27.5299 33.5997C25.9871 33.6703 25.5235 33.6846 21.6146 33.6846C17.7072 33.6846 17.2436 33.671 15.7008 33.5997Z" fill="white"/>
<path d="M18.8921 21.5996C18.8921 20.1425 20.0729 18.961 21.53 18.961C22.987 18.961 24.1685 20.1425 24.1685 21.5996C24.1685 23.0566 22.987 24.2381 21.53 24.2381C20.0729 24.2381 18.8921 23.0566 18.8921 21.5996ZM17.4657 21.5996C17.4657 23.8443 19.2853 25.6638 21.53 25.6638C23.7747 25.6638 25.5942 23.8443 25.5942 21.5996C25.5942 19.3549 23.7747 17.5353 21.53 17.5353C19.2853 17.5353 17.4658 19.3547 17.4658 21.5996M24.8054 17.3742C24.8053 17.562 24.861 17.7457 24.9653 17.9019C25.0696 18.0581 25.2179 18.1799 25.3914 18.2519C25.5649 18.3239 25.7559 18.3427 25.9401 18.3062C26.1244 18.2696 26.2937 18.1792 26.4265 18.0464C26.5594 17.9136 26.65 17.7444 26.6867 17.5602C26.7234 17.376 26.7047 17.185 26.6329 17.0114C26.561 16.8378 26.4394 16.6895 26.2832 16.585C26.1271 16.4806 25.9434 16.4248 25.7556 16.4247H25.7552C25.5034 16.4249 25.2619 16.5249 25.0839 16.7029C24.9058 16.8809 24.8056 17.1224 24.8054 17.3742ZM18.3323 28.0423C17.5606 28.0071 17.1412 27.8786 16.8625 27.77C16.4929 27.6261 16.2293 27.4548 15.9521 27.1779C15.6749 26.9011 15.5033 26.6377 15.36 26.2682C15.2514 25.9895 15.1228 25.57 15.0878 24.7983C15.0494 23.964 15.0417 23.7134 15.0417 21.5997C15.0417 19.486 15.05 19.2361 15.0878 18.4011C15.1229 17.6294 15.2524 17.2107 15.36 16.9312C15.5039 16.5617 15.6752 16.298 15.9521 16.0208C16.2289 15.7436 16.4923 15.572 16.8625 15.4288C17.1411 15.3201 17.5606 15.1916 18.3323 15.1565C19.1666 15.1181 19.4173 15.1105 21.53 15.1105C23.6427 15.1105 23.8936 15.1186 24.7286 15.1566C25.5003 15.1918 25.919 15.3213 26.1984 15.4289C26.568 15.5721 26.8316 15.7441 27.1089 16.021C27.3861 16.2978 27.557 16.5618 27.7009 16.9314C27.8096 17.21 27.9381 17.6295 27.9732 18.4012C28.0116 19.2362 28.0192 19.4861 28.0192 21.5998C28.0192 23.7135 28.0116 23.9634 27.9732 24.7984C27.938 25.5701 27.8089 25.9895 27.7009 26.2683C27.557 26.6378 27.3857 26.9015 27.1089 27.1781C26.832 27.4546 26.568 27.6262 26.1984 27.7701C25.9198 27.8788 25.5003 28.0073 24.7286 28.0424C23.8943 28.0808 23.6437 28.0884 21.53 28.0884C19.4163 28.0884 19.1664 28.0808 18.3323 28.0424M18.2668 13.7325C17.4242 13.7709 16.8484 13.9045 16.3456 14.1001C15.8252 14.3022 15.384 14.5733 14.9435 15.0131C14.503 15.4529 14.2326 15.8941 14.0306 16.4152C13.8349 16.9183 13.7013 17.4938 13.6629 18.3364C13.6239 19.1803 13.615 19.4501 13.615 21.5996C13.615 23.749 13.6239 24.0188 13.6629 24.8628C13.7013 25.7054 13.8349 26.2808 14.0306 26.784C14.2326 27.3044 14.5031 27.7464 14.9435 28.1861C15.384 28.6257 15.8245 28.8964 16.3456 29.099C16.8494 29.2947 17.4242 29.4283 18.2668 29.4666C19.1112 29.505 19.3805 29.5146 21.53 29.5146C23.6795 29.5146 23.9493 29.5056 24.7932 29.4666C25.6358 29.4283 26.2112 29.2947 26.7144 29.099C27.2348 28.8964 27.676 28.6259 28.1165 28.1861C28.557 27.7462 28.8268 27.3044 29.0294 26.784C29.2251 26.2808 29.3593 25.7054 29.3971 24.8628C29.4354 24.0182 29.4444 23.749 29.4444 21.5996C29.4444 19.4501 29.4354 19.1803 29.3971 18.3364C29.3587 17.4937 29.2251 16.918 29.0294 16.4152C28.8268 15.8948 28.5563 15.4536 28.1165 15.0131C27.6767 14.5726 27.2348 14.3022 26.715 14.1001C26.2112 13.9045 25.6358 13.7702 24.7938 13.7325C23.9498 13.6939 23.6801 13.6846 21.5309 13.6846C19.3818 13.6846 19.1115 13.6935 18.2671 13.7325" fill="#242A1F"/>
</g>
<defs>
<filter id="filter0_b_1204_11262" x="-4.90161" y="-4.83203" width="53.033" height="53.0332" filterUnits="userSpaceOnUse" color-interpolation-filters="sRGB">
<feFlood flood-opacity="0" result="BackgroundImageFix"/>
<feGaussianBlur in="BackgroundImageFix" stdDeviation="2.5"/>
<feComposite in2="SourceAlpha" operator="in" result="effect1_backgroundBlur_1204_11262"/>
<feBlend mode="normal" in="SourceGraphic" in2="effect1_backgroundBlur_1204_11262" result="shape"/>
</filter>
</defs>
</svg>
