<svg width="44" height="44" viewBox="0 0 44 44" fill="none" xmlns="http://www.w3.org/2000/svg">
<g clip-path="url(#clip0_1204_11259)">
<g filter="url(#filter0_b_1204_11259)">
<rect y="0.167969" width="43.0322" height="43.0322" rx="5" fill="#242A1F"/>
</g>
<path fill-rule="evenodd" clip-rule="evenodd" d="M34.0722 15.4878C34.2541 14.919 34.0722 14.501 33.2067 14.501H30.3448C29.6171 14.501 29.2816 14.8621 29.0996 15.2603C29.0996 15.2603 27.6442 18.5881 25.5824 20.7497C24.9154 21.3754 24.6122 21.5745 24.2483 21.5745C24.0664 21.5745 23.8031 21.3754 23.8031 20.8066V15.4878C23.8031 14.8052 23.5919 14.501 22.9854 14.501H18.488C18.0333 14.501 17.7598 14.8178 17.7598 15.1181C17.7598 15.7652 18.7906 15.9144 18.8969 17.7348V21.6883C18.8969 22.5551 18.73 22.7123 18.3661 22.7123C17.3959 22.7123 15.0358 19.3696 13.6361 15.5447C13.3618 14.8013 13.0866 14.501 12.3552 14.501H9.49322C8.67551 14.501 8.51196 14.8621 8.51196 15.2603C8.51196 15.9713 9.48224 19.4983 13.0297 24.1628C15.3947 27.3484 18.7268 29.0752 21.7588 29.0752C23.578 29.0752 23.8031 28.6916 23.8031 28.031V25.6234C23.8031 24.8563 23.9754 24.7032 24.5515 24.7032C24.976 24.7032 25.7037 24.9023 27.4017 26.4382C29.3422 28.2586 29.6621 29.0752 30.7536 29.0752H33.6156C34.4333 29.0752 34.8422 28.6916 34.6063 27.9348C34.3482 27.1804 33.4217 26.086 32.1923 24.7886C31.5253 24.0491 30.5247 23.2527 30.2215 22.8544C29.797 22.3425 29.9183 22.1149 30.2215 21.6599C30.2215 21.6599 33.7084 17.0522 34.0722 15.4878Z" fill="white"/>
</g>
<defs>
<filter id="filter0_b_1204_11259" x="-5" y="-4.83203" width="53.0322" height="53.0322" filterUnits="userSpaceOnUse" color-interpolation-filters="sRGB">
<feFlood flood-opacity="0" result="BackgroundImageFix"/>
<feGaussianBlur in="BackgroundImageFix" stdDeviation="2.5"/>
<feComposite in2="SourceAlpha" operator="in" result="effect1_backgroundBlur_1204_11259"/>
<feBlend mode="normal" in="SourceGraphic" in2="effect1_backgroundBlur_1204_11259" result="shape"/>
</filter>
<clipPath id="clip0_1204_11259">
<rect y="0.167969" width="43.0322" height="43.0322" rx="5" fill="white"/>
</clipPath>
</defs>
</svg>
