<svg width="44" height="44" viewBox="0 0 44 44" fill="none" xmlns="http://www.w3.org/2000/svg">
<g filter="url(#filter0_b_1204_11261)">
<rect x="0.0651855" y="0.167969" width="43.033" height="43.033" rx="5" fill="#242A1F"/>
<path d="M9.58179 33.6846L11.2781 27.5249C10.2294 25.7169 9.67921 23.6694 9.68494 21.5762C9.68494 15.0173 15.0488 9.68457 21.6334 9.68457C24.8311 9.68457 27.8339 10.9222 30.0861 13.1694C32.3439 15.4165 33.5875 18.4051 33.5818 21.5819C33.5818 28.1408 28.2179 33.4735 21.6276 33.4735H21.6219C19.6219 33.4735 17.6563 32.9716 15.9084 32.0249L9.58179 33.6846ZM16.2122 29.8747L16.5732 30.0914C18.0975 30.9926 19.8454 31.4659 21.6276 31.4716H21.6334C27.1061 31.4716 31.5646 27.0401 31.5646 21.5876C31.5646 18.9469 30.5331 16.4659 28.6591 14.5952C26.7852 12.7245 24.2866 11.6979 21.6334 11.6979C16.1606 11.6922 11.7021 16.1237 11.7021 21.5762C11.7021 23.4412 12.2236 25.2606 13.2208 26.8348L13.4557 27.2112L12.4528 30.8557L16.2122 29.8747Z" fill="white"/>
<path d="M10 33.2679L11.639 27.3192C10.6246 25.5797 10.0917 23.6006 10.0917 21.5816C10.0974 15.2508 15.2722 10.1006 21.6332 10.1006C24.7221 10.1006 27.616 11.2983 29.7937 13.4656C31.9713 15.6329 33.169 18.5188 33.169 21.5873C33.169 27.9181 27.9885 33.0683 21.6332 33.0683H21.6275C19.6963 33.0683 17.7994 32.5835 16.1146 31.6709L10 33.2679Z" fill="white"/>
<path fill-rule="evenodd" clip-rule="evenodd" d="M18.6475 16.603C18.424 16.1068 18.1891 16.0954 17.9771 16.0897C17.8051 16.084 17.6046 16.084 17.404 16.084C17.2034 16.084 16.8825 16.1581 16.6074 16.4547C16.3324 16.7513 15.5645 17.4699 15.5645 18.9357C15.5645 20.3958 16.6361 21.8102 16.7851 22.0098C16.9341 22.2095 18.8538 25.3064 21.8854 26.4984C24.4069 27.4908 24.9226 27.2912 25.467 27.2399C26.0114 27.1885 27.2321 26.5212 27.4842 25.8254C27.7306 25.1296 27.7306 24.5365 27.6561 24.411C27.5816 24.2855 27.3811 24.2114 27.0831 24.0631C26.7851 23.9148 25.318 23.1962 25.043 23.0935C24.7679 22.9965 24.5673 22.9452 24.3725 23.2418C24.1719 23.5384 23.5988 24.2057 23.4269 24.4053C23.255 24.6049 23.0773 24.6277 22.7793 24.4794C22.4814 24.3311 21.5186 24.0174 20.3782 23.0022C19.49 22.2152 18.8882 21.2399 18.7163 20.9433C18.5444 20.6467 18.6991 20.487 18.8481 20.3387C18.9799 20.2076 19.1461 19.9908 19.2951 19.8197C19.4441 19.6486 19.4957 19.5231 19.5931 19.3235C19.6905 19.1239 19.6447 18.9528 19.5702 18.8045C19.4957 18.6619 18.9112 17.1904 18.6475 16.603Z" fill="#242A1F"/>
</g>
<defs>
<filter id="filter0_b_1204_11261" x="-4.93481" y="-4.83203" width="53.033" height="53.0332" filterUnits="userSpaceOnUse" color-interpolation-filters="sRGB">
<feFlood flood-opacity="0" result="BackgroundImageFix"/>
<feGaussianBlur in="BackgroundImageFix" stdDeviation="2.5"/>
<feComposite in2="SourceAlpha" operator="in" result="effect1_backgroundBlur_1204_11261"/>
<feBlend mode="normal" in="SourceGraphic" in2="effect1_backgroundBlur_1204_11261" result="shape"/>
</filter>
</defs>
</svg>
