<svg width="24" height="25" viewBox="0 0 24 25" fill="none" xmlns="http://www.w3.org/2000/svg">
<path d="M9 5.49952C8.73478 5.49952 8.48043 5.60488 8.29289 5.79241C8.10536 5.97995 8 6.2343 8 6.49952C8 6.76474 8.10536 7.01909 8.29289 7.20663C8.48043 7.39416 8.73478 7.49952 9 7.49952C9.26522 7.49952 9.51957 7.39416 9.70711 7.20663C9.89464 7.01909 10 6.76474 10 6.49952C10 6.2343 9.89464 5.97995 9.70711 5.79241C9.51957 5.60488 9.26522 5.49952 9 5.49952ZM6.17 5.49952C6.3766 4.91399 6.75974 4.40695 7.2666 4.04831C7.77346 3.68967 8.37909 3.49707 9 3.49707C9.62091 3.49707 10.2265 3.68967 10.7334 4.04831C11.2403 4.40695 11.6234 4.91399 11.83 5.49952H19C19.2652 5.49952 19.5196 5.60488 19.7071 5.79241C19.8946 5.97995 20 6.2343 20 6.49952C20 6.76474 19.8946 7.01909 19.7071 7.20663C19.5196 7.39416 19.2652 7.49952 19 7.49952H11.83C11.6234 8.08505 11.2403 8.59209 10.7334 8.95073C10.2265 9.30938 9.62091 9.50197 9 9.50197C8.37909 9.50197 7.77346 9.30938 7.2666 8.95073C6.75974 8.59209 6.3766 8.08505 6.17 7.49952H5C4.73478 7.49952 4.48043 7.39416 4.29289 7.20663C4.10536 7.01909 4 6.76474 4 6.49952C4 6.2343 4.10536 5.97995 4.29289 5.79241C4.48043 5.60488 4.73478 5.49952 5 5.49952H6.17ZM15 11.4995C14.7348 11.4995 14.4804 11.6049 14.2929 11.7924C14.1054 11.9799 14 12.2343 14 12.4995C14 12.7647 14.1054 13.0191 14.2929 13.2066C14.4804 13.3942 14.7348 13.4995 15 13.4995C15.2652 13.4995 15.5196 13.3942 15.7071 13.2066C15.8946 13.0191 16 12.7647 16 12.4995C16 12.2343 15.8946 11.9799 15.7071 11.7924C15.5196 11.6049 15.2652 11.4995 15 11.4995ZM12.17 11.4995C12.3766 10.914 12.7597 10.407 13.2666 10.0483C13.7735 9.68967 14.3791 9.49707 15 9.49707C15.6209 9.49707 16.2265 9.68967 16.7334 10.0483C17.2403 10.407 17.6234 10.914 17.83 11.4995H19C19.2652 11.4995 19.5196 11.6049 19.7071 11.7924C19.8946 11.9799 20 12.2343 20 12.4995C20 12.7647 19.8946 13.0191 19.7071 13.2066C19.5196 13.3942 19.2652 13.4995 19 13.4995H17.83C17.6234 14.0851 17.2403 14.5921 16.7334 14.9507C16.2265 15.3094 15.6209 15.502 15 15.502C14.3791 15.502 13.7735 15.3094 13.2666 14.9507C12.7597 14.5921 12.3766 14.0851 12.17 13.4995H5C4.73478 13.4995 4.48043 13.3942 4.29289 13.2066C4.10536 13.0191 4 12.7647 4 12.4995C4 12.2343 4.10536 11.9799 4.29289 11.7924C4.48043 11.6049 4.73478 11.4995 5 11.4995H12.17ZM9 17.4995C8.73478 17.4995 8.48043 17.6049 8.29289 17.7924C8.10536 17.9799 8 18.2343 8 18.4995C8 18.7647 8.10536 19.0191 8.29289 19.2066C8.48043 19.3942 8.73478 19.4995 9 19.4995C9.26522 19.4995 9.51957 19.3942 9.70711 19.2066C9.89464 19.0191 10 18.7647 10 18.4995C10 18.2343 9.89464 17.9799 9.70711 17.7924C9.51957 17.6049 9.26522 17.4995 9 17.4995ZM6.17 17.4995C6.3766 16.914 6.75974 16.407 7.2666 16.0483C7.77346 15.6897 8.37909 15.4971 9 15.4971C9.62091 15.4971 10.2265 15.6897 10.7334 16.0483C11.2403 16.407 11.6234 16.914 11.83 17.4995H19C19.2652 17.4995 19.5196 17.6049 19.7071 17.7924C19.8946 17.9799 20 18.2343 20 18.4995C20 18.7647 19.8946 19.0191 19.7071 19.2066C19.5196 19.3942 19.2652 19.4995 19 19.4995H11.83C11.6234 20.0851 11.2403 20.5921 10.7334 20.9507C10.2265 21.3094 9.62091 21.502 9 21.502C8.37909 21.502 7.77346 21.3094 7.2666 20.9507C6.75974 20.5921 6.3766 20.0851 6.17 19.4995H5C4.73478 19.4995 4.48043 19.3942 4.29289 19.2066C4.10536 19.0191 4 18.7647 4 18.4995C4 18.2343 4.10536 17.9799 4.29289 17.7924C4.48043 17.6049 4.73478 17.4995 5 17.4995H6.17Z" fill="#242A1F"/>
</svg>
