<svg width="260" height="73" viewBox="0 0 260 73" fill="none" xmlns="http://www.w3.org/2000/svg">
<path d="M34.6362 0.744141L3.70142 17.1687L9.95764 20.5056L34.6362 7.39631L59.3147 20.5056L65.5709 17.1687L34.6362 0.744141Z" fill="#82C853"/>
<path d="M13.5745 22.4115L19.8307 25.7484L34.6378 17.8611L49.4666 25.7484L55.7228 22.4115L34.6378 11.209L13.5745 22.4115Z" fill="#82C853"/>
<path d="M58.3842 38.8379L46.7809 44.9701V41.5898L34.6365 48.0253L22.4921 41.5898V45.0134L10.8889 38.8379V35.4143L0 29.6289V36.2811L34.6365 54.6775L69.273 36.2811V29.6289L58.3842 35.4143V38.8379Z" fill="white"/>
<path d="M34.6365 37.5606L0 19.1426V25.7947L13.5732 32.9886V36.9539L19.8294 40.2908V36.3255L34.6365 44.1911L49.4653 36.3255V40.2475L55.6999 36.9539V33.0103L69.273 25.7947V19.1426L34.6365 37.5606Z" fill="white"/>
<path d="M78.625 23.061H83.4308L84.2318 19.3124H86.8945V34.8703L84.0586 35.5636V39.5289H96.3546V35.5636L93.5187 34.8703V19.3124H96.1814L96.9824 23.061H101.81V14.7188H78.625V23.061Z" fill="white"/>
<path d="M126.273 17.8407C126.1 17.6457 125.883 17.4507 125.689 17.2774L128.395 13.5938H125.083L123.524 15.7172C123.156 15.5222 122.788 15.3489 122.377 15.1755C120.818 14.5472 118.956 14.2221 116.791 14.2221C114.648 14.2221 112.808 14.5472 111.228 15.1755C109.669 15.8039 108.37 16.6923 107.331 17.8191C106.314 18.9675 105.556 20.3326 105.058 21.9144C104.56 23.4962 104.322 25.2513 104.322 27.1798C104.322 29.1082 104.56 30.8417 105.058 32.4235C105.556 34.0053 106.314 35.3704 107.331 36.4971C107.504 36.6921 107.699 36.8872 107.894 37.0605L105.231 40.7008H108.544L110.081 38.599C110.427 38.794 110.817 38.9673 111.206 39.119C112.765 39.7474 114.605 40.0507 116.748 40.0507C118.913 40.0507 120.775 39.7474 122.355 39.119C123.935 38.4906 125.234 37.6239 126.252 36.4755C127.269 35.3487 128.027 33.9836 128.525 32.4235C129.022 30.8634 129.282 29.1082 129.282 27.2231C129.282 25.2946 129.022 23.5395 128.525 21.936C128.07 20.3326 127.312 18.9675 126.273 17.8407ZM111.423 30.4083C111.228 29.4116 111.141 28.3282 111.141 27.1581C111.141 25.988 111.228 24.9046 111.423 23.8862C111.618 22.8678 111.942 22.001 112.375 21.2643C112.808 20.5276 113.393 19.9426 114.129 19.5092C114.843 19.0758 115.752 18.8808 116.813 18.8808C117.895 18.8808 118.783 19.0975 119.519 19.5092C119.8 19.6825 120.06 19.8776 120.298 20.0942L111.791 31.7301C111.639 31.3401 111.531 30.885 111.423 30.4083ZM122.225 30.4083C122.03 31.4051 121.705 32.2718 121.273 33.0085C120.818 33.7453 120.233 34.3086 119.497 34.742C118.761 35.1537 117.852 35.3704 116.77 35.3704C115.709 35.3704 114.821 35.1537 114.107 34.742C113.826 34.5687 113.566 34.3953 113.349 34.1786L121.857 22.5211C122.009 22.9544 122.138 23.4095 122.225 23.9079C122.42 24.9263 122.506 26.0097 122.506 27.1798C122.528 28.3282 122.42 29.4116 122.225 30.4083Z" fill="white"/>
<path d="M150.517 27.3297L149.586 30.6016H149.261L148.807 27.3297L144.174 14.7188H131.748V18.7924L134.584 19.4424V34.8703L131.748 35.5636V39.5289H142.615V35.5636L139.931 34.8703V24.7945L139.585 21.0892H139.931L141.316 24.7728L146.101 37.2971H152.075L156.968 24.7728L158.267 21.3059H158.635L158.288 24.7728V34.8703L155.582 35.5636V39.5289H167.727V35.5636L164.913 34.8703L164.934 19.4424L167.792 18.7924V14.7188H155.193L150.517 27.3297Z" fill="white"/>
<path d="M190.653 27.3297L189.722 30.6016H189.398L188.943 27.3297L184.31 14.7188H171.906V18.7924L174.742 19.4424V34.8703L171.906 35.5636V39.5289H182.773V35.5636L180.067 34.8703V24.7945L179.721 21.0892H180.067L181.453 24.7728L186.237 37.2971H192.234L197.104 24.7728L198.425 21.3059H198.771L198.446 24.7728V34.8703L195.719 35.5636V39.5289H207.885V35.5636L205.049 34.8703L205.071 19.4424L207.95 18.7924V14.7188H195.329L190.653 27.3297Z" fill="white"/>
<path d="M226.805 34.9353H221.501V29.1065H227.8V24.5128H221.501V19.3124H226.372L227.129 22.8227H231.784V14.7188H212.084V18.8141L214.877 19.4424V34.8703L212.084 35.5636V39.5289H231.74L232.779 31.3167H227.995L226.805 34.9353Z" fill="white"/>
<path d="M257.481 34.9784L253.519 28.5429C254.125 28.2396 254.71 27.8712 255.251 27.4595C255.792 27.0478 256.268 26.5495 256.68 26.0077C257.091 25.4444 257.416 24.8377 257.654 24.1443C257.892 23.4509 258 22.6925 258 21.8258C258 20.764 257.827 19.789 257.459 18.9222C257.091 18.0555 256.55 17.2971 255.792 16.6904C255.056 16.0837 254.103 15.5853 252.956 15.2603C251.809 14.9136 250.445 14.7402 248.886 14.7402H236.006V18.8139L238.842 19.4639V34.8918L236.006 35.5851V39.5504H248.129V35.5851L245.293 34.8918V29.8647H247.609L252.069 39.5504H259.775V35.5851L257.481 34.9784ZM251.073 23.4509C250.965 23.8409 250.77 24.1659 250.51 24.4476C250.25 24.7293 249.904 24.946 249.492 25.1193C249.081 25.2927 248.562 25.3577 247.934 25.3577H245.293V19.3122H247.544C248.865 19.3122 249.796 19.5506 250.38 20.0273C250.943 20.504 251.246 21.2407 251.246 22.2375C251.246 22.6708 251.181 23.0609 251.073 23.4509Z" fill="white"/>
<path d="M86.7659 55.6771V57.779H85.6402V56.7822H80.0983V57.779H78.9727V55.6771C79.319 55.6771 79.6221 55.4821 79.8386 55.1138C80.055 54.7454 80.2282 54.182 80.2932 53.4453L80.856 48.6133H86.1597V55.6555H86.7659V55.6771ZM85.0557 49.74H81.8951L81.4405 53.5753C81.3756 54.0737 81.289 54.5071 81.1807 54.8321C81.0725 55.1788 80.921 55.4388 80.7261 55.6555H85.0557V49.74Z" fill="white"/>
<path d="M89.5149 56.717C89.1252 56.5437 88.7789 56.2837 88.5191 55.9586C88.0428 55.3519 87.8047 54.6152 87.8047 53.7268C87.8047 52.8384 88.0428 52.1017 88.5191 51.495C88.7789 51.17 89.1252 50.9099 89.5149 50.7366C89.9262 50.5632 90.3375 50.4766 90.7921 50.4766C91.2467 50.4766 91.6797 50.5632 92.0693 50.7366C92.459 50.9099 92.8053 51.1483 93.0651 51.495C93.5414 52.08 93.8011 52.8167 93.8011 53.7268C93.8011 54.6152 93.563 55.3519 93.0651 55.9586C92.7837 56.2837 92.459 56.5437 92.0693 56.717C91.6797 56.8904 91.2467 56.977 90.7921 56.977C90.3375 56.977 89.9045 56.8904 89.5149 56.717ZM92.5456 53.7268C92.5456 53.0768 92.4157 52.5784 92.1343 52.21C91.9827 52.015 91.8095 51.8633 91.5714 51.755C91.3333 51.6467 91.0735 51.6033 90.7921 51.6033C90.5107 51.6033 90.2726 51.6467 90.0344 51.755C89.7963 51.8633 89.6015 52.015 89.4716 52.21C89.1902 52.5784 89.0603 53.0768 89.0603 53.7268C89.0603 54.3552 89.1902 54.8536 89.4716 55.2219C89.6231 55.4169 89.7963 55.5686 90.0344 55.677C90.2726 55.7853 90.5323 55.8286 90.7921 55.8286C91.0519 55.8286 91.3116 55.7853 91.5498 55.677C91.7879 55.5686 91.9827 55.4169 92.1126 55.2219C92.394 54.8752 92.5456 54.3769 92.5456 53.7268Z" fill="white"/>
<path d="M101.508 50.6719V56.804H100.296V52.947L98.607 55.7639H97.8927L96.2041 52.947V56.804H95.0352V50.6719H96.0959L98.2823 54.2905L100.447 50.6719H101.508Z" fill="white"/>
<path d="M107.05 56.8016V55.9348C106.769 56.3032 106.444 56.5849 106.097 56.7366C105.729 56.8882 105.296 56.9749 104.799 56.9749C104.192 56.9749 103.716 56.8016 103.327 56.4549C102.958 56.1082 102.764 55.6531 102.764 55.0898C102.764 54.6781 102.85 54.353 103.023 54.0714C103.197 53.7897 103.478 53.5513 103.846 53.378C104.127 53.248 104.452 53.1396 104.864 53.0529C105.253 52.9663 105.751 52.9013 106.357 52.8146L106.898 52.7279C106.877 52.3812 106.725 52.0995 106.487 51.9045C106.249 51.7095 105.924 51.6228 105.513 51.6228C104.82 51.6228 104.279 51.8612 103.846 52.3162L103.132 51.5362C103.759 50.8428 104.604 50.4961 105.621 50.4961C105.924 50.4961 106.227 50.5611 106.53 50.6694C106.833 50.7778 107.093 50.9295 107.31 51.1245C107.808 51.5578 108.067 52.2079 108.067 53.0963V56.8016H107.05ZM106.877 54.5264C106.898 54.3314 106.92 54.0497 106.92 53.6813C106.271 53.7897 105.664 53.898 105.102 54.0063C104.777 54.0714 104.495 54.2014 104.279 54.3747C104.063 54.5481 103.954 54.7431 103.954 55.0031C103.954 55.2848 104.063 55.5015 104.257 55.6965C104.452 55.8915 104.712 55.9565 105.037 55.9565C105.405 55.9565 105.729 55.8698 106.011 55.7181C106.292 55.5665 106.53 55.3498 106.682 55.0681C106.79 54.9164 106.855 54.7214 106.877 54.5264Z" fill="white"/>
<path d="M117.269 56.804H116.056V52.5787L113.026 56.804H111.965V50.6719H113.177V54.8105L116.208 50.6719H117.269V56.804Z" fill="white"/>
<path d="M119.606 50.8211C119.822 50.7128 120.061 50.6261 120.342 50.5828C120.623 50.5394 120.883 50.4961 121.165 50.4961C121.446 50.4961 121.727 50.5178 122.009 50.5828C122.29 50.6261 122.528 50.7128 122.745 50.8211C123.048 50.9945 123.286 51.2111 123.459 51.4712C123.632 51.7312 123.719 52.0345 123.741 52.3812C123.741 52.6412 123.697 52.8579 123.611 53.0529C123.524 53.248 123.416 53.4213 123.243 53.5947C123.654 53.8763 123.849 54.3314 123.849 54.9381C123.849 55.3065 123.762 55.6315 123.568 55.9348C123.373 56.2165 123.135 56.4549 122.81 56.6282C122.377 56.8666 121.814 56.9749 121.143 56.9749C120.472 56.9749 119.909 56.8666 119.498 56.6282C118.978 56.3682 118.653 55.9348 118.502 55.3064L119.671 55.0248C119.736 55.2848 119.866 55.4581 120.082 55.6098C120.342 55.7832 120.71 55.8698 121.143 55.8698C121.576 55.8698 121.944 55.7832 122.204 55.6098C122.485 55.4581 122.637 55.2198 122.637 54.9381C122.637 54.5264 122.442 54.288 122.031 54.223C121.792 54.158 121.511 54.1364 121.165 54.1364H120.58V53.183H121.165C121.295 53.183 121.446 53.183 121.576 53.1613C121.727 53.1613 121.836 53.1396 121.944 53.0963C122.16 53.0313 122.29 52.9446 122.377 52.8579C122.442 52.7496 122.485 52.6196 122.485 52.4679C122.485 52.3379 122.442 52.2296 122.377 52.1212C122.312 52.0129 122.204 51.9262 122.095 51.8612C121.857 51.7095 121.533 51.6445 121.121 51.6445C120.71 51.6445 120.385 51.7095 120.147 51.8612C120.039 51.9262 119.952 51.9912 119.909 52.0779C119.844 52.1429 119.822 52.2512 119.779 52.3596L118.61 52.0779C118.762 51.4928 119.086 51.1028 119.606 50.8211Z" fill="white"/>
<path d="M128.74 56.804H127.527L127.549 50.6719H128.761V53.2504H129.389L131.186 50.6719H132.528L130.428 53.7271L132.809 56.804H131.424L129.411 54.2255H128.761V56.804H128.74Z" fill="white"/>
<path d="M138.677 50.6719V56.804H137.552V51.7336H135.452L135.084 54.7022C134.997 55.3956 134.824 55.9373 134.564 56.284C134.305 56.6523 133.893 56.8257 133.352 56.8257C133.287 56.8257 133.179 56.8257 133.027 56.804V55.7422C133.287 55.7422 133.482 55.6989 133.612 55.5906C133.742 55.5039 133.828 55.3739 133.893 55.2005C133.958 55.0272 134.001 54.7889 134.023 54.4638L134.499 50.6935H138.677V50.6719Z" fill="white"/>
<path d="M141.534 55.2848C141.685 55.4798 141.88 55.6531 142.118 55.7615C142.356 55.8698 142.616 55.9348 142.898 55.9348C143.309 55.9348 143.655 55.8482 143.958 55.6965C144.261 55.5448 144.521 55.2848 144.759 54.9598L145.625 55.5448C145.344 55.9998 144.976 56.3465 144.521 56.6065C144.067 56.8666 143.547 56.9749 142.963 56.9749C142.508 56.9749 142.053 56.8882 141.642 56.7149C141.231 56.5415 140.884 56.2815 140.625 55.9565C140.148 55.3498 139.91 54.6347 139.91 53.7897C139.91 53.3563 139.975 52.9446 140.083 52.5546C140.213 52.1646 140.386 51.8178 140.625 51.5145C140.906 51.1895 141.231 50.9294 141.62 50.7561C142.01 50.5828 142.443 50.4961 142.898 50.4961C143.352 50.4961 143.785 50.5828 144.175 50.7561C144.564 50.9294 144.911 51.1678 145.171 51.5145C145.647 52.0995 145.885 52.8363 145.885 53.7463C145.885 53.9414 145.885 54.0714 145.863 54.158H141.101C141.187 54.6131 141.317 55.0031 141.534 55.2848ZM142.14 51.7095C141.902 51.8179 141.707 51.9695 141.555 52.1862C141.361 52.4246 141.231 52.7279 141.187 53.0963H144.694C144.629 52.7279 144.499 52.4246 144.326 52.1862C144.175 51.9912 143.98 51.8179 143.742 51.7095C143.504 51.6012 143.244 51.5362 142.941 51.5362C142.638 51.5362 142.378 51.6012 142.14 51.7095Z" fill="white"/>
<path d="M148.44 55.2848C148.591 55.4798 148.786 55.6531 149.024 55.7615C149.262 55.8698 149.522 55.9348 149.804 55.9348C150.215 55.9348 150.561 55.8482 150.864 55.6965C151.167 55.5448 151.427 55.2848 151.665 54.9598L152.531 55.5448C152.25 55.9998 151.882 56.3465 151.427 56.6065C150.973 56.8666 150.453 56.9749 149.869 56.9749C149.414 56.9749 148.959 56.8882 148.548 56.7149C148.137 56.5415 147.79 56.2815 147.531 55.9565C147.054 55.3498 146.816 54.6347 146.816 53.7897C146.816 53.3563 146.881 52.9446 146.989 52.5546C147.119 52.1646 147.292 51.8178 147.531 51.5145C147.812 51.1895 148.137 50.9294 148.526 50.7561C148.916 50.5828 149.349 50.4961 149.804 50.4961C150.258 50.4961 150.691 50.5828 151.081 50.7561C151.47 50.9294 151.817 51.1678 152.077 51.5145C152.553 52.0995 152.791 52.8363 152.791 53.7463C152.791 53.9414 152.791 54.0714 152.769 54.158H148.007C148.093 54.6131 148.223 55.0031 148.44 55.2848ZM149.046 51.7095C148.808 51.8179 148.613 51.9695 148.461 52.1862C148.267 52.4246 148.137 52.7279 148.093 53.0963H151.6C151.535 52.7279 151.406 52.4246 151.232 52.1862C151.081 51.9912 150.886 51.8179 150.648 51.7095C150.41 51.6012 150.15 51.5362 149.847 51.5362C149.544 51.5362 149.284 51.6012 149.046 51.7095Z" fill="white"/>
<path d="M159.437 50.6719V56.804H158.246V54.1605H155.259V56.804H154.068V50.6719H155.259V52.9904H158.246V50.6719H159.437Z" fill="white"/>
<path d="M162.402 56.717C162.012 56.5437 161.666 56.2837 161.406 55.9586C160.93 55.3519 160.691 54.6152 160.691 53.7268C160.691 52.8384 160.93 52.1017 161.406 51.495C161.666 51.17 162.012 50.9099 162.402 50.7366C162.813 50.5632 163.224 50.4766 163.679 50.4766C164.133 50.4766 164.566 50.5632 164.956 50.7366C165.346 50.9099 165.692 51.1483 165.952 51.495C166.428 52.08 166.688 52.8167 166.688 53.7268C166.688 54.6152 166.45 55.3519 165.952 55.9586C165.67 56.2837 165.346 56.5437 164.956 56.717C164.566 56.8904 164.133 56.977 163.679 56.977C163.224 56.977 162.791 56.8904 162.402 56.717ZM165.432 53.7268C165.432 53.0768 165.302 52.5784 165.021 52.21C164.869 52.015 164.696 51.8633 164.458 51.755C164.22 51.6467 163.96 51.6033 163.679 51.6033C163.397 51.6033 163.159 51.6467 162.921 51.755C162.683 51.8633 162.488 52.015 162.358 52.21C162.077 52.5784 161.947 53.0768 161.947 53.7268C161.947 54.3552 162.077 54.8536 162.358 55.2219C162.51 55.4169 162.683 55.5686 162.921 55.677C163.159 55.7853 163.419 55.8286 163.679 55.8286C163.96 55.8286 164.198 55.7853 164.436 55.677C164.675 55.5686 164.869 55.4169 164.999 55.2219C165.281 54.8752 165.432 54.3769 165.432 53.7268Z" fill="white"/>
<path d="M172.253 51.8636H169.136V56.804H167.945V50.6719H172.253V51.8636Z" fill="white"/>
<path d="M174.484 56.717C174.094 56.5437 173.748 56.2837 173.488 55.9586C173.012 55.3519 172.773 54.6152 172.773 53.7268C172.773 52.8384 173.012 52.1017 173.488 51.495C173.748 51.17 174.094 50.9099 174.484 50.7366C174.895 50.5632 175.306 50.4766 175.761 50.4766C176.215 50.4766 176.648 50.5632 177.038 50.7366C177.428 50.9099 177.774 51.1483 178.034 51.495C178.51 52.08 178.77 52.8167 178.77 53.7268C178.77 54.6152 178.532 55.3519 178.034 55.9586C177.752 56.2837 177.428 56.5437 177.038 56.717C176.648 56.8904 176.215 56.977 175.761 56.977C175.306 56.977 174.873 56.8904 174.484 56.717ZM177.493 53.7268C177.493 53.0768 177.363 52.5784 177.081 52.21C176.93 52.015 176.757 51.8633 176.519 51.755C176.28 51.6467 176.021 51.6033 175.739 51.6033C175.458 51.6033 175.22 51.6467 174.982 51.755C174.743 51.8633 174.549 52.015 174.419 52.21C174.137 52.5784 174.007 53.0768 174.007 53.7268C174.007 54.3552 174.137 54.8536 174.419 55.2219C174.57 55.4169 174.743 55.5686 174.982 55.677C175.22 55.7853 175.479 55.8286 175.739 55.8286C175.999 55.8286 176.259 55.7853 176.497 55.677C176.735 55.5686 176.93 55.4169 177.06 55.2219C177.363 54.8752 177.493 54.3769 177.493 53.7268Z" fill="white"/>
<path d="M186.301 51.2545C186.669 51.4062 186.972 51.6445 187.21 51.9262C187.427 52.2079 187.6 52.5113 187.73 52.8796C187.838 53.248 187.903 53.6163 187.903 54.0064C187.925 54.4181 187.86 54.7864 187.73 55.1548C187.6 55.5231 187.384 55.8482 187.124 56.1299C186.864 56.4115 186.539 56.6066 186.193 56.7582C185.825 56.8882 185.457 56.9749 185.067 56.9749C184.634 56.9749 184.223 56.8882 183.833 56.7366C183.444 56.5849 183.119 56.3465 182.859 56.0432C182.405 55.5231 182.167 54.8298 182.123 53.963C182.123 53.7897 182.102 53.5513 182.102 53.2696C182.102 52.6629 182.145 52.0996 182.21 51.5795C182.361 50.5394 182.794 49.781 183.487 49.2827C183.812 49.0443 184.201 48.871 184.634 48.7843C185.067 48.6976 185.544 48.6543 186.085 48.6543C186.474 48.6543 186.929 48.6976 187.427 48.7843V49.8894C186.907 49.8244 186.366 49.781 185.847 49.781C185.067 49.781 184.504 49.9111 184.136 50.1711C183.898 50.3444 183.725 50.5611 183.595 50.8428C183.487 51.1245 183.4 51.4495 183.357 51.8179C183.595 51.5795 183.855 51.3845 184.18 51.2545C184.483 51.1245 184.829 51.0595 185.176 51.0595C185.544 51.0378 185.933 51.1028 186.301 51.2545ZM184.288 52.2079C184.072 52.2946 183.877 52.4246 183.747 52.5979C183.487 52.9013 183.357 53.3346 183.357 53.9197C183.357 54.5047 183.487 54.9381 183.747 55.2631C183.898 55.4365 184.072 55.5665 184.288 55.6532C184.504 55.7398 184.743 55.7832 184.981 55.7832C185.241 55.7832 185.457 55.7398 185.673 55.6532C185.89 55.5665 186.085 55.4365 186.215 55.2631C186.496 54.9381 186.626 54.5047 186.626 53.9414C186.626 53.6813 186.583 53.4213 186.518 53.183C186.453 52.9446 186.345 52.7496 186.215 52.5979C186.063 52.4246 185.89 52.2946 185.673 52.2079C185.457 52.1212 185.219 52.0779 184.981 52.0995C184.743 52.0779 184.526 52.1212 184.288 52.2079Z" fill="white"/>
<path d="M194.962 53.7268C194.962 54.6585 194.724 55.3953 194.269 55.9803C194.009 56.3053 193.706 56.5437 193.338 56.717C192.97 56.8904 192.559 56.977 192.148 56.977C191.412 56.977 190.805 56.7604 190.351 56.3487V59.5122H189.16V50.6499H190.221V51.235C190.459 50.9966 190.74 50.8016 191.087 50.6716C191.433 50.5416 191.78 50.4766 192.148 50.4766C192.58 50.4766 192.97 50.5632 193.36 50.7366C193.749 50.9099 194.053 51.1483 194.291 51.4516C194.724 52.0583 194.962 52.8167 194.962 53.7268ZM193.685 53.7268C193.685 53.0768 193.555 52.5567 193.295 52.1884C193.013 51.7767 192.559 51.56 191.931 51.56C191.671 51.56 191.433 51.6033 191.195 51.69C190.979 51.7767 190.784 51.9283 190.654 52.1017C190.351 52.47 190.199 53.0118 190.199 53.7051C190.199 54.0302 190.243 54.3118 190.307 54.5935C190.372 54.8752 190.502 55.1136 190.654 55.2869C190.979 55.6553 191.412 55.8503 191.974 55.8503C192.256 55.8503 192.494 55.807 192.732 55.6986C192.97 55.5903 193.165 55.4386 193.295 55.2219C193.555 54.8969 193.685 54.3985 193.685 53.7268Z" fill="white"/>
<path d="M201.434 50.6719L198.728 57.8224C198.469 58.4941 198.165 58.9492 197.841 59.1875C197.668 59.3175 197.473 59.4042 197.278 59.4475C197.083 59.4909 196.845 59.5125 196.564 59.5125H196.434V58.3641L196.607 58.3858L196.758 58.4075C196.953 58.4075 197.126 58.3641 197.213 58.2991C197.321 58.2341 197.408 58.1041 197.516 57.8874C197.624 57.6924 197.754 57.389 197.906 56.9773L195.395 50.6719H196.607L198.469 55.4606L200.244 50.6719H201.434Z" fill="white"/>
<path d="M206.479 52.5134C206.436 52.3834 206.371 52.2967 206.306 52.2317C206.155 52.0367 205.981 51.8633 205.743 51.7767C205.505 51.6683 205.245 51.625 204.986 51.625C204.704 51.625 204.466 51.6683 204.228 51.7767C203.99 51.885 203.795 52.0367 203.665 52.2317C203.405 52.5784 203.254 53.0768 203.254 53.7268C203.275 54.3769 203.405 54.8752 203.665 55.2219C203.817 55.4169 203.99 55.5686 204.228 55.677C204.466 55.7853 204.726 55.8286 204.986 55.8286C205.267 55.8286 205.505 55.7853 205.743 55.677C205.981 55.5686 206.176 55.4169 206.306 55.2219C206.371 55.1353 206.414 55.0486 206.458 54.9402L207.583 55.4386C207.453 55.6553 207.345 55.8286 207.259 55.937C206.977 56.262 206.631 56.522 206.241 56.6954C205.852 56.8687 205.419 56.9554 204.986 56.9337C204.531 56.9554 204.12 56.8687 203.708 56.6954C203.297 56.522 202.972 56.262 202.691 55.937C202.215 55.3519 201.977 54.6152 201.977 53.7268C201.977 52.8384 202.215 52.1017 202.691 51.495C202.972 51.17 203.297 50.9099 203.687 50.7366C204.076 50.5632 204.509 50.4766 204.964 50.4766C205.419 50.4766 205.852 50.5632 206.241 50.7366C206.631 50.9099 206.977 51.17 207.237 51.495C207.389 51.69 207.497 51.8633 207.562 52.015L206.479 52.5134Z" fill="white"/>
<path d="M212.583 56.8016V55.9348C212.302 56.3032 211.977 56.5849 211.631 56.7366C211.263 56.8882 210.83 56.9749 210.332 56.9749C209.726 56.9749 209.249 56.8016 208.86 56.4549C208.492 56.1082 208.297 55.6531 208.297 55.0898C208.297 54.6781 208.383 54.353 208.557 54.0714C208.73 53.7897 209.011 53.5513 209.379 53.378C209.661 53.248 209.985 53.1396 210.397 53.0529C210.808 52.9663 211.284 52.9013 211.89 52.8146L212.432 52.7279C212.41 52.3812 212.258 52.0995 212.02 51.9045C211.782 51.7095 211.457 51.6228 211.046 51.6228C210.353 51.6228 209.812 51.8612 209.379 52.3162L208.665 51.5362C209.293 50.8428 210.137 50.4961 211.154 50.4961C211.457 50.4961 211.761 50.5611 212.064 50.6694C212.367 50.7778 212.626 50.9295 212.843 51.1245C213.341 51.5578 213.601 52.2079 213.601 53.0963V56.8016H212.583ZM212.41 54.5264C212.432 54.3314 212.453 54.0497 212.453 53.6813C211.804 53.7897 211.198 53.898 210.635 54.0063C210.31 54.0714 210.029 54.2014 209.812 54.3747C209.596 54.5481 209.488 54.7431 209.488 55.0031C209.488 55.2848 209.596 55.5015 209.791 55.6965C209.985 55.8915 210.245 55.9565 210.57 55.9565C210.938 55.9565 211.263 55.8698 211.544 55.7181C211.825 55.5665 212.064 55.3498 212.215 55.0681C212.323 54.9164 212.388 54.7214 212.41 54.5264Z" fill="white"/>
<path d="M86.3538 66.5542C86.3322 67.6376 85.9425 68.4827 85.2065 69.0677C84.9684 69.2627 84.6653 69.4144 84.3406 69.5444C83.9942 69.6528 83.6478 69.7394 83.2582 69.7828V72.188H82.1974V69.7828C81.8294 69.7611 81.4614 69.6744 81.1367 69.5661C80.7903 69.4578 80.5089 69.2844 80.2491 69.0894C79.8811 68.786 79.5997 68.4177 79.4049 67.9843C79.21 67.5509 79.1018 67.0742 79.1018 66.5759C79.1018 66.0775 79.21 65.6008 79.4049 65.1891C79.5997 64.7557 79.8811 64.3874 80.2708 64.084C80.5306 63.889 80.812 63.7157 81.1584 63.6073C81.5047 63.499 81.8511 63.4123 82.2407 63.369V61.5488H83.3015V63.369C84.1241 63.434 84.7735 63.6723 85.2498 64.084C85.9209 64.6474 86.3105 65.4708 86.3538 66.5542ZM82.1758 68.6343V64.474C81.6779 64.5174 81.2882 64.6691 81.0285 64.9074C80.7903 65.0808 80.5955 65.3191 80.4873 65.6008C80.3574 65.8825 80.2924 66.2075 80.2924 66.5542C80.3141 67.2693 80.5522 67.8326 81.0285 68.2227C81.2882 68.4393 81.6779 68.5693 82.1758 68.6343ZM85.1415 66.5542C85.1415 66.2075 85.0766 65.9042 84.9467 65.6225C84.8168 65.3408 84.6437 65.1024 84.4055 64.9291C84.1241 64.7124 83.7344 64.5607 83.2582 64.4957V68.656C83.7561 68.591 84.1458 68.4393 84.4055 68.2443C84.8818 67.8326 85.1199 67.2909 85.1415 66.5542Z" fill="white"/>
<path d="M91.5285 69.6082V68.7415C91.247 69.1098 90.9223 69.3915 90.576 69.5432C90.2079 69.6949 89.775 69.7816 89.2771 69.7816C88.6709 69.7816 88.1947 69.6082 87.805 69.2615C87.437 68.9148 87.2422 68.4598 87.2422 67.8964C87.2422 67.4847 87.3288 67.1597 87.502 66.878C87.6751 66.5963 87.9566 66.358 88.3246 66.1846C88.606 66.0546 88.9307 65.9463 89.342 65.8596C89.7317 65.7729 90.2296 65.7079 90.8357 65.6212L91.3769 65.5346C91.3553 65.1879 91.2037 64.9062 90.9656 64.7112C90.7275 64.5162 90.4028 64.4295 89.9915 64.4295C89.2987 64.4295 88.7575 64.6678 88.3246 65.1229L87.6102 64.3428C88.238 63.6494 89.0823 63.3027 90.0997 63.3027C90.4028 63.3027 90.7058 63.3677 91.0089 63.4761C91.312 63.5844 91.5718 63.7361 91.7882 63.9311C92.2861 64.3645 92.5459 65.0145 92.5459 65.9029V69.6082H91.5285ZM91.3769 67.3547C91.3986 67.1597 91.4202 66.878 91.4202 66.5096C90.7708 66.618 90.1646 66.7263 89.6018 66.8347C89.2771 66.8997 88.9957 67.0297 88.7792 67.203C88.5627 67.3764 88.4545 67.5714 88.4545 67.8314C88.4545 68.1131 88.5627 68.3298 88.7575 68.5248C88.9524 68.6981 89.2121 68.7848 89.5369 68.7848C89.9049 68.7848 90.2296 68.6981 90.511 68.5465C90.7924 68.3948 91.0306 68.1781 91.1821 67.8964C91.2903 67.7231 91.3553 67.5497 91.3769 67.3547Z" fill="white"/>
<path d="M97.1113 66.5121L99.3627 69.6106H97.9988L96.4402 67.4871L94.8599 69.6106H93.4961L95.7475 66.5121L93.5394 63.4785H94.9032L96.4402 65.537L97.9555 63.4785H99.3194L97.1113 66.5121Z" fill="white"/>
<path d="M103.39 63.5C103.931 63.5 104.386 63.6517 104.732 63.955C105.144 64.3017 105.36 64.7568 105.36 65.2768C105.36 65.6235 105.273 65.9268 105.079 66.1869C105.014 66.2952 104.927 66.3819 104.884 66.4252C105.1 66.5769 105.252 66.7502 105.36 66.9236C105.468 67.0536 105.533 67.1836 105.577 67.357C105.62 67.5303 105.663 67.682 105.663 67.8553C105.663 68.1153 105.598 68.3537 105.49 68.6137C105.382 68.8737 105.208 69.0687 105.014 69.2204C104.862 69.3504 104.689 69.4588 104.472 69.5238C104.256 69.5888 104.061 69.6321 103.866 69.6321H100.359V63.5217L103.39 63.5ZM101.593 66.0785H103.412C103.672 66.0785 103.866 65.9702 104.018 65.7752C104.148 65.6235 104.191 65.4501 104.169 65.2335C104.169 65.0384 104.126 64.8651 104.018 64.7134C103.953 64.6051 103.866 64.5401 103.758 64.4967C103.671 64.4534 103.542 64.4317 103.412 64.4317H101.593V66.0785ZM101.593 68.6787H103.693C103.953 68.6787 104.148 68.592 104.299 68.397C104.429 68.2237 104.472 68.0503 104.472 67.8337C104.472 67.6386 104.408 67.4653 104.299 67.292C104.213 67.1836 104.104 67.1186 104.018 67.0753C103.91 67.0319 103.78 67.0103 103.628 67.0103H101.593V68.6787Z" fill="white"/>
<path d="M108.217 68.1168C108.369 68.3118 108.564 68.4852 108.802 68.5935C109.04 68.7019 109.3 68.7669 109.581 68.7669C109.992 68.7669 110.339 68.6802 110.642 68.5285C110.945 68.3768 111.205 68.1168 111.443 67.7918L112.309 68.3768C112.027 68.8319 111.659 69.1786 111.205 69.4386C110.75 69.6986 110.231 69.8069 109.646 69.8069C109.191 69.8069 108.737 69.7203 108.326 69.5469C107.914 69.3736 107.568 69.1136 107.308 68.7885C106.832 68.1818 106.594 67.4668 106.594 66.6217C106.594 66.1883 106.659 65.7766 106.767 65.3866C106.897 64.9966 107.07 64.6499 107.308 64.3465C107.59 64.0215 107.914 63.7615 108.304 63.5881C108.694 63.4148 109.127 63.3281 109.581 63.3281C110.036 63.3281 110.469 63.4148 110.858 63.5881C111.248 63.7615 111.594 63.9998 111.854 64.3465C112.33 64.9316 112.569 65.6683 112.569 66.5784C112.569 66.7734 112.569 66.9034 112.547 66.9901H107.784C107.849 67.4451 107.979 67.8135 108.217 68.1168ZM108.802 64.5199C108.564 64.6282 108.369 64.7799 108.217 64.9966C108.023 65.2349 107.893 65.5383 107.849 65.9067H111.356C111.291 65.5383 111.161 65.2349 110.988 64.9966C110.837 64.8016 110.642 64.6282 110.404 64.5199C110.166 64.4115 109.906 64.3465 109.603 64.3465C109.3 64.3682 109.04 64.4115 108.802 64.5199Z" fill="white"/>
<path d="M119.649 66.5567C119.649 67.4884 119.411 68.2252 118.957 68.8102C118.697 69.1352 118.394 69.3736 118.026 69.5469C117.658 69.7203 117.246 69.8069 116.835 69.8069C116.099 69.8069 115.493 69.5903 115.038 69.1786V72.3638H113.848V63.5015H114.908V64.0865C115.147 63.8482 115.428 63.6532 115.774 63.5231C116.099 63.3931 116.467 63.3281 116.835 63.3281C117.268 63.3281 117.658 63.4148 118.047 63.5881C118.437 63.7615 118.74 63.9998 118.978 64.3032C119.411 64.8882 119.649 65.6466 119.649 66.5567ZM118.394 66.5567C118.394 65.9067 118.264 65.3866 118.004 65.0183C117.723 64.6066 117.268 64.3899 116.64 64.3899C116.38 64.3899 116.142 64.4332 115.904 64.5199C115.688 64.6066 115.493 64.7582 115.363 64.9316C115.06 65.2999 114.908 65.8417 114.908 66.535C114.908 66.8601 114.952 67.1417 115.017 67.4234C115.082 67.7051 115.211 67.9435 115.363 68.1168C115.688 68.4852 116.121 68.6802 116.684 68.6802C116.965 68.6802 117.203 68.6369 117.441 68.5285C117.679 68.4202 117.874 68.2685 118.004 68.0518C118.264 67.7268 118.394 67.2284 118.394 66.5567Z" fill="white"/>
<path d="M122.095 69.6106H120.883L120.904 63.4785H122.117V66.057H122.745L124.541 63.4785H125.883L123.784 66.5338L126.165 69.6106H124.779L122.766 67.0321H122.117V69.6106H122.095Z" fill="white"/>
<path d="M132.615 61.4395L130.429 69.6084H129.238L131.425 61.4395H132.615Z" fill="white"/>
<path d="M143.699 67.2047C143.547 67.6814 143.331 68.0931 143.049 68.4615C142.703 68.8948 142.27 69.2199 141.772 69.4582C141.274 69.6966 140.711 69.7832 140.127 69.7832C139.521 69.7832 138.98 69.6749 138.46 69.4365C137.94 69.1982 137.529 68.8948 137.183 68.4615C136.555 67.7031 136.252 66.7497 136.252 65.5796C136.252 64.3445 136.555 63.3477 137.183 62.5677C137.529 62.1343 137.94 61.8093 138.46 61.5926C138.98 61.3759 139.521 61.2676 140.127 61.2676C140.711 61.2676 141.274 61.3759 141.772 61.5926C142.27 61.8093 142.703 62.1343 143.049 62.5677C143.374 62.9794 143.612 63.4778 143.785 64.0411L142.551 64.2578C142.443 63.8678 142.313 63.5428 142.119 63.2827C141.902 62.9794 141.599 62.7627 141.253 62.611C140.906 62.4593 140.517 62.3727 140.127 62.3727C139.737 62.3727 139.348 62.4593 139.001 62.611C138.655 62.7627 138.352 63.0011 138.135 63.2827C137.746 63.7811 137.529 64.5178 137.529 65.4929C137.551 66.4463 137.746 67.183 138.135 67.7031C138.352 68.0064 138.655 68.2448 139.023 68.3965C139.391 68.5481 139.759 68.6348 140.192 68.6348C140.582 68.6348 140.95 68.5481 141.296 68.3965C141.642 68.2448 141.924 68.0064 142.14 67.7247C142.335 67.4431 142.465 67.1614 142.551 66.858L143.699 67.2047Z" fill="white"/>
<path d="M146.405 61.4395V68.4816H150.107V69.6084H145.215V61.4395H146.405Z" fill="white"/>
<path d="M155.864 62.5662H153.158V69.6084H151.968V62.5662H149.262V61.4395H155.864V62.5662Z" fill="white"/>
</svg>
