<svg width="31" height="31" viewBox="0 0 31 31" fill="none" xmlns="http://www.w3.org/2000/svg">
<path d="M13.6562 21.1875L22.5 12.3438L21.0625 10.9375L13.6562 18.3438L9.90625 14.5938L8.5 16L13.6562 21.1875ZM15.5 28C13.7917 28 12.1771 27.6719 10.6562 27.0156C9.13542 26.3594 7.80729 25.4635 6.67188 24.3281C5.53646 23.1927 4.64062 21.8646 3.98438 20.3438C3.32812 18.8229 3 17.2083 3 15.5C3 13.7708 3.32812 12.1458 3.98438 10.625C4.64062 9.10417 5.53646 7.78125 6.67188 6.65625C7.80729 5.53125 9.13542 4.64062 10.6562 3.98438C12.1771 3.32812 13.7917 3 15.5 3C17.2292 3 18.8542 3.32812 20.375 3.98438C21.8958 4.64062 23.2188 5.53125 24.3438 6.65625C25.4688 7.78125 26.3594 9.10417 27.0156 10.625C27.6719 12.1458 28 13.7708 28 15.5C28 17.2083 27.6719 18.8229 27.0156 20.3438C26.3594 21.8646 25.4688 23.1927 24.3438 24.3281C23.2188 25.4635 21.8958 26.3594 20.375 27.0156C18.8542 27.6719 17.2292 28 15.5 28ZM15.5 26.125C18.4583 26.125 20.9688 25.0885 23.0312 23.0156C25.0938 20.9427 26.125 18.4375 26.125 15.5C26.125 12.5417 25.0938 10.0312 23.0312 7.96875C20.9688 5.90625 18.4583 4.875 15.5 4.875C12.5625 4.875 10.0573 5.90625 7.98438 7.96875C5.91146 10.0312 4.875 12.5417 4.875 15.5C4.875 18.4375 5.91146 20.9427 7.98438 23.0156C10.0573 25.0885 12.5625 26.125 15.5 26.125Z" fill="#242A1F"/>
</svg>
