<svg width="31" height="31" viewBox="0 0 31 31" fill="none" xmlns="http://www.w3.org/2000/svg">
<path d="M24.5625 19.4062V9.34375L18 4.75L11.4375 9.34375V13.375H9.5625V8.40625L18 2.375L26.4375 8.40625V19.4062H24.5625ZM18.625 11.125H19.875V9.875H18.625V11.125ZM16.125 11.125H17.375V9.875H16.125V11.125ZM18.625 13.625H19.875V12.375H18.625V13.625ZM16.125 13.625H17.375V12.375H16.125V13.625ZM18.1875 28.5625L8.46875 25.7812V27.5625H1.75V15.25H11.4062L19.375 18.25C19.9375 18.4583 20.4115 18.7969 20.7969 19.2656C21.1823 19.7344 21.375 20.4062 21.375 21.2812H24.9375C25.8125 21.2812 26.5417 21.5938 27.125 22.2188C27.7083 22.8438 28 23.6875 28 24.75V25.5625L18.1875 28.5625ZM3.625 25.6875H6.5625V17.125H3.625V25.6875ZM18.0625 26.625L26.0625 24.1875C25.9375 23.7917 25.7812 23.5208 25.5938 23.375C25.4062 23.2292 25.1875 23.1562 24.9375 23.1562H18.4688C17.8438 23.1562 17.2656 23.1146 16.7344 23.0312C16.2031 22.9479 15.6979 22.8333 15.2188 22.6875L12.6875 21.9062L13.375 20.0938L15.6562 20.8438C16.1771 21.0104 16.6719 21.125 17.1406 21.1875C17.6094 21.25 18.3542 21.2812 19.375 21.2812C19.375 21.0312 19.3281 20.7865 19.2344 20.5469C19.1406 20.3073 18.9792 20.1354 18.75 20.0312L11.0938 17.125H8.46875V23.8125L18.0625 26.625Z" fill="#242A1F"/>
</svg>
