<svg width="134" height="92" viewBox="0 0 134 92" fill="none" xmlns="http://www.w3.org/2000/svg">
<path d="M66.8907 0L36.0784 14.812L42.3086 17.802L66.8907 5.98001L91.456 17.802L97.6862 14.812L66.8907 0Z" fill="#82C853"/>
<path d="M45.8967 19.5347L52.1269 22.5247L66.8898 15.4253L81.6357 22.5247L87.8659 19.5347L66.8898 9.44531L45.8967 19.5347Z" fill="#82C853"/>
<path d="M90.5241 34.3312L78.961 39.8512V36.7845L66.89 42.5959L54.8021 36.7845V39.8972L43.2221 34.3312V31.2338L32.387 26.0205V32.0158L66.89 48.5912L101.376 32.0158V26.0205L90.5241 31.2338V34.3312Z" fill="#EEEEEE"/>
<path d="M66.89 33.1659L32.387 16.5752V22.5705L45.897 29.0565V32.6292L52.1272 35.6192V32.0465L66.89 39.1459L81.636 32.0465V35.5886L87.8661 32.6139V29.0565L101.376 22.5705V16.5752L66.89 33.1659Z" fill="#EEEEEE"/>
<path d="M0.508057 66.8381H4.02947L4.62201 64.3541H6.56895V74.6734L4.48658 75.1334V77.7554H13.5102V75.1334L11.4278 74.6734V64.3541H13.3748L13.9673 66.8381H17.4887V61.3027H0.508057V66.8381Z" fill="#EEEEEE"/>
<path d="M35.4343 63.3728C35.2988 63.2348 35.1634 63.1121 35.011 62.9895L36.9918 60.5361H34.5539L33.4196 61.9468C33.1487 61.8241 32.8779 61.7015 32.5901 61.5941C31.4388 61.1801 30.0844 60.9655 28.51 60.9655C26.9355 60.9655 25.5811 61.1801 24.4299 61.5941C23.2786 62.0081 22.3306 62.5908 21.5856 63.3575C20.8407 64.1088 20.2821 65.0135 19.9265 66.0715C19.571 67.1295 19.3848 68.2948 19.3848 69.5521C19.3848 70.8095 19.571 71.9748 19.9265 73.0328C20.2821 74.0755 20.8407 74.9802 21.5856 75.7315C21.7211 75.8695 21.8565 75.9768 22.0089 76.0995L20.045 78.5222H22.4829L23.6003 77.1268C23.8542 77.2495 24.1421 77.3722 24.4299 77.4642C25.5811 77.8782 26.9186 78.0775 28.493 78.0775C30.0844 78.0775 31.4558 77.8782 32.607 77.4642C33.7582 77.0502 34.7232 76.4675 35.4681 75.7162C36.2131 74.9648 36.7717 74.0755 37.1442 73.0328C37.5166 71.9901 37.6859 70.8401 37.6859 69.5828C37.6859 68.3101 37.4997 67.1448 37.1442 66.0868C36.7379 65.0441 36.1792 64.1241 35.4343 63.3728ZM24.5484 71.7141C24.4129 71.0548 24.3452 70.3341 24.3452 69.5675C24.3452 68.8008 24.4129 68.0801 24.5484 67.4055C24.6838 66.7308 24.9208 66.1635 25.2425 65.6575C25.5642 65.1668 25.9874 64.7835 26.5292 64.4921C27.054 64.2161 27.7143 64.0628 28.493 64.0628C29.2887 64.0628 29.949 64.2008 30.4738 64.4921C30.677 64.5995 30.8801 64.7375 31.0494 64.8755L24.8023 72.6035C24.7007 72.3275 24.6161 72.0208 24.5484 71.7141ZM32.4546 71.7141C32.3192 72.3735 32.0822 72.9562 31.7436 73.4315C31.4219 73.9222 30.9817 74.2902 30.44 74.5815C29.8982 74.8575 29.2379 74.9955 28.4422 74.9955C27.6635 74.9955 27.0201 74.8575 26.4953 74.5815C26.2922 74.4742 26.1059 74.3515 25.9366 74.1982L32.1837 66.4701C32.3023 66.7615 32.3869 67.0681 32.4546 67.3901C32.5901 68.0648 32.6578 68.7855 32.6578 69.5521C32.6747 70.3341 32.607 71.0548 32.4546 71.7141Z" fill="#EEEEEE"/>
<path d="M53.1926 69.6748L52.5154 71.8521H52.2784L51.9398 69.6748L48.5369 61.3027H39.4456V64.0167L41.5279 64.4461V74.6734L39.4456 75.1334V77.7554H47.4026V75.1334L45.4218 74.6734V67.9881L45.1848 65.5347H45.4218L46.4545 67.9881L49.959 76.2681H54.3438L57.916 67.9881L58.881 65.6727H59.135L58.898 67.9881V74.6734L56.9002 75.1334V77.7554H65.8054V75.1334L63.7399 74.6734L63.7568 64.4461L65.8561 64.0167V61.3027H56.6124L53.1926 69.6748Z" fill="#EEEEEE"/>
<path d="M82.6184 69.6748L81.9243 71.8521H81.6872L81.3656 69.6748L77.9627 61.3027H68.8713V64.0167L70.9368 64.4461V74.6734L68.8713 75.1334V77.7554H76.8284V75.1334L74.8476 74.6734V67.9881L74.5936 65.5347H74.8476L75.8634 67.9881L79.3848 76.2681H83.7527L87.3418 67.9881L88.3068 65.6727H88.5608L88.3068 67.9881V74.6734L86.326 75.1334V77.7554H95.2311V75.1334L93.1657 74.6734L93.1826 64.4461L95.2819 64.0167V61.3027H86.0382L82.6184 69.6748Z" fill="#EEEEEE"/>
<path d="M109.097 74.7194H105.22V70.8401H109.825V67.8041H105.22V64.3541H108.792L109.351 66.6847H112.737V61.3027H98.3127V64.0321L100.361 64.4461V74.6734L98.3127 75.1334V77.7554H112.72L113.482 72.3121H109.977L109.097 74.7194Z" fill="#EEEEEE"/>
<path d="M131.579 74.7501L128.684 70.4721C129.124 70.2727 129.547 70.0274 129.954 69.7514C130.36 69.4754 130.699 69.1534 131.003 68.7854C131.308 68.4174 131.545 68.0034 131.714 67.5434C131.884 67.0834 131.968 66.5774 131.968 66.0101C131.968 65.3047 131.833 64.6607 131.562 64.0781C131.291 63.4954 130.885 63.0047 130.343 62.5907C129.801 62.1767 129.107 61.8701 128.261 61.6401C127.414 61.4101 126.432 61.3027 125.281 61.3027H115.834V64.0014L117.917 64.4307V74.6734L115.834 75.1334V77.7554H124.722V75.1334L122.64 74.6734V71.3308H124.333L127.6 77.7554H133.255V75.1334L131.579 74.7501ZM126.872 67.0987C126.788 67.3441 126.652 67.5741 126.466 67.7581C126.28 67.9421 126.026 68.0954 125.721 68.2027C125.417 68.3101 125.027 68.3714 124.57 68.3714H122.64V64.3541H124.299C125.264 64.3541 125.958 64.5074 126.365 64.8294C126.788 65.1361 126.991 65.6267 126.991 66.3014C127.008 66.5774 126.957 66.8381 126.872 67.0987Z" fill="#EEEEEE"/>
<path d="M5.43448 89.5778V90.9118H4.63878V90.2832H0.77877V90.9118H0V89.5778C0.253948 89.5778 0.457102 89.4552 0.609471 89.2252C0.76184 88.9952 0.880353 88.6425 0.931143 88.1825L1.32053 85.1465H5.01124V89.5932H5.43448V89.5778ZM4.23247 85.8365H2.03158L1.70991 88.2592C1.67605 88.5812 1.60833 88.8418 1.54061 89.0565C1.47289 89.2712 1.35439 89.4398 1.21895 89.5778H4.23247V85.8365Z" fill="#EEEEEE"/>
<path d="M7.33158 90.2206C7.0607 90.1132 6.82368 89.9599 6.63745 89.7452C6.29886 89.3619 6.14648 88.9019 6.14648 88.3499C6.14648 87.7979 6.31579 87.3225 6.63745 86.9545C6.82368 86.7552 7.0607 86.5865 7.33158 86.4792C7.60245 86.3719 7.90719 86.3105 8.21193 86.3105C8.5336 86.3105 8.83833 86.3565 9.10921 86.4639C9.38009 86.5712 9.6171 86.7245 9.80333 86.9392C10.1419 87.3072 10.3112 87.7825 10.3112 88.3345C10.3112 88.8865 10.1419 89.3619 9.80333 89.7299C9.6171 89.9445 9.38009 90.0979 9.10921 90.2052C8.83833 90.3125 8.5336 90.3739 8.21193 90.3739C7.90719 90.3892 7.61938 90.3279 7.33158 90.2206ZM9.44781 88.3499C9.44781 87.9512 9.34623 87.6292 9.16 87.3992C9.05842 87.2765 8.92298 87.1845 8.77061 87.1232C8.60132 87.0619 8.43201 87.0312 8.22886 87.0312C8.04263 87.0312 7.8564 87.0619 7.70403 87.1232C7.53474 87.1845 7.41623 87.2765 7.31465 87.3992C7.12842 87.6292 7.02684 87.9512 7.02684 88.3499C7.02684 88.7485 7.12842 89.0706 7.31465 89.3006C7.41623 89.4232 7.55167 89.5152 7.70403 89.5919C7.87333 89.6532 8.04263 89.6992 8.22886 89.6992C8.41508 89.6992 8.60132 89.6685 8.75369 89.5919C8.92299 89.5305 9.05842 89.4232 9.16 89.3006C9.34623 89.0706 9.44781 88.7485 9.44781 88.3499Z" fill="#EEEEEE"/>
<path d="M15.6934 86.418V90.282H14.8639V87.8593L13.6957 89.638H13.2048L12.0366 87.8593V90.282H11.207V86.418H11.9519L13.4756 88.6873L14.9824 86.418H15.6934Z" fill="#EEEEEE"/>
<path d="M19.5526 90.2819V89.7299C19.3494 89.9752 19.1293 90.1439 18.8923 90.2359C18.6384 90.3432 18.3336 90.3892 17.995 90.3892C17.5718 90.3892 17.2332 90.2819 16.9792 90.0672C16.7253 89.8526 16.5898 89.5612 16.5898 89.2085C16.5898 88.9632 16.6406 88.7332 16.7591 88.5645C16.8777 88.3805 17.0639 88.2425 17.3348 88.1199C17.5379 88.0279 17.758 87.9665 18.0458 87.9205C18.3167 87.8745 18.6722 87.8132 19.0955 87.7672L19.4679 87.7212C19.451 87.4912 19.3494 87.3225 19.1801 87.1999C19.0108 87.0772 18.7907 87.0159 18.5029 87.0159C18.0289 87.0159 17.6395 87.1539 17.3348 87.4452L16.8438 86.9545C17.284 86.5252 17.8596 86.3105 18.5706 86.3105C18.7907 86.3105 18.9939 86.3412 19.214 86.4179C19.4171 86.4945 19.6034 86.5865 19.7557 86.7092C20.1113 86.9699 20.2806 87.3839 20.2806 87.9512V90.2972H19.5526V90.2819ZM19.4341 88.8559C19.451 88.7332 19.451 88.5492 19.451 88.3192C18.9939 88.3805 18.5706 88.4572 18.1812 88.5339C17.9442 88.5799 17.758 88.6565 17.6056 88.7639C17.4533 88.8712 17.3855 88.9939 17.3855 89.1625C17.3855 89.3465 17.4533 89.4845 17.6056 89.5919C17.7411 89.6992 17.9273 89.7606 18.1474 89.7606C18.4013 89.7606 18.6214 89.7146 18.8246 89.6072C19.0277 89.5152 19.1801 89.3772 19.2986 89.2085C19.3663 89.0859 19.4171 88.9785 19.4341 88.8559Z" fill="#EEEEEE"/>
<path d="M26.666 90.282H25.8364V87.614L23.7202 90.282H22.9922V86.418H23.8218V89.0246L25.938 86.418H26.666V90.282Z" fill="#EEEEEE"/>
<path d="M28.3074 86.5099C28.4598 86.4485 28.6291 86.3872 28.8153 86.3565C29.0015 86.3259 29.2047 86.3105 29.3909 86.3105C29.5941 86.3105 29.7803 86.3259 29.9835 86.3565C30.1866 86.3872 30.339 86.4332 30.4914 86.5099C30.7115 86.6172 30.8808 86.7552 30.9993 86.9239C31.1178 87.0925 31.1855 87.2765 31.2024 87.5065C31.2024 87.6599 31.1686 87.7979 31.1178 87.9205C31.067 88.0432 30.9823 88.1505 30.8638 88.2579C31.1516 88.4419 31.2871 88.7179 31.2871 89.1012C31.2871 89.3312 31.2194 89.5459 31.1008 89.7299C30.9654 89.9139 30.7961 90.0519 30.576 90.1592C30.2713 90.3125 29.8819 90.3739 29.4079 90.3739C28.9338 90.3739 28.5614 90.2972 28.2566 90.1592C27.9011 89.9905 27.6641 89.7145 27.5625 89.3312L28.3751 89.1472C28.409 89.3006 28.5106 89.4232 28.6629 89.5152C28.8492 89.6225 29.0862 89.6685 29.4079 89.6685C29.7126 89.6685 29.9665 89.6225 30.1528 89.5152C30.3559 89.4079 30.4575 89.2699 30.4575 89.0859C30.4575 88.8405 30.3221 88.6872 30.0343 88.6412C29.865 88.6105 29.6787 88.5799 29.4417 88.5799H29.0354V87.9819H29.4417C29.5433 87.9819 29.6279 87.9819 29.7295 87.9819C29.8311 87.9819 29.9157 87.9665 29.9835 87.9359C30.1358 87.9052 30.2374 87.8439 30.2882 87.7825C30.339 87.7212 30.3729 87.6292 30.3729 87.5372C30.3729 87.4605 30.3559 87.3839 30.3051 87.3225C30.2544 87.2612 30.1866 87.1999 30.102 87.1539C29.9327 87.0619 29.7126 87.0159 29.4248 87.0159C29.137 87.0159 28.9169 87.0619 28.7476 87.1539C28.6799 87.1999 28.6122 87.2459 28.5783 87.2919C28.5444 87.3379 28.5106 87.3992 28.4936 87.4605L27.6641 87.2765C27.7149 86.9392 27.935 86.6939 28.3074 86.5099Z" fill="#EEEEEE"/>
<path d="M34.6551 90.282H33.8086V86.418H34.6382V88.0433H35.0783L36.3311 86.418H37.2623L35.7894 88.35L37.4485 90.282H36.4835L35.0783 88.6566H34.6212V90.282H34.6551Z" fill="#EEEEEE"/>
<path d="M41.5794 86.418V90.282H40.8007V87.0926H39.3278L39.0738 88.9633C39.023 89.408 38.8876 89.73 38.7183 89.96C38.5321 90.19 38.2442 90.2973 37.8718 90.2973C37.821 90.2973 37.7533 90.2973 37.6348 90.282V89.6073C37.821 89.6073 37.9564 89.5766 38.0411 89.5153C38.1257 89.454 38.1935 89.3773 38.2273 89.27C38.2612 89.1626 38.295 89.0093 38.3289 88.7946L38.6675 86.418H41.5794Z" fill="#EEEEEE"/>
<path d="M43.577 89.3316C43.6786 89.4543 43.814 89.5616 43.9833 89.6229C44.1526 89.6996 44.3389 89.7303 44.5251 89.7303C44.8129 89.7303 45.0499 89.6843 45.27 89.5769C45.4732 89.4696 45.6594 89.3163 45.8287 89.1169L46.4382 89.4849C46.235 89.7763 45.9811 89.9909 45.6763 90.1443C45.3546 90.2976 44.9991 90.3743 44.5928 90.3743C44.2711 90.3743 43.9664 90.3129 43.6786 90.2056C43.3908 90.0983 43.1538 89.9449 42.9675 89.7303C42.6289 89.3469 42.4766 88.9023 42.4766 88.3656C42.4766 88.0896 42.5104 87.8289 42.5951 87.5836C42.6797 87.3383 42.7982 87.1236 42.9675 86.9243C43.1538 86.7249 43.3908 86.5563 43.6617 86.4489C43.9325 86.3416 44.2373 86.2803 44.542 86.2803C44.8637 86.2803 45.1684 86.3263 45.4393 86.4336C45.7102 86.5409 45.9472 86.6943 46.1334 86.9089C46.472 87.2769 46.6244 87.7369 46.6244 88.3043C46.6244 88.4269 46.6244 88.5189 46.6244 88.5649H43.3061C43.3231 88.9176 43.4246 89.1476 43.577 89.3316ZM43.9833 87.0776C43.814 87.1543 43.6786 87.2463 43.577 87.3689C43.4416 87.5223 43.3569 87.7063 43.3231 87.9363H45.761C45.7102 87.7063 45.6255 87.5069 45.507 87.3689C45.4054 87.2463 45.27 87.1389 45.1007 87.0776C44.9314 87.0009 44.7452 86.9703 44.542 86.9703C44.3389 86.9703 44.1526 87.0009 43.9833 87.0776Z" fill="#EEEEEE"/>
<path d="M48.3856 89.3316C48.4872 89.4543 48.6226 89.5616 48.7919 89.6229C48.9612 89.6996 49.1474 89.7303 49.3337 89.7303C49.6215 89.7303 49.8585 89.6843 50.0786 89.5769C50.2817 89.4696 50.468 89.3163 50.6373 89.1169L51.2468 89.4849C51.0436 89.7763 50.7896 89.9909 50.4849 90.1443C50.1632 90.2976 49.8077 90.3743 49.4014 90.3743C49.0797 90.3743 48.775 90.3129 48.4872 90.2056C48.1994 90.0983 47.9624 89.9449 47.7761 89.7303C47.4375 89.3469 47.2852 88.9023 47.2852 88.3656C47.2852 88.0896 47.319 87.8289 47.4037 87.5836C47.4883 87.3383 47.6068 87.1236 47.7761 86.9243C47.9624 86.7249 48.1994 86.5563 48.4702 86.4489C48.7411 86.3416 49.0459 86.2803 49.3506 86.2803C49.6723 86.2803 49.977 86.3263 50.2479 86.4336C50.5188 86.5409 50.7558 86.6943 50.942 86.9089C51.2806 87.2769 51.433 87.7369 51.433 88.3043C51.433 88.4269 51.433 88.5189 51.433 88.5649H48.1147C48.1317 88.9176 48.2332 89.1476 48.3856 89.3316ZM48.7919 87.0776C48.6226 87.1543 48.4872 87.2463 48.3856 87.3689C48.2502 87.5223 48.1655 87.7063 48.1316 87.9363H50.5696C50.5188 87.7063 50.4341 87.5069 50.3156 87.3689C50.214 87.2463 50.0786 87.1389 49.9093 87.0776C49.74 87.0009 49.5538 86.9703 49.3506 86.9703C49.1474 86.9703 48.9612 87.0009 48.7919 87.0776Z" fill="#EEEEEE"/>
<path d="M56.0384 86.418V90.282H55.2088V88.626H53.1264V90.282H52.2969V86.418H53.1264V87.8746H55.2088V86.418H56.0384Z" fill="#EEEEEE"/>
<path d="M58.1031 90.2206C57.8322 90.1132 57.5952 89.9599 57.4089 89.7452C57.0703 89.3619 56.918 88.9019 56.918 88.3499C56.918 87.7979 57.0873 87.3225 57.4089 86.9545C57.5952 86.7552 57.8322 86.5865 58.1031 86.4792C58.3909 86.3719 58.6787 86.3105 58.9834 86.3105C59.3051 86.3105 59.6098 86.3565 59.8807 86.4639C60.1516 86.5712 60.3886 86.7245 60.5748 86.9392C60.9134 87.3072 61.0827 87.7825 61.0827 88.3345C61.0827 88.8865 60.9134 89.3619 60.5748 89.7299C60.3886 89.9445 60.1516 90.0979 59.8807 90.2052C59.6098 90.3125 59.3051 90.3739 58.9834 90.3739C58.6787 90.3892 58.3909 90.3279 58.1031 90.2206ZM60.2193 88.3499C60.2193 87.9512 60.1177 87.6292 59.9315 87.3992C59.8299 87.2765 59.6945 87.1845 59.5421 87.1232C59.3728 87.0619 59.2035 87.0312 59.0003 87.0312C58.8141 87.0312 58.6279 87.0619 58.4755 87.1232C58.3062 87.1845 58.1877 87.2765 58.0861 87.3992C57.8999 87.6292 57.7983 87.9512 57.7983 88.3499C57.7983 88.7485 57.8999 89.0706 58.0861 89.3006C58.1877 89.4232 58.3231 89.5152 58.4755 89.5919C58.6448 89.6532 58.8141 89.6992 59.0003 89.6992C59.1866 89.6992 59.3728 89.6685 59.5252 89.5919C59.6945 89.5305 59.8299 89.4232 59.9315 89.3006C60.1177 89.0706 60.2193 88.7485 60.2193 88.3499Z" fill="#EEEEEE"/>
<path d="M64.9595 87.1693H62.7924V90.282H61.9629V86.418H64.9595V87.1693Z" fill="#EEEEEE"/>
<path d="M66.5171 90.2206C66.2462 90.1132 66.0092 89.9599 65.823 89.7452C65.4844 89.3619 65.332 88.9019 65.332 88.3499C65.332 87.7979 65.5013 87.3225 65.823 86.9545C66.0092 86.7552 66.2462 86.5865 66.5171 86.4792C66.8049 86.3719 67.0927 86.3105 67.3975 86.3105C67.7191 86.3105 68.0239 86.3565 68.2948 86.4639C68.5656 86.5712 68.8027 86.7245 68.9889 86.9392C69.3275 87.3072 69.4968 87.7825 69.4968 88.3345C69.4968 88.8865 69.3275 89.3619 68.9889 89.7299C68.8027 89.9445 68.5656 90.0979 68.2948 90.2052C68.0239 90.3125 67.7191 90.3739 67.3975 90.3739C67.0758 90.3892 66.788 90.3279 66.5171 90.2206ZM68.6164 88.3499C68.6164 87.9512 68.5148 87.6292 68.3286 87.3992C68.227 87.2765 68.0916 87.1845 67.9392 87.1232C67.7699 87.0619 67.6006 87.0312 67.3975 87.0312C67.2112 87.0312 67.025 87.0619 66.8727 87.1232C66.7034 87.1845 66.5848 87.2765 66.4833 87.3992C66.297 87.6292 66.1955 87.9512 66.1955 88.3499C66.1955 88.7485 66.297 89.0706 66.4833 89.3006C66.5848 89.4232 66.7203 89.5152 66.8727 89.5919C67.042 89.6532 67.2112 89.6992 67.3975 89.6992C67.5837 89.6992 67.7699 89.6685 67.9223 89.5919C68.0916 89.5305 68.227 89.4232 68.3286 89.3006C68.5148 89.0706 68.6164 88.7485 68.6164 88.3499Z" fill="#EEEEEE"/>
<path d="M74.7466 86.8016C75.0005 86.8936 75.2037 87.0469 75.373 87.2309C75.5254 87.3996 75.6439 87.5989 75.7285 87.8289C75.8132 88.0589 75.847 88.289 75.847 88.5343C75.864 88.7796 75.8132 89.0249 75.7285 89.2549C75.6269 89.4849 75.4915 89.6843 75.3053 89.8683C75.119 90.0369 74.8989 90.1749 74.645 90.2516C74.391 90.3436 74.1371 90.3896 73.8493 90.3896C73.5446 90.3896 73.2567 90.3436 72.9859 90.2363C72.715 90.1443 72.4949 89.9909 72.3087 89.7916C71.987 89.4696 71.8177 89.0249 71.8008 88.4729C71.8008 88.3656 71.8008 88.2276 71.8008 88.0283C71.8008 87.6449 71.8346 87.2923 71.8854 86.9549C72.0039 86.2956 72.2917 85.8203 72.7827 85.5136C73.0197 85.3603 73.2737 85.2529 73.5784 85.1916C73.8832 85.1303 74.2218 85.0996 74.5942 85.0996C74.8651 85.0996 75.1868 85.1303 75.5254 85.1763V85.8663C75.1529 85.8203 74.7804 85.7896 74.4249 85.7896C73.8832 85.7896 73.4768 85.8663 73.2398 86.0349C73.0705 86.1423 72.952 86.2803 72.8674 86.4643C72.7827 86.6329 72.7319 86.8476 72.6981 87.0776C72.8674 86.9243 73.0536 86.8016 73.2737 86.7249C73.4938 86.6483 73.7139 86.6023 73.9678 86.6023C74.2218 86.6483 74.4926 86.6943 74.7466 86.8016ZM73.3583 87.3996C73.206 87.4609 73.0705 87.5376 72.9689 87.6449C72.7827 87.8289 72.6981 88.1203 72.6981 88.4883C72.6981 88.8563 72.7827 89.1323 72.9689 89.3316C73.0705 89.4389 73.189 89.5309 73.3414 89.577C73.4938 89.6383 73.6631 89.6536 73.8324 89.6536C74.0017 89.6536 74.171 89.623 74.3233 89.577C74.4757 89.5156 74.5942 89.4389 74.6958 89.3316C74.882 89.1323 74.9836 88.8563 74.9836 88.4883C74.9836 88.3196 74.9667 88.1663 74.9159 88.0129C74.8651 87.8596 74.7974 87.7369 74.6958 87.6449C74.5942 87.5376 74.4757 87.4456 74.3233 87.3996C74.171 87.3383 74.0017 87.3229 73.8324 87.3229C73.6631 87.3229 73.5107 87.3383 73.3583 87.3996Z" fill="#EEEEEE"/>
<path d="M80.7735 88.3499C80.7735 88.9325 80.6211 89.4079 80.2994 89.7606C80.1301 89.9599 79.91 90.1132 79.6561 90.2206C79.4021 90.3279 79.1143 90.3892 78.8265 90.3892C78.3186 90.3892 77.8954 90.2512 77.5737 89.9906V91.9992H76.7441V86.4179H77.4721V86.7859C77.6414 86.6325 77.8446 86.5099 78.0647 86.4332C78.3017 86.3565 78.5387 86.3105 78.7927 86.3105C79.0805 86.3105 79.3683 86.3565 79.6222 86.4639C79.8931 86.5712 80.0963 86.7245 80.2825 86.9239C80.6211 87.2919 80.7735 87.7672 80.7735 88.3499ZM79.8931 88.3499C79.8931 87.9359 79.8084 87.6139 79.6222 87.3839C79.4191 87.1232 79.1143 86.9852 78.6741 86.9852C78.4879 86.9852 78.3186 87.0159 78.1663 87.0772C78.0139 87.1385 77.8954 87.2152 77.7938 87.3379C77.5737 87.5679 77.4721 87.9052 77.4721 88.3499C77.4721 88.5492 77.506 88.7332 77.5568 88.9172C77.6076 89.1012 77.6922 89.2392 77.7938 89.3619C78.0139 89.5919 78.3186 89.7145 78.708 89.7145C78.8942 89.7145 79.0805 89.6839 79.2328 89.6072C79.4021 89.5459 79.5206 89.4386 79.6222 89.3006C79.8084 89.0859 79.8931 88.7639 79.8931 88.3499Z" fill="#EEEEEE"/>
<path d="M85.2767 86.4186L83.3806 90.9267C83.1944 91.3407 82.9912 91.632 82.7542 91.7853C82.6357 91.8773 82.5002 91.9233 82.3648 91.954C82.2294 91.9847 82.0601 92 81.8738 92H81.7892V91.2793L81.9077 91.2947H82.0093C82.1447 91.2947 82.2632 91.264 82.3309 91.218C82.3987 91.172 82.4664 91.0953 82.551 90.9573C82.6188 90.8347 82.7203 90.6353 82.8219 90.3747L81.0781 86.4033H81.9077L83.2113 89.424L84.4472 86.4033H85.2767V86.4186Z" fill="#EEEEEE"/>
<path d="M88.8137 87.5838C88.7798 87.5071 88.729 87.4458 88.6951 87.3998C88.5936 87.2771 88.4581 87.1698 88.3058 87.1085C88.1365 87.0471 87.9672 87.0165 87.7809 87.0165C87.5947 87.0165 87.4085 87.0471 87.2561 87.1085C87.0868 87.1698 86.9683 87.2771 86.8667 87.3998C86.6805 87.6298 86.5789 87.9365 86.5789 88.3505C86.5958 88.7491 86.6805 89.0711 86.8667 89.3011C86.9683 89.4238 87.1037 89.5158 87.2561 89.5925C87.4254 89.6538 87.5947 89.6998 87.7809 89.6998C87.9672 89.6998 88.1534 89.6691 88.3058 89.5925C88.4751 89.5311 88.5936 89.4238 88.6951 89.3011C88.729 89.2551 88.7798 89.1938 88.8137 89.1325L89.5924 89.4391C89.4909 89.5771 89.4231 89.6845 89.3554 89.7611C89.1523 89.9758 88.9322 90.1291 88.6444 90.2365C88.3735 90.3438 88.0687 90.4051 87.764 90.3898C87.4593 90.4051 87.1545 90.3438 86.8837 90.2365C86.6128 90.1291 86.3757 89.9605 86.1726 89.7611C85.834 89.3931 85.6816 88.9331 85.6816 88.3658C85.6816 87.7985 85.8509 87.3385 86.1726 86.9705C86.3588 86.7558 86.5959 86.6025 86.8667 86.4951C87.1376 86.3878 87.4423 86.3418 87.7471 86.3418C88.0687 86.3418 88.3565 86.4031 88.6274 86.5105C88.8983 86.6178 89.1353 86.7711 89.3216 86.9858C89.4231 87.1085 89.4908 87.2158 89.5586 87.3078L88.8137 87.5838Z" fill="#EEEEEE"/>
<path d="M93.0467 90.2819V89.7299C92.8436 89.9752 92.6235 90.1439 92.3864 90.2359C92.1325 90.3432 91.8277 90.3892 91.4892 90.3892C91.0659 90.3892 90.7273 90.2819 90.4734 90.0672C90.2194 89.8526 90.084 89.5612 90.084 89.2085C90.084 88.9632 90.1348 88.7332 90.2533 88.5645C90.3718 88.3805 90.558 88.2425 90.8289 88.1199C91.032 88.0279 91.2521 87.9665 91.5399 87.9205C91.8108 87.8745 92.1663 87.8132 92.5896 87.7672L92.9621 87.7212C92.9451 87.4912 92.8435 87.3225 92.6742 87.1999C92.5049 87.0772 92.2849 87.0159 91.997 87.0159C91.523 87.0159 91.1336 87.1539 90.8289 87.4452L90.3379 86.9545C90.7781 86.5252 91.3537 86.3105 92.0648 86.3105C92.2849 86.3105 92.488 86.3412 92.7081 86.4179C92.9113 86.4945 93.0975 86.5865 93.2499 86.7092C93.6054 86.9699 93.7747 87.3839 93.7747 87.9512V90.2972H93.0467V90.2819ZM92.9282 88.8559C92.9451 88.7332 92.9451 88.5492 92.9451 88.3192C92.488 88.3805 92.0648 88.4572 91.6754 88.5339C91.4384 88.5799 91.2521 88.6565 91.0998 88.7639C90.9474 88.8712 90.8797 88.9939 90.8797 89.1625C90.8797 89.3465 90.9474 89.4845 91.0998 89.5919C91.2521 89.6992 91.4214 89.7606 91.6415 89.7606C91.8955 89.7606 92.1156 89.7146 92.3187 89.6072C92.5219 89.5152 92.6743 89.3772 92.7928 89.2085C92.8774 89.0859 92.9113 88.9785 92.9282 88.8559Z" fill="#EEEEEE"/>
<path d="M98.7517 85.1309L97.228 90.2829H96.3984L97.9221 85.1309H98.7517Z" fill="#EEEEEE"/>
<path d="M106.304 88.3501C106.287 89.0247 106.016 89.5614 105.491 89.9447C105.322 90.0674 105.118 90.1747 104.881 90.2361C104.644 90.3127 104.391 90.3587 104.137 90.3894V91.8921H103.392V90.3894C103.138 90.3741 102.884 90.3281 102.647 90.2514C102.41 90.1747 102.207 90.0827 102.037 89.9447C101.783 89.7607 101.58 89.5154 101.445 89.2547C101.309 88.9941 101.242 88.6874 101.225 88.3654C101.225 88.0434 101.292 87.7521 101.428 87.4914C101.563 87.2154 101.766 86.9854 102.02 86.8014C102.19 86.6787 102.393 86.5714 102.63 86.4947C102.867 86.4181 103.121 86.3721 103.375 86.3414V85.1914H104.12V86.3414C104.695 86.3874 105.135 86.5407 105.474 86.7861C106.016 87.1387 106.27 87.6754 106.304 88.3501ZM103.392 89.6687V87.0467C103.053 87.0774 102.782 87.1694 102.579 87.3227C102.41 87.4301 102.291 87.5834 102.207 87.7521C102.122 87.9361 102.071 88.1354 102.071 88.3501C102.088 88.8101 102.257 89.1474 102.579 89.4081C102.782 89.5307 103.036 89.6227 103.392 89.6687ZM105.457 88.3501C105.457 88.1354 105.406 87.9361 105.322 87.7521C105.237 87.5681 105.118 87.4301 104.949 87.3074C104.746 87.1694 104.492 87.0774 104.137 87.0314V89.6534C104.492 89.6074 104.746 89.5154 104.949 89.3927C105.271 89.1627 105.44 88.8101 105.457 88.3501Z" fill="#EEEEEE"/>
<path d="M109.908 90.2819V89.7299C109.705 89.9752 109.485 90.1439 109.248 90.2359C108.994 90.3432 108.689 90.3892 108.35 90.3892C107.927 90.3892 107.589 90.2819 107.335 90.0672C107.081 89.8526 106.945 89.5612 106.945 89.2085C106.945 88.9632 106.996 88.7332 107.132 88.5645C107.25 88.3805 107.436 88.2425 107.707 88.1199C107.893 88.0279 108.13 87.9665 108.418 87.9205C108.689 87.8745 109.045 87.8132 109.468 87.7672L109.84 87.7212C109.823 87.4912 109.722 87.3225 109.553 87.1999C109.383 87.0772 109.163 87.0159 108.875 87.0159C108.401 87.0159 108.012 87.1539 107.707 87.4452L107.216 86.9545C107.656 86.5252 108.232 86.3105 108.943 86.3105C109.163 86.3105 109.366 86.3412 109.586 86.4179C109.806 86.4945 109.976 86.5865 110.128 86.7092C110.484 86.9699 110.653 87.3839 110.653 87.9512V90.2972H109.908V90.2819ZM109.79 88.8559C109.806 88.7332 109.806 88.5492 109.806 88.3192C109.349 88.3805 108.926 88.4572 108.537 88.5339C108.3 88.5799 108.113 88.6565 107.961 88.7639C107.809 88.8712 107.741 88.9939 107.741 89.1625C107.741 89.3465 107.809 89.4845 107.961 89.5919C108.097 89.6992 108.283 89.7606 108.503 89.7606C108.757 89.7606 108.977 89.7146 109.18 89.6072C109.383 89.5152 109.536 89.3772 109.654 89.2085C109.739 89.0859 109.773 88.9785 109.79 88.8559Z" fill="#EEEEEE"/>
<path d="M113.787 88.3346L115.361 90.282H114.413L113.33 88.9326L112.229 90.282H111.281L112.856 88.3346L111.315 86.418H112.263L113.33 87.7213L114.379 86.418H115.327L113.787 88.3346Z" fill="#EEEEEE"/>
<path d="M118.171 86.418C118.56 86.418 118.865 86.51 119.119 86.7093C119.407 86.9393 119.559 87.2153 119.559 87.5373C119.559 87.752 119.491 87.9513 119.373 88.12C119.322 88.1813 119.271 88.2426 119.237 88.2733C119.39 88.3653 119.508 88.4726 119.576 88.5953C119.644 88.672 119.695 88.764 119.728 88.8713C119.762 88.9786 119.779 89.086 119.779 89.1933C119.779 89.362 119.745 89.5153 119.661 89.6686C119.576 89.822 119.475 89.9446 119.339 90.052C119.237 90.1286 119.102 90.19 118.967 90.236C118.814 90.282 118.679 90.2973 118.543 90.2973H116.105V86.4486L118.171 86.418ZM116.918 88.0586H118.188C118.374 88.0586 118.51 87.9973 118.611 87.8746C118.696 87.7826 118.73 87.66 118.73 87.5373C118.73 87.4146 118.696 87.3073 118.611 87.2153C118.56 87.154 118.493 87.108 118.442 87.0773C118.391 87.0466 118.289 87.0313 118.205 87.0313H116.935V88.0586H116.918ZM116.918 89.684H118.374C118.56 89.684 118.696 89.6226 118.797 89.5153C118.882 89.408 118.916 89.3006 118.916 89.1626C118.916 89.04 118.882 88.9173 118.797 88.8253C118.73 88.764 118.662 88.718 118.594 88.6873C118.526 88.6566 118.425 88.6566 118.323 88.6566H116.901V89.684H116.918Z" fill="#EEEEEE"/>
<path d="M121.523 89.3316C121.624 89.4543 121.76 89.5616 121.929 89.6229C122.098 89.6996 122.284 89.7303 122.471 89.7303C122.758 89.7303 122.995 89.6843 123.216 89.5769C123.419 89.4696 123.605 89.3163 123.774 89.1169L124.384 89.4849C124.181 89.7763 123.927 89.9909 123.622 90.1443C123.3 90.2976 122.945 90.3743 122.538 90.3743C122.217 90.3743 121.912 90.3129 121.624 90.2056C121.336 90.0983 121.099 89.9449 120.913 89.7303C120.574 89.3469 120.422 88.9023 120.422 88.3656C120.422 88.0896 120.456 87.8289 120.541 87.5836C120.625 87.3383 120.744 87.1236 120.913 86.9243C121.099 86.7249 121.336 86.5563 121.607 86.4489C121.878 86.3416 122.183 86.2803 122.488 86.2803C122.809 86.2803 123.114 86.3263 123.385 86.4336C123.656 86.5409 123.893 86.6943 124.079 86.9089C124.418 87.2769 124.57 87.7369 124.57 88.3043C124.57 88.4269 124.57 88.5189 124.57 88.5649H121.252C121.269 88.9176 121.37 89.1476 121.523 89.3316ZM121.929 87.0776C121.76 87.1543 121.624 87.2463 121.523 87.3689C121.387 87.5223 121.302 87.7063 121.269 87.9363H123.707C123.656 87.7063 123.571 87.5069 123.453 87.3689C123.351 87.2463 123.216 87.1389 123.046 87.0776C122.877 87.0009 122.691 86.9703 122.488 86.9703C122.284 86.9703 122.098 87.0009 121.929 87.0776Z" fill="#EEEEEE"/>
<path d="M129.479 88.3499C129.479 88.9325 129.326 89.4079 129.004 89.7606C128.835 89.9599 128.615 90.1132 128.361 90.2206C128.107 90.3279 127.819 90.3892 127.532 90.3892C127.024 90.3892 126.6 90.2512 126.279 89.9906V91.9992H125.449V86.4179H126.177V86.7859C126.347 86.6325 126.55 86.5099 126.77 86.4332C127.007 86.3565 127.244 86.3105 127.498 86.3105C127.786 86.3105 128.073 86.3565 128.327 86.4639C128.598 86.5712 128.801 86.7245 128.988 86.9239C129.326 87.2919 129.479 87.7672 129.479 88.3499ZM128.615 88.3499C128.615 87.9359 128.53 87.6139 128.344 87.3839C128.141 87.1232 127.836 86.9852 127.396 86.9852C127.21 86.9852 127.041 87.0159 126.888 87.0772C126.736 87.1385 126.617 87.2152 126.516 87.3379C126.296 87.5679 126.194 87.9052 126.194 88.3499C126.194 88.5492 126.228 88.7332 126.279 88.9172C126.33 89.1012 126.414 89.2392 126.516 89.3619C126.736 89.5919 127.041 89.7145 127.43 89.7145C127.616 89.7145 127.802 89.6839 127.955 89.6072C128.124 89.5459 128.243 89.4386 128.344 89.3006C128.514 89.0859 128.615 88.7639 128.615 88.3499Z" fill="#EEEEEE"/>
<path d="M131.206 90.282H130.359V86.418H131.189V88.0433H131.629L132.882 86.418H133.813L132.34 88.35L133.999 90.282H133.034L131.629 88.6566H131.172V90.282H131.206Z" fill="#EEEEEE"/>
</svg>
