<svg width="129" height="129" viewBox="0 0 129 129" fill="none" xmlns="http://www.w3.org/2000/svg">
<g clip-path="url(#clip0_1204_11363)">
<rect width="129" height="129" fill="#242A1F"/>
<path d="M64.4119 27.4121L39.5694 39.3543L44.5925 41.765L64.4119 32.2335L84.2176 41.765L89.2407 39.3543L64.4119 27.4121Z" fill="#82C853"/>
<path d="M47.4855 43.1619L52.5086 45.5726L64.4111 39.8487L76.3 45.5726L81.3231 43.1619L64.4111 35.0273L47.4855 43.1619Z" fill="#82C853"/>
<path d="M83.4663 55.0911L74.1436 59.5416V57.0691L64.4113 61.7545L54.6654 57.0691V59.5787L45.329 55.0911V52.5939L36.5932 48.3906V53.2244L64.4113 66.5882L92.2158 53.2244V48.3906L83.4663 52.5939V55.0911Z" fill="#EEEEEE"/>
<path d="M64.4113 54.1516L36.5932 40.7754V45.6091L47.4857 50.8385V53.7189L52.5088 56.1296V53.2492L64.4113 58.973L76.3002 53.2492V56.1049L81.3233 53.7066V50.8385L92.2158 45.6091V40.7754L64.4113 54.1516Z" fill="#EEEEEE"/>
<path d="M10.8908 81.2998H13.7299L14.2077 79.2971H15.7774V87.617L14.0985 87.9879V90.1019H21.3738V87.9879L19.6948 87.617V79.2971H21.2646L21.7423 81.2998H24.5814V76.8369H10.8908V81.2998Z" fill="#EEEEEE"/>
<path d="M39.0501 78.5058C38.9409 78.3946 38.8317 78.2957 38.7088 78.1968L40.3059 76.2188H38.3403L37.4258 77.3561C37.2074 77.2572 36.989 77.1583 36.7569 77.0718C35.8288 76.738 34.7368 76.5649 33.4674 76.5649C32.1979 76.5649 31.106 76.738 30.1778 77.0718C29.2496 77.4056 28.4852 77.8753 27.8846 78.4935C27.284 79.0992 26.8336 79.8286 26.547 80.6816C26.2603 81.5346 26.1102 82.4742 26.1102 83.4879C26.1102 84.5016 26.2603 85.4412 26.547 86.2942C26.8336 87.1349 27.284 87.8642 27.8846 88.47C27.9938 88.5813 28.103 88.6678 28.2259 88.7667L26.6425 90.72H28.6081L29.5089 89.595C29.7137 89.6939 29.9457 89.7928 30.1778 89.867C31.106 90.2008 32.1843 90.3615 33.4537 90.3615C34.7368 90.3615 35.8424 90.2008 36.7706 89.867C37.6988 89.5332 38.4768 89.0634 39.0774 88.4576C39.678 87.8519 40.1284 87.1349 40.4287 86.2942C40.729 85.4535 40.8655 84.5264 40.8655 83.5126C40.8655 82.4865 40.7153 81.547 40.4287 80.694C40.1011 79.8533 39.6507 79.1116 39.0501 78.5058ZM30.2733 85.231C30.1641 84.6994 30.1095 84.1184 30.1095 83.5003C30.1095 82.8821 30.1641 82.3011 30.2733 81.7572C30.3825 81.2132 30.5736 80.7558 30.833 80.3478C31.0923 79.9522 31.4336 79.6432 31.8703 79.4083C32.2935 79.1858 32.8258 79.0621 33.4537 79.0621C34.0952 79.0621 34.6276 79.1734 35.0507 79.4083C35.2145 79.4948 35.3783 79.6061 35.5148 79.7173L30.4781 85.9481C30.3962 85.7255 30.3279 85.4783 30.2733 85.231ZM36.6477 85.231C36.5385 85.7626 36.3474 86.2324 36.0745 86.6156C35.8151 87.0112 35.4602 87.3079 35.0234 87.5428C34.5866 87.7653 34.0543 87.8766 33.4128 87.8766C32.7849 87.8766 32.2662 87.7653 31.843 87.5428C31.6792 87.4563 31.5291 87.3574 31.3926 87.2338L36.4293 81.003C36.5249 81.2379 36.5931 81.4852 36.6477 81.7448C36.7569 82.2887 36.8115 82.8698 36.8115 83.4879C36.8252 84.1184 36.7706 84.6994 36.6477 85.231Z" fill="#EEEEEE"/>
<path d="M53.3677 83.5869L52.8217 85.3423H52.6306L52.3576 83.5869L49.614 76.8369H42.2841V79.0251L43.9631 79.3712V87.617L42.2841 87.9879V90.1019H48.6995V87.9879L47.1025 87.617V82.227L46.9114 80.249H47.1025L47.9351 82.227L50.7606 88.9027H54.2959L57.176 82.227L57.954 80.3602H58.1588L57.9677 82.227V87.617L56.357 87.9879V90.1019H63.5367V87.9879L61.8715 87.617L61.8851 79.3712L63.5777 79.0251V76.8369H56.1249L53.3677 83.5869Z" fill="#EEEEEE"/>
<path d="M77.0922 83.5869L76.5326 85.3423H76.3415L76.0822 83.5869L73.3386 76.8369H66.0087V79.0251L67.6739 79.3712V87.617L66.0087 87.9879V90.1019H72.424V87.9879L70.827 87.617V82.227L70.6223 80.249H70.827L71.646 82.227L74.4851 88.9027H78.0068L80.9005 82.227L81.6785 80.3602H81.8833L81.6785 82.227V87.617L80.0815 87.9879V90.1019H87.2613V87.9879L85.596 87.617L85.6096 79.3712L87.3022 79.0251V76.8369H79.8495L77.0922 83.5869Z" fill="#EEEEEE"/>
<path d="M98.4406 87.6541H95.3149V84.5264H99.0276V82.0786H95.3149V79.2971H98.195L98.6454 81.1762H101.375V76.8369H89.7458V79.0374L91.3974 79.3712V87.617L89.7458 87.9879V90.1019H101.362L101.976 85.7132H99.1504L98.4406 87.6541Z" fill="#EEEEEE"/>
<path d="M116.567 87.6788L114.233 84.2297C114.588 84.069 114.929 83.8712 115.256 83.6487C115.584 83.4261 115.857 83.1665 116.103 82.8698C116.348 82.5731 116.539 82.2393 116.676 81.8685C116.812 81.4976 116.881 81.0896 116.881 80.6322C116.881 80.0635 116.772 79.5443 116.553 79.0745C116.335 78.6048 116.007 78.2092 115.57 77.8754C115.134 77.5416 114.574 77.2943 113.891 77.1089C113.209 76.9235 112.417 76.8369 111.489 76.8369H103.873V79.0127L105.551 79.3589V87.617L103.873 87.9879V90.1019H111.039V87.9879L109.36 87.617V84.922H110.725L113.359 90.1019H117.918V87.9879L116.567 87.6788ZM112.772 81.5099C112.704 81.7077 112.595 81.8932 112.445 82.0415C112.294 82.1899 112.09 82.3135 111.844 82.4C111.598 82.4866 111.284 82.536 110.916 82.536H109.36V79.2971H110.697C111.475 79.2971 112.035 79.4207 112.363 79.6803C112.704 79.9275 112.868 80.3231 112.868 80.8671C112.881 81.0896 112.84 81.2998 112.772 81.5099Z" fill="#EEEEEE"/>
<path d="M14.8628 99.6333V100.709H14.2213V100.202H11.1091V100.709H10.4813V99.6333C10.686 99.6333 10.8498 99.5344 10.9726 99.349C11.0955 99.1635 11.191 98.8792 11.232 98.5083L11.5459 96.0605H14.5216V99.6457H14.8628V99.6333ZM13.8937 96.6169H12.1192L11.8599 98.5701C11.8326 98.8298 11.778 99.0399 11.7234 99.213C11.6688 99.3861 11.5732 99.5221 11.464 99.6333H13.8937V96.6169Z" fill="#EEEEEE"/>
<path d="M16.3923 100.152C16.1739 100.066 15.9829 99.9423 15.8327 99.7692C15.5597 99.4601 15.4369 99.0893 15.4369 98.6442C15.4369 98.1992 15.5734 97.8159 15.8327 97.5192C15.9829 97.3585 16.1739 97.2225 16.3923 97.136C16.6107 97.0494 16.8564 97 17.1021 97C17.3615 97 17.6072 97.0371 17.8256 97.1236C18.044 97.2102 18.235 97.3338 18.3852 97.5069C18.6582 97.8036 18.7947 98.1868 18.7947 98.6318C18.7947 99.0769 18.6582 99.4601 18.3852 99.7568C18.235 99.9299 18.044 100.054 17.8256 100.14C17.6072 100.227 17.3615 100.276 17.1021 100.276C16.8564 100.288 16.6244 100.239 16.3923 100.152ZM18.0986 98.6442C18.0986 98.3228 18.0167 98.0632 17.8665 97.8777C17.7846 97.7788 17.6754 97.7047 17.5526 97.6552C17.4161 97.6058 17.2796 97.581 17.1158 97.581C16.9656 97.581 16.8155 97.6058 16.6926 97.6552C16.5561 97.7047 16.4606 97.7788 16.3787 97.8777C16.2285 98.0632 16.1466 98.3228 16.1466 98.6442C16.1466 98.9656 16.2285 99.2253 16.3787 99.4107C16.4606 99.5096 16.5698 99.5838 16.6926 99.6456C16.8291 99.695 16.9656 99.7321 17.1158 99.7321C17.2659 99.7321 17.4161 99.7074 17.5389 99.6456C17.6754 99.5961 17.7846 99.5096 17.8665 99.4107C18.0167 99.2253 18.0986 98.9656 18.0986 98.6442Z" fill="#EEEEEE"/>
<path d="M23.1341 97.0869V100.202H22.4653V98.249L21.5234 99.683H21.1276L20.1858 98.249V100.202H19.5169V97.0869H20.1175L21.346 98.9166L22.5608 97.0869H23.1341Z" fill="#EEEEEE"/>
<path d="M26.2455 100.202V99.7568C26.0817 99.9546 25.9043 100.091 25.7132 100.165C25.5084 100.251 25.2627 100.288 24.9897 100.288C24.6485 100.288 24.3755 100.202 24.1708 100.029C23.966 99.8557 23.8568 99.6209 23.8568 99.3365C23.8568 99.1387 23.8978 98.9533 23.9933 98.8173C24.0889 98.6689 24.239 98.5577 24.4574 98.4588C24.6212 98.3846 24.7986 98.3352 25.0307 98.2981C25.2491 98.261 25.5357 98.2115 25.877 98.1744L26.1773 98.1373C26.1636 97.9519 26.0817 97.8159 25.9452 97.717C25.8087 97.6181 25.6313 97.5687 25.3992 97.5687C25.017 97.5687 24.7031 97.6799 24.4574 97.9148L24.0616 97.5192C24.4164 97.1731 24.8805 97 25.4538 97C25.6313 97 25.7951 97.0247 25.9725 97.0865C26.1363 97.1483 26.2865 97.2225 26.4093 97.3214C26.696 97.5316 26.8324 97.8654 26.8324 98.3228V100.214H26.2455V100.202ZM26.15 99.0522C26.1636 98.9533 26.1636 98.8049 26.1636 98.6195C25.7951 98.6689 25.4538 98.7308 25.1399 98.7926C24.9488 98.8297 24.7986 98.8915 24.6758 98.978C24.5529 99.0645 24.4983 99.1634 24.4983 99.2994C24.4983 99.4478 24.5529 99.559 24.6758 99.6456C24.785 99.7321 24.9351 99.7816 25.1126 99.7816C25.3173 99.7816 25.4948 99.7445 25.6586 99.6579C25.8224 99.5838 25.9452 99.4725 26.0408 99.3365C26.0954 99.2376 26.1363 99.1511 26.15 99.0522Z" fill="#EEEEEE"/>
<path d="M31.9807 100.202H31.3119V98.0512L29.6056 100.202H29.0187V97.0869H29.6875V99.1885L31.3938 97.0869H31.9807V100.202Z" fill="#EEEEEE"/>
<path d="M33.3041 97.1607C33.427 97.1113 33.5635 97.0618 33.7136 97.0371C33.8638 97.0124 34.0275 97 34.1777 97C34.3415 97 34.4916 97.0124 34.6554 97.0371C34.8192 97.0618 34.9421 97.0989 35.0649 97.1607C35.2424 97.2472 35.3789 97.3585 35.4744 97.4945C35.57 97.6305 35.6246 97.7788 35.6382 97.9643C35.6382 98.0879 35.6109 98.1992 35.57 98.2981C35.529 98.397 35.4608 98.4835 35.3652 98.57C35.5973 98.7184 35.7065 98.9409 35.7065 99.25C35.7065 99.4354 35.6519 99.6085 35.5563 99.7568C35.4471 99.9052 35.3106 100.016 35.1332 100.103C34.8875 100.227 34.5735 100.276 34.1913 100.276C33.8092 100.276 33.5089 100.214 33.2632 100.103C32.9765 99.967 32.7854 99.7445 32.7035 99.4354L33.3587 99.2871C33.386 99.4107 33.4679 99.5096 33.5908 99.5838C33.7409 99.6703 33.932 99.7074 34.1913 99.7074C34.437 99.7074 34.6418 99.6703 34.7919 99.5838C34.9557 99.4972 35.0376 99.386 35.0376 99.2376C35.0376 99.0398 34.9284 98.9162 34.6964 98.8791C34.5599 98.8544 34.4097 98.8297 34.2186 98.8297H33.891V98.3475H34.2186C34.3005 98.3475 34.3688 98.3475 34.4507 98.3475C34.5326 98.3475 34.6008 98.3351 34.6554 98.3104C34.7783 98.2857 34.8602 98.2362 34.9011 98.1868C34.9421 98.1373 34.9694 98.0632 34.9694 97.989C34.9694 97.9272 34.9557 97.8654 34.9148 97.8159C34.8738 97.7665 34.8192 97.717 34.751 97.6799C34.6145 97.6058 34.437 97.5687 34.205 97.5687C33.9729 97.5687 33.7955 97.6058 33.659 97.6799C33.6044 97.717 33.5498 97.7541 33.5225 97.7912C33.4952 97.8283 33.4679 97.8777 33.4543 97.9272L32.7854 97.7788C32.8264 97.5069 33.0038 97.3091 33.3041 97.1607Z" fill="#EEEEEE"/>
<path d="M38.4219 100.202H37.7394V97.0869H38.4083V98.3973H38.7632L39.7732 97.0869H40.524L39.3364 98.6446L40.6741 100.202H39.8961L38.7632 98.8918H38.3946V100.202H38.4219Z" fill="#EEEEEE"/>
<path d="M44.0047 97.0869V100.202H43.3768V97.6309H42.1893L41.9845 99.1391C41.9436 99.4976 41.8344 99.7572 41.6979 99.9427C41.5477 100.128 41.3157 100.215 41.0154 100.215C40.9744 100.215 40.9198 100.215 40.8243 100.202V99.6583C40.9744 99.6583 41.0836 99.6336 41.1519 99.5841C41.2201 99.5347 41.2747 99.4729 41.302 99.3863C41.3293 99.2998 41.3566 99.1762 41.3839 99.0031L41.6569 97.0869H44.0047Z" fill="#EEEEEE"/>
<path d="M45.6152 99.4357C45.6971 99.5346 45.8063 99.6212 45.9428 99.6706C46.0793 99.7324 46.2295 99.7572 46.3796 99.7572C46.6117 99.7572 46.8028 99.7201 46.9802 99.6335C47.144 99.547 47.2942 99.4234 47.4306 99.2627L47.922 99.5593C47.7582 99.7942 47.5535 99.9673 47.3078 100.091C47.0485 100.215 46.7618 100.276 46.4342 100.276C46.1749 100.276 45.9292 100.227 45.6971 100.14C45.4651 100.054 45.274 99.9302 45.1238 99.7572C44.8508 99.4481 44.728 99.0896 44.728 98.6569C44.728 98.4344 44.7553 98.2242 44.8235 98.0264C44.8918 97.8286 44.9873 97.6555 45.1238 97.4948C45.274 97.3341 45.4651 97.1981 45.6835 97.1116C45.9019 97.025 46.1476 96.9756 46.3933 96.9756C46.6526 96.9756 46.8983 97.0127 47.1167 97.0992C47.3351 97.1857 47.5262 97.3094 47.6763 97.4824C47.9493 97.7791 48.0722 98.15 48.0722 98.6074C48.0722 98.7063 48.0722 98.7805 48.0722 98.8176H45.3968C45.4105 99.1019 45.4924 99.2874 45.6152 99.4357ZM45.9428 97.6184C45.8063 97.6803 45.6971 97.7544 45.6152 97.8533C45.506 97.9769 45.4378 98.1253 45.4105 98.3107H47.376C47.3351 98.1253 47.2668 97.9646 47.1713 97.8533C47.0894 97.7544 46.9802 97.6679 46.8437 97.6184C46.7072 97.5566 46.5571 97.5319 46.3933 97.5319C46.2295 97.5319 46.0793 97.5566 45.9428 97.6184Z" fill="#EEEEEE"/>
<path d="M49.4921 99.4357C49.574 99.5346 49.6832 99.6212 49.8197 99.6706C49.9562 99.7324 50.1064 99.7572 50.2565 99.7572C50.4885 99.7572 50.6796 99.7201 50.8571 99.6335C51.0209 99.547 51.171 99.4234 51.3075 99.2627L51.7989 99.5593C51.6351 99.7942 51.4304 99.9673 51.1847 100.091C50.9253 100.215 50.6387 100.276 50.3111 100.276C50.0518 100.276 49.8061 100.227 49.574 100.14C49.342 100.054 49.1509 99.9302 49.0007 99.7572C48.7277 99.4481 48.6049 99.0896 48.6049 98.6569C48.6049 98.4344 48.6322 98.2242 48.7004 98.0264C48.7687 97.8286 48.8642 97.6555 49.0007 97.4948C49.1509 97.3341 49.342 97.1981 49.5604 97.1116C49.7788 97.025 50.0245 96.9756 50.2702 96.9756C50.5295 96.9756 50.7752 97.0127 50.9936 97.0992C51.212 97.1857 51.4031 97.3094 51.5532 97.4824C51.8262 97.7791 51.9491 98.15 51.9491 98.6074C51.9491 98.7063 51.9491 98.7805 51.9491 98.8176H49.2737C49.2874 99.1019 49.3693 99.2874 49.4921 99.4357ZM49.8197 97.6184C49.6832 97.6803 49.574 97.7544 49.4921 97.8533C49.3829 97.9769 49.3147 98.1253 49.2874 98.3107H51.2529C51.212 98.1253 51.1437 97.9646 51.0482 97.8533C50.9663 97.7544 50.8571 97.6679 50.7206 97.6184C50.5841 97.5566 50.434 97.5319 50.2702 97.5319C50.1064 97.5319 49.9562 97.5566 49.8197 97.6184Z" fill="#EEEEEE"/>
<path d="M55.6622 97.0869V100.202H54.9934V98.8671H53.3145V100.202H52.6456V97.0869H53.3145V98.2614H54.9934V97.0869H55.6622Z" fill="#EEEEEE"/>
<path d="M57.3268 100.152C57.1085 100.066 56.9174 99.9423 56.7672 99.7692C56.4942 99.4601 56.3714 99.0893 56.3714 98.6442C56.3714 98.1992 56.5079 97.8159 56.7672 97.5192C56.9174 97.3585 57.1085 97.2225 57.3268 97.136C57.5589 97.0494 57.7909 97 58.0366 97C58.296 97 58.5417 97.0371 58.7601 97.1236C58.9785 97.2102 59.1696 97.3338 59.3197 97.5069C59.5927 97.8036 59.7292 98.1868 59.7292 98.6318C59.7292 99.0769 59.5927 99.4601 59.3197 99.7568C59.1696 99.9299 58.9785 100.054 58.7601 100.14C58.5417 100.227 58.296 100.276 58.0366 100.276C57.7909 100.288 57.5589 100.239 57.3268 100.152ZM59.0331 98.6442C59.0331 98.3228 58.9512 98.0632 58.801 97.8777C58.7191 97.7788 58.6099 97.7047 58.4871 97.6552C58.3506 97.6058 58.2141 97.581 58.0503 97.581C57.9001 97.581 57.75 97.6058 57.6271 97.6552C57.4906 97.7047 57.3951 97.7788 57.3132 97.8777C57.163 98.0632 57.0811 98.3228 57.0811 98.6442C57.0811 98.9656 57.163 99.2253 57.3132 99.4107C57.3951 99.5096 57.5043 99.5838 57.6271 99.6456C57.7636 99.695 57.9001 99.7321 58.0503 99.7321C58.2004 99.7321 58.3506 99.7074 58.4734 99.6456C58.6099 99.5961 58.7191 99.5096 58.801 99.4107C58.9512 99.2253 59.0331 98.9656 59.0331 98.6442Z" fill="#EEEEEE"/>
<path d="M62.8548 97.6927H61.1077V100.202H60.4388V97.0869H62.8548V97.6927Z" fill="#EEEEEE"/>
<path d="M64.1107 100.152C63.8923 100.066 63.7012 99.9423 63.5511 99.7692C63.2781 99.4601 63.1552 99.0893 63.1552 98.6442C63.1552 98.1992 63.2917 97.8159 63.5511 97.5192C63.7012 97.3585 63.8923 97.2225 64.1107 97.136C64.3427 97.0494 64.5748 97 64.8205 97C65.0798 97 65.3255 97.0371 65.5439 97.1236C65.7623 97.2102 65.9534 97.3338 66.1036 97.5069C66.3765 97.8036 66.513 98.1868 66.513 98.6318C66.513 99.0769 66.3765 99.4601 66.1036 99.7568C65.9534 99.9299 65.7623 100.054 65.5439 100.14C65.3255 100.227 65.0798 100.276 64.8205 100.276C64.5611 100.288 64.3291 100.239 64.1107 100.152ZM65.8033 98.6442C65.8033 98.3228 65.7214 98.0632 65.5712 97.8777C65.4893 97.7788 65.3801 97.7047 65.2573 97.6552C65.1208 97.6058 64.9843 97.581 64.8205 97.581C64.6703 97.581 64.5202 97.6058 64.3973 97.6552C64.2608 97.7047 64.1653 97.7788 64.0834 97.8777C63.9333 98.0632 63.8514 98.3228 63.8514 98.6442C63.8514 98.9656 63.9333 99.2253 64.0834 99.4107C64.1653 99.5096 64.2745 99.5838 64.3973 99.6456C64.5338 99.695 64.6703 99.7321 64.8205 99.7321C64.9706 99.7321 65.1208 99.7074 65.2436 99.6456C65.3801 99.5961 65.4893 99.5096 65.5712 99.4107C65.7214 99.2253 65.8033 98.9656 65.8033 98.6442Z" fill="#EEEEEE"/>
<path d="M70.7457 97.3957C70.9504 97.4698 71.1142 97.5935 71.2507 97.7418C71.3736 97.8778 71.4691 98.0385 71.5374 98.224C71.6056 98.4094 71.6329 98.5948 71.6329 98.7926C71.6466 98.9904 71.6056 99.1882 71.5374 99.3737C71.4555 99.5591 71.3463 99.7198 71.1961 99.8682C71.046 100.004 70.8685 100.115 70.6638 100.177C70.459 100.251 70.2543 100.289 70.0223 100.289C69.7766 100.289 69.5445 100.251 69.3261 100.165C69.1077 100.091 68.9303 99.9671 68.7801 99.8064C68.5208 99.5468 68.3843 99.1882 68.3706 98.7432C68.3706 98.6567 68.3706 98.5454 68.3706 98.3847C68.3706 98.0756 68.3979 97.7913 68.4389 97.5193C68.5344 96.9877 68.7665 96.6045 69.1623 96.3572C69.3534 96.2336 69.5582 96.1471 69.8039 96.0976C70.0495 96.0482 70.3225 96.0234 70.6228 96.0234C70.8412 96.0234 71.1006 96.0482 71.3736 96.0853V96.6416C71.0733 96.6045 70.773 96.5798 70.4863 96.5798C70.0495 96.5798 69.722 96.6416 69.5309 96.7775C69.3944 96.8641 69.2988 96.9754 69.2306 97.1237C69.1623 97.2597 69.1214 97.4328 69.0941 97.6182C69.2306 97.4946 69.3807 97.3957 69.5582 97.3339C69.7356 97.272 69.9131 97.235 70.1178 97.235C70.3225 97.2721 70.5409 97.3091 70.7457 97.3957ZM69.6264 97.8778C69.5036 97.9273 69.3944 97.9891 69.3125 98.0756C69.1623 98.224 69.0941 98.4589 69.0941 98.7556C69.0941 99.0523 69.1623 99.2748 69.3125 99.4355C69.3944 99.522 69.4899 99.5962 69.6128 99.6333C69.7356 99.6827 69.8721 99.6951 70.0086 99.6951C70.1451 99.6951 70.2816 99.6704 70.4044 99.6333C70.5273 99.5838 70.6228 99.522 70.7047 99.4355C70.8549 99.2748 70.9368 99.0523 70.9368 98.7556C70.9368 98.6196 70.9231 98.4959 70.8822 98.3723C70.8412 98.2487 70.7866 98.1498 70.7047 98.0756C70.6228 97.9891 70.5273 97.9149 70.4044 97.8778C70.2816 97.8284 70.1451 97.816 70.0086 97.816C69.8721 97.816 69.7493 97.8284 69.6264 97.8778Z" fill="#EEEEEE"/>
<path d="M75.6049 98.6442C75.6049 99.114 75.482 99.4972 75.2227 99.7816C75.0862 99.9423 74.9087 100.066 74.704 100.152C74.4992 100.239 74.2672 100.288 74.0352 100.288C73.6257 100.288 73.2844 100.177 73.0251 99.967V101.586H72.3562V97.0865H72.9432V97.3832C73.0797 97.2596 73.2435 97.1607 73.4209 97.0989C73.612 97.0371 73.8031 97 74.0078 97C74.2399 97 74.4719 97.0371 74.6767 97.1236C74.8951 97.2102 75.0589 97.3338 75.209 97.4945C75.482 97.7912 75.6049 98.1744 75.6049 98.6442ZM74.8951 98.6442C74.8951 98.3104 74.8268 98.0508 74.6767 97.8654C74.5129 97.6552 74.2672 97.5439 73.9123 97.5439C73.7622 97.5439 73.6257 97.5687 73.5028 97.6181C73.38 97.6676 73.2844 97.7294 73.2025 97.8283C73.0251 98.0137 72.9432 98.2857 72.9432 98.6442C72.9432 98.8049 72.9705 98.9533 73.0114 99.1016C73.0524 99.25 73.1206 99.3612 73.2025 99.4601C73.38 99.6456 73.6257 99.7445 73.9396 99.7445C74.0897 99.7445 74.2399 99.7198 74.3627 99.6579C74.4992 99.6085 74.5948 99.522 74.6767 99.4107C74.8268 99.2376 74.8951 98.978 74.8951 98.6442Z" fill="#EEEEEE"/>
<path d="M79.2356 97.0866L77.7068 100.721C77.5567 101.055 77.3929 101.29 77.2018 101.413C77.1063 101.488 76.9971 101.525 76.8879 101.549C76.7787 101.574 76.6422 101.587 76.492 101.587H76.4238V101.005L76.5193 101.018H76.6012C76.7104 101.018 76.806 100.993 76.8606 100.956C76.9152 100.919 76.9698 100.857 77.038 100.746C77.0926 100.647 77.1745 100.486 77.2564 100.276L75.8505 97.0742H76.5193L77.5704 99.5096L78.5668 97.0742H79.2356V97.0866Z" fill="#EEEEEE"/>
<path d="M82.0873 98.0258C82.06 97.964 82.019 97.9145 81.9917 97.8774C81.9098 97.7785 81.8006 97.692 81.6778 97.6425C81.5413 97.5931 81.4048 97.5684 81.2546 97.5684C81.1045 97.5684 80.9543 97.5931 80.8315 97.6425C80.695 97.692 80.5994 97.7785 80.5176 97.8774C80.3674 98.0629 80.2855 98.3101 80.2855 98.6439C80.2991 98.9653 80.3674 99.2249 80.5176 99.4104C80.5994 99.5093 80.7086 99.5835 80.8315 99.6453C80.968 99.6947 81.1045 99.7318 81.2546 99.7318C81.4048 99.7318 81.5549 99.7071 81.6778 99.6453C81.8143 99.5958 81.9098 99.5093 81.9917 99.4104C82.019 99.3733 82.06 99.3238 82.0873 99.2744L82.7151 99.5216C82.6333 99.6329 82.5786 99.7194 82.524 99.7813C82.3603 99.9543 82.1828 100.078 81.9508 100.164C81.7324 100.251 81.4867 100.3 81.241 100.288C80.9953 100.3 80.7496 100.251 80.5312 100.164C80.3128 100.078 80.1217 99.942 79.9579 99.7813C79.6849 99.4846 79.5621 99.1137 79.5621 98.6563C79.5621 98.1989 79.6986 97.828 79.9579 97.5313C80.108 97.3582 80.2992 97.2346 80.5176 97.148C80.7359 97.0615 80.9816 97.0244 81.2273 97.0244C81.4867 97.0244 81.7187 97.0739 81.9371 97.1604C82.1555 97.2469 82.3466 97.3706 82.4968 97.5436C82.5787 97.6425 82.6332 97.7291 82.6878 97.8033L82.0873 98.0258Z" fill="#EEEEEE"/>
<path d="M85.5001 100.202V99.7568C85.3364 99.9546 85.1589 100.091 84.9678 100.165C84.7631 100.251 84.5174 100.288 84.2444 100.288C83.9031 100.288 83.6301 100.202 83.4254 100.029C83.2206 99.8557 83.1115 99.6209 83.1115 99.3365C83.1115 99.1387 83.1524 98.9533 83.2479 98.8173C83.3435 98.6689 83.4936 98.5577 83.712 98.4588C83.8758 98.3846 84.0533 98.3352 84.2853 98.2981C84.5037 98.261 84.7904 98.2115 85.1316 98.1744L85.4319 98.1373C85.4182 97.9519 85.3363 97.8159 85.1998 97.717C85.0633 97.6181 84.8859 97.5687 84.6539 97.5687C84.2717 97.5687 83.9577 97.6799 83.712 97.9148L83.3162 97.5192C83.6711 97.1731 84.1352 97 84.7085 97C84.8859 97 85.0497 97.0247 85.2272 97.0865C85.3909 97.1483 85.5411 97.2225 85.6639 97.3214C85.9506 97.5316 86.0871 97.8654 86.0871 98.3228V100.214H85.5001V100.202ZM85.4046 99.0522C85.4182 98.9533 85.4182 98.8049 85.4182 98.6195C85.0497 98.6689 84.7085 98.7308 84.3945 98.7926C84.2034 98.8297 84.0533 98.8915 83.9304 98.978C83.8076 99.0645 83.753 99.1634 83.753 99.2994C83.753 99.4478 83.8076 99.559 83.9304 99.6456C84.0533 99.7321 84.1898 99.7816 84.3672 99.7816C84.572 99.7816 84.7494 99.7445 84.9132 99.6579C85.077 99.5838 85.1999 99.4725 85.2954 99.3365C85.3637 99.2376 85.3909 99.1511 85.4046 99.0522Z" fill="#EEEEEE"/>
<path d="M90.0998 96.0488L88.8714 100.203H88.2025L89.431 96.0488H90.0998Z" fill="#EEEEEE"/>
<path d="M96.1885 98.6443C96.1749 99.1883 95.9565 99.621 95.5333 99.93C95.3968 100.029 95.233 100.115 95.0419 100.165C94.8508 100.227 94.6461 100.264 94.4414 100.289V101.5H93.8408V100.289C93.636 100.276 93.4313 100.239 93.2402 100.177C93.0491 100.115 92.8853 100.041 92.7488 99.93C92.544 99.7817 92.3802 99.5839 92.2711 99.3737C92.1619 99.1636 92.1072 98.9163 92.0936 98.6567C92.0936 98.3971 92.1482 98.1622 92.2574 97.952C92.3666 97.7295 92.5304 97.5441 92.7351 97.3957C92.8716 97.2968 93.0354 97.2103 93.2265 97.1485C93.4176 97.0867 93.6224 97.0496 93.8271 97.0248V96.0977H94.4277V97.0248C94.8918 97.0619 95.2467 97.1856 95.5197 97.3834C95.9565 97.6677 96.1612 98.1004 96.1885 98.6443ZM93.8408 99.7075V97.5935C93.5678 97.6183 93.3494 97.6924 93.1856 97.816C93.0491 97.9026 92.9535 98.0262 92.8853 98.1622C92.817 98.3105 92.7761 98.4713 92.7761 98.6443C92.7897 99.0152 92.9262 99.2872 93.1856 99.4973C93.3494 99.5962 93.5541 99.6704 93.8408 99.7075ZM95.506 98.6443C95.506 98.4713 95.4651 98.3105 95.3968 98.1622C95.3286 98.0138 95.233 97.9026 95.0965 97.8037C94.9327 97.6924 94.728 97.6182 94.4414 97.5812V99.6952C94.728 99.6581 94.9327 99.5839 95.0965 99.485C95.3559 99.2996 95.4924 99.0152 95.506 98.6443Z" fill="#EEEEEE"/>
<path d="M99.0946 100.202V99.7568C98.9308 99.9546 98.7534 100.091 98.5623 100.165C98.3575 100.251 98.1118 100.288 97.8388 100.288C97.4976 100.288 97.2246 100.202 97.0199 100.029C96.8151 99.8557 96.7059 99.6209 96.7059 99.3365C96.7059 99.1387 96.7469 98.9533 96.8561 98.8173C96.9516 98.6689 97.1018 98.5577 97.3202 98.4588C97.4703 98.3846 97.6614 98.3352 97.8935 98.2981C98.1118 98.261 98.3985 98.2115 98.7397 98.1744L99.04 98.1373C99.0264 97.9519 98.9445 97.8159 98.808 97.717C98.6715 97.6181 98.494 97.5687 98.262 97.5687C97.8798 97.5687 97.5659 97.6799 97.3202 97.9148L96.9243 97.5192C97.2792 97.1731 97.7433 97 98.3166 97C98.494 97 98.6578 97.0247 98.8353 97.0865C99.0127 97.1483 99.1492 97.2225 99.2721 97.3214C99.5587 97.5316 99.6952 97.8654 99.6952 98.3228V100.214H99.0946V100.202ZM98.9991 99.0522C99.0127 98.9533 99.0127 98.8049 99.0127 98.6195C98.6442 98.6689 98.303 98.7308 97.989 98.7926C97.7979 98.8297 97.6478 98.8915 97.5249 98.978C97.4021 99.0645 97.3475 99.1634 97.3475 99.2994C97.3475 99.4478 97.4021 99.559 97.5249 99.6456C97.6341 99.7321 97.7843 99.7816 97.9617 99.7816C98.1664 99.7816 98.3439 99.7445 98.5077 99.6579C98.6715 99.5838 98.7943 99.4725 98.8899 99.3365C98.9581 99.2376 98.9854 99.1511 98.9991 99.0522Z" fill="#EEEEEE"/>
<path d="M102.222 98.6322L103.491 100.202H102.727L101.853 99.1144L100.966 100.202H100.202L101.471 98.6322L100.229 97.0869H100.993L101.853 98.1377L102.7 97.0869H103.464L102.222 98.6322Z" fill="#EEEEEE"/>
<path d="M105.757 97.0869C106.071 97.0869 106.316 97.1611 106.521 97.3218C106.753 97.5072 106.876 97.7298 106.876 97.9894C106.876 98.1625 106.821 98.3232 106.726 98.4592C106.685 98.5086 106.644 98.5581 106.617 98.5828C106.739 98.657 106.835 98.7435 106.89 98.8424C106.944 98.9042 106.985 98.9784 107.012 99.0649C107.04 99.1515 107.053 99.238 107.053 99.3245C107.053 99.4605 107.026 99.5841 106.958 99.7078C106.89 99.8314 106.808 99.9303 106.698 100.017C106.617 100.079 106.507 100.128 106.398 100.165C106.275 100.202 106.166 100.215 106.057 100.215H104.091V97.1116L105.757 97.0869ZM104.747 98.4097H105.77C105.92 98.4097 106.03 98.3603 106.111 98.2614C106.18 98.1872 106.207 98.0883 106.207 97.9894C106.207 97.8905 106.18 97.8039 106.111 97.7298C106.071 97.6803 106.016 97.6432 105.975 97.6185C105.934 97.5938 105.852 97.5814 105.784 97.5814H104.76V98.4097H104.747ZM104.747 99.7201H105.92C106.071 99.7201 106.18 99.6707 106.262 99.5841C106.33 99.4976 106.357 99.4111 106.357 99.2998C106.357 99.2009 106.33 99.102 106.262 99.0278C106.207 98.9784 106.152 98.9413 106.098 98.9166C106.043 98.8918 105.961 98.8918 105.879 98.8918H104.733V99.7201H104.747Z" fill="#EEEEEE"/>
<path d="M108.459 99.4357C108.541 99.5346 108.65 99.6212 108.786 99.6706C108.923 99.7324 109.073 99.7572 109.223 99.7572C109.455 99.7572 109.646 99.7201 109.824 99.6335C109.988 99.547 110.138 99.4234 110.274 99.2627L110.766 99.5593C110.602 99.7942 110.397 99.9673 110.151 100.091C109.892 100.215 109.605 100.276 109.278 100.276C109.018 100.276 108.773 100.227 108.541 100.14C108.309 100.054 108.118 99.9302 107.967 99.7572C107.694 99.4481 107.572 99.0896 107.572 98.6569C107.572 98.4344 107.599 98.2242 107.667 98.0264C107.735 97.8286 107.831 97.6555 107.967 97.4948C108.118 97.3341 108.309 97.1981 108.527 97.1116C108.745 97.025 108.991 96.9756 109.237 96.9756C109.496 96.9756 109.742 97.0127 109.96 97.0992C110.179 97.1857 110.37 97.3094 110.52 97.4824C110.793 97.7791 110.916 98.15 110.916 98.6074C110.916 98.7063 110.916 98.7805 110.916 98.8176H108.24C108.254 99.1019 108.336 99.2874 108.459 99.4357ZM108.786 97.6184C108.65 97.6803 108.541 97.7544 108.459 97.8533C108.35 97.9769 108.281 98.1253 108.254 98.3107H110.22C110.179 98.1253 110.11 97.9646 110.015 97.8533C109.933 97.7544 109.824 97.6679 109.687 97.6184C109.551 97.5566 109.401 97.5319 109.237 97.5319C109.073 97.5319 108.923 97.5566 108.786 97.6184Z" fill="#EEEEEE"/>
<path d="M114.873 98.6442C114.873 99.114 114.75 99.4972 114.491 99.7816C114.355 99.9423 114.177 100.066 113.972 100.152C113.768 100.239 113.536 100.288 113.304 100.288C112.894 100.288 112.553 100.177 112.294 99.967V101.586H111.625V97.0865H112.212V97.3832C112.348 97.2596 112.512 97.1607 112.689 97.0989C112.88 97.0371 113.072 97 113.276 97C113.508 97 113.74 97.0371 113.945 97.1236C114.164 97.2102 114.327 97.3338 114.477 97.4945C114.75 97.7912 114.873 98.1744 114.873 98.6442ZM114.177 98.6442C114.177 98.3104 114.109 98.0508 113.959 97.8654C113.795 97.6552 113.549 97.5439 113.194 97.5439C113.044 97.5439 112.908 97.5687 112.785 97.6181C112.662 97.6676 112.567 97.7294 112.485 97.8283C112.307 98.0137 112.225 98.2857 112.225 98.6442C112.225 98.8049 112.253 98.9533 112.294 99.1016C112.334 99.25 112.403 99.3612 112.485 99.4601C112.662 99.6456 112.908 99.7445 113.222 99.7445C113.372 99.7445 113.522 99.7198 113.645 99.6579C113.781 99.6085 113.877 99.522 113.959 99.4107C114.095 99.2376 114.177 98.978 114.177 98.6442Z" fill="#EEEEEE"/>
<path d="M116.266 100.202H115.583V97.0869H116.252V98.3973H116.607L117.617 97.0869H118.368L117.181 98.6446L118.518 100.202H117.74L116.607 98.8918H116.239V100.202H116.266Z" fill="#EEEEEE"/>
</g>
<defs>
<clipPath id="clip0_1204_11363">
<rect width="129" height="129" fill="white"/>
</clipPath>
</defs>
</svg>
