<svg width="18" height="18" viewBox="0 0 18 18" fill="none" xmlns="http://www.w3.org/2000/svg">
<path d="M9.075 13.6901L9 13.7636L8.9175 13.6901C5.355 10.5192 3 8.42248 3 6.29632C3 4.82493 4.125 3.72139 5.625 3.72139C6.78 3.72139 7.905 4.45708 8.3025 5.45763H9.6975C10.095 4.45708 11.22 3.72139 12.375 3.72139C13.875 3.72139 15 4.82493 15 6.29632C15 8.42248 12.645 10.5192 9.075 13.6901ZM12.375 2.25C11.07 2.25 9.8175 2.84591 9 3.78025C8.1825 2.84591 6.93 2.25 5.625 2.25C3.315 2.25 1.5 4.02302 1.5 6.29632C1.5 9.06989 4.05 11.3432 7.9125 14.7789L9 15.75L10.0875 14.7789C13.95 11.3432 16.5 9.06989 16.5 6.29632C16.5 4.02302 14.685 2.25 12.375 2.25Z" fill="#242A1F"/>
</svg>
