<svg width="47" height="48" viewBox="0 0 47 48" fill="none" xmlns="http://www.w3.org/2000/svg">
<g filter="url(#filter0_b_1204_9973)">
<rect y="0.652344" width="47" height="47" rx="5" fill="white"/>
<path d="M23.3594 33.3603C23.4531 33.3603 23.5609 33.3377 23.6828 33.2926C23.8047 33.2474 23.9031 33.1888 23.9781 33.1165L33.4563 23.9624C33.7 23.7276 33.8828 23.4598 34.0047 23.1589C34.1266 22.858 34.1875 22.5571 34.1875 22.2561C34.1875 21.9492 34.1266 21.6422 34.0047 21.3353C33.8828 21.0283 33.7 20.7575 33.4563 20.5228L28.3938 15.6478C28.15 15.4131 27.8688 15.237 27.55 15.1197C27.2313 15.0023 26.9125 14.9436 26.5938 14.9436C26.2812 14.9436 25.9687 15.0023 25.6563 15.1197C25.3438 15.237 25.0656 15.4131 24.8219 15.6478L24.3156 16.1353L26.5938 18.3561C26.8375 18.6089 27.0531 18.9023 27.2406 19.2363C27.4281 19.5704 27.5219 19.936 27.5219 20.3332C27.5219 21.0193 27.2453 21.6242 26.6922 22.1478C26.1391 22.6714 25.5063 22.9332 24.7938 22.9332C24.325 22.9332 23.9359 22.8655 23.6266 22.7301C23.3172 22.5947 23.0342 22.402 22.7776 22.1521L20.7156 20.1707L15.625 25.0728C15.5313 25.1631 15.4656 25.2581 15.4281 25.3579C15.3906 25.4577 15.3719 25.5646 15.3719 25.6786C15.3719 25.9067 15.4516 26.0974 15.6109 26.2509C15.7703 26.4044 15.9688 26.4811 16.2063 26.4811C16.325 26.4811 16.4359 26.454 16.5391 26.3999C16.6422 26.3457 16.7313 26.2825 16.8063 26.2103L20.6875 22.4728L21.8688 23.6103L18.0156 27.3207C17.9219 27.411 17.8563 27.5103 17.8188 27.6186C17.7813 27.727 17.7625 27.8353 17.7625 27.9436C17.7625 28.1603 17.8469 28.3499 18.0156 28.5124C18.1844 28.6749 18.3813 28.7561 18.6063 28.7561C18.7188 28.7561 18.8266 28.7336 18.9297 28.6884C19.0328 28.6433 19.1219 28.5846 19.1969 28.5124L23.0781 24.7749L24.2594 25.9124L20.4063 29.6228C20.3313 29.695 20.2703 29.7883 20.2234 29.9026C20.1766 30.017 20.1531 30.1314 20.1531 30.2457C20.1531 30.4624 20.2375 30.652 20.4063 30.8145C20.575 30.977 20.7719 31.0582 20.9969 31.0582C21.1094 31.0582 21.2125 31.0401 21.3063 31.004C21.4 30.9679 21.4938 30.9047 21.5875 30.8145L25.4688 27.077L26.65 28.2145L22.7688 31.952C22.675 32.0422 22.6094 32.1415 22.5719 32.2499C22.5344 32.3582 22.5156 32.4575 22.5156 32.5478C22.5156 32.8006 22.5906 32.9992 22.7406 33.1436C22.8906 33.2881 23.0969 33.3603 23.3594 33.3603ZM23.3612 34.9853C22.7412 34.9853 22.1875 34.7641 21.7 34.3217C21.2125 33.8794 20.9219 33.3321 20.8281 32.68C20.1906 32.5919 19.6563 32.3401 19.225 31.9249C18.7938 31.5096 18.5313 30.995 18.4375 30.3811C17.8 30.2908 17.2703 30.0336 16.8484 29.6092C16.4266 29.1849 16.1688 28.6749 16.075 28.079C15.3813 27.9888 14.8094 27.7179 14.3594 27.2665C13.9094 26.8151 13.6844 26.2735 13.6844 25.6415C13.6844 25.3346 13.7474 25.0272 13.8735 24.7194C13.9996 24.4115 14.1803 24.1412 14.4156 23.9082L20.7156 17.8415L23.8094 20.8207C23.9594 20.9651 24.1219 21.078 24.2969 21.1592C24.4719 21.2405 24.6469 21.2811 24.8219 21.2811C25.0656 21.2811 25.2953 21.1773 25.5109 20.9697C25.7266 20.762 25.8344 20.5395 25.8344 20.3019C25.8344 20.1964 25.8016 20.0759 25.7359 19.9405C25.6703 19.8051 25.5625 19.6651 25.4125 19.5207L21.3906 15.6478C21.1469 15.4131 20.8656 15.237 20.5469 15.1197C20.2281 15.0023 19.9094 14.9436 19.5906 14.9436C19.2781 14.9436 18.9656 15.0023 18.6531 15.1197C18.3406 15.237 18.0631 15.4118 17.8204 15.6439L13.5438 19.7645C13.2813 20.0172 13.0984 20.2836 12.9953 20.5634C12.8922 20.8433 12.8313 21.1592 12.8125 21.5113C12.7938 21.8634 12.8641 22.2065 13.0234 22.5405C13.1828 22.8745 13.375 23.177 13.6 23.4478L12.3906 24.6124C12.0156 24.2151 11.7109 23.7367 11.4766 23.177C11.2422 22.6172 11.125 22.0485 11.125 21.4707C11.125 20.929 11.2328 20.4099 11.4484 19.9134C11.6641 19.4169 11.9688 18.979 12.3625 18.5999L16.6094 14.5103C17.0219 14.1131 17.4887 13.8197 18.0098 13.6301C18.5309 13.4405 19.0653 13.3457 19.6129 13.3457C20.1606 13.3457 20.6922 13.4405 21.2078 13.6301C21.7234 13.8197 22.1875 14.1131 22.6 14.5103L23.1063 14.9978L23.6125 14.5103C24.025 14.1131 24.4918 13.8197 25.0129 13.6301C25.5341 13.4405 26.0684 13.3457 26.6161 13.3457C27.1637 13.3457 27.6953 13.4405 28.2109 13.6301C28.7266 13.8197 29.1906 14.1131 29.6031 14.5103L34.6375 19.3582C35.05 19.7554 35.3594 20.2071 35.5656 20.7133C35.7719 21.2194 35.875 21.734 35.875 22.257C35.875 22.78 35.7719 23.2898 35.5656 23.7863C35.3594 24.2829 35.05 24.7297 34.6375 25.127L25.1594 34.254C24.9156 34.4888 24.6388 34.6693 24.3288 34.7957C24.0188 34.9221 23.6963 34.9853 23.3612 34.9853Z" fill="#242A1F"/>
</g>
<defs>
<filter id="filter0_b_1204_9973" x="-5.86467" y="-5.21233" width="58.7293" height="58.7293" filterUnits="userSpaceOnUse" color-interpolation-filters="sRGB">
<feFlood flood-opacity="0" result="BackgroundImageFix"/>
<feGaussianBlur in="BackgroundImageFix" stdDeviation="2.93234"/>
<feComposite in2="SourceAlpha" operator="in" result="effect1_backgroundBlur_1204_9973"/>
<feBlend mode="normal" in="SourceGraphic" in2="effect1_backgroundBlur_1204_9973" result="shape"/>
</filter>
</defs>
</svg>
