<svg width="47" height="48" viewBox="0 0 47 48" fill="none" xmlns="http://www.w3.org/2000/svg">
<g filter="url(#filter0_b_1204_9968)">
<rect y="0.652344" width="47" height="47" rx="5" fill="white"/>
<path d="M20.1667 14.2972V12.6523H26.8333V14.2972H20.1667ZM22.6667 26.551H24.3333V20.2459H22.6667V26.551ZM23.5 35.6523C22.1296 35.6523 20.838 35.3919 19.625 34.8711C18.412 34.3502 17.3519 33.642 16.4444 32.7465C15.537 31.851 14.8194 30.8047 14.2917 29.6076C13.7639 28.4106 13.5 27.1359 13.5 25.7835C13.5 24.431 13.7639 23.1563 14.2917 21.9593C14.8194 20.7622 15.537 19.7159 16.4444 18.8204C17.3519 17.9249 18.412 17.2167 19.625 16.6958C20.838 16.175 22.1296 15.9146 23.5 15.9146C24.7407 15.9146 25.9074 16.1202 27 16.5314C28.0926 16.9426 29.0648 17.5137 29.9167 18.2447L31.3333 16.8466L32.5 17.998L31.0833 19.3961C31.75 20.1271 32.3194 21.0135 32.7917 22.0552C33.2639 23.0969 33.5 24.3397 33.5 25.7835C33.5 27.1359 33.2361 28.4106 32.7083 29.6076C32.1806 30.8047 31.463 31.851 30.5556 32.7465C29.6481 33.642 28.588 34.3502 27.375 34.8711C26.162 35.3919 24.8704 35.6523 23.5 35.6523ZM23.5 34.0075C25.8148 34.0075 27.7824 33.208 29.4028 31.6088C31.0231 30.0097 31.8333 28.0679 31.8333 25.7835C31.8333 23.499 31.0231 21.5572 29.4028 19.9581C27.7824 18.3589 25.8148 17.5594 23.5 17.5594C21.1852 17.5594 19.2176 18.3589 17.5972 19.9581C15.9769 21.5572 15.1667 23.499 15.1667 25.7835C15.1667 28.0679 15.9769 30.0097 17.5972 31.6088C19.2176 33.208 21.1852 34.0075 23.5 34.0075Z" fill="#242A1F"/>
</g>
<defs>
<filter id="filter0_b_1204_9968" x="-5.86467" y="-5.21233" width="58.7293" height="58.7293" filterUnits="userSpaceOnUse" color-interpolation-filters="sRGB">
<feFlood flood-opacity="0" result="BackgroundImageFix"/>
<feGaussianBlur in="BackgroundImageFix" stdDeviation="2.93234"/>
<feComposite in2="SourceAlpha" operator="in" result="effect1_backgroundBlur_1204_9968"/>
<feBlend mode="normal" in="SourceGraphic" in2="effect1_backgroundBlur_1204_9968" result="shape"/>
</filter>
</defs>
</svg>
