<svg width="20" height="24" viewBox="0 0 20 24" fill="none" xmlns="http://www.w3.org/2000/svg">
<path d="M6.66667 2.43583V0.791016H13.3333V2.43583H6.66667ZM9.16667 14.6897H10.8333V8.38458H9.16667V14.6897ZM10 23.791C8.62963 23.791 7.33796 23.5306 6.125 23.0097C4.91204 22.4889 3.85185 21.7807 2.94444 20.8852C2.03704 19.9897 1.31944 18.9434 0.791667 17.7463C0.263889 16.5493 0 15.2745 0 13.9221C0 12.5697 0.263889 11.295 0.791667 10.0979C1.31944 8.90087 2.03704 7.85458 2.94444 6.95907C3.85185 6.06356 4.91204 5.35538 6.125 4.83452C7.33796 4.31366 8.62963 4.05323 10 4.05323C11.2407 4.05323 12.4074 4.25883 13.5 4.67004C14.5926 5.08124 15.5648 5.65236 16.4167 6.38339L17.8333 4.98529L19 6.13667L17.5833 7.53476C18.25 8.26579 18.8194 9.15216 19.2917 10.1939C19.7639 11.2356 20 12.4783 20 13.9221C20 15.2745 19.7361 16.5493 19.2083 17.7463C18.6806 18.9434 17.963 19.9897 17.0556 20.8852C16.1481 21.7807 15.088 22.4889 13.875 23.0097C12.662 23.5306 11.3704 23.791 10 23.791ZM10 22.1462C12.3148 22.1462 14.2824 21.3466 15.9028 19.7475C17.5231 18.1484 18.3333 16.2066 18.3333 13.9221C18.3333 11.6377 17.5231 9.69586 15.9028 8.09674C14.2824 6.49761 12.3148 5.69805 10 5.69805C7.68519 5.69805 5.71759 6.49761 4.09722 8.09674C2.47685 9.69586 1.66667 11.6377 1.66667 13.9221C1.66667 16.2066 2.47685 18.1484 4.09722 19.7475C5.71759 21.3466 7.68519 22.1462 10 22.1462Z" fill="#242A1F"/>
</svg>
