<svg width="26" height="26" viewBox="0 0 26 26" fill="none" xmlns="http://www.w3.org/2000/svg">
<path d="M9.49773 24.791L7.51136 21.3863L3.56477 20.5743L4.00909 16.7243L1.5 13.791L4.00909 10.8839L3.56477 7.03387L7.51136 6.22197L9.49773 2.79102L13 4.41483L16.5023 2.79102L18.5148 6.22197L22.4352 7.03387L21.9909 10.8839L24.5 13.791L21.9909 16.7243L22.4352 20.5743L18.5148 21.3863L16.5023 24.791L13 23.1672L9.49773 24.791ZM10.2034 22.722L13 21.5434L15.875 22.722L17.6261 20.1029L20.6841 19.3172L20.3705 16.2005L22.4875 13.791L20.3705 11.3291L20.6841 8.21244L17.6261 7.47911L15.8227 4.86006L13 6.03863L10.125 4.86006L8.37386 7.47911L5.31591 8.21244L5.62955 11.3291L3.5125 13.791L5.62955 16.2005L5.31591 19.3696L8.37386 20.1029L10.2034 22.722ZM11.8761 17.2743L17.8091 11.3815L16.633 10.3077L11.8761 15.022L9.39318 12.4291L8.19091 13.6077L11.8761 17.2743Z" fill="#242A1F"/>
</svg>
