<svg width="28" height="28" viewBox="0 0 28 28" fill="none" xmlns="http://www.w3.org/2000/svg">
<path d="M17.4974 11.6662L16.6341 11.5227C16.6132 11.648 16.6199 11.7764 16.6537 11.8989C16.6875 12.0214 16.7476 12.1351 16.8297 12.232C16.9119 12.3289 17.0142 12.4068 17.1295 12.4602C17.2448 12.5136 17.3703 12.5412 17.4974 12.5412V11.6662ZM4.66406 11.6662V10.7912C4.432 10.7912 4.20944 10.8834 4.04534 11.0475C3.88125 11.2116 3.78906 11.4341 3.78906 11.6662H4.66406ZM6.9974 24.2079H20.2507V22.4579H6.9974V24.2079ZM21.6507 10.7912H17.4974V12.5412H21.6507V10.7912ZM18.3607 11.8097L19.3011 6.16887L17.5744 5.88071L16.6341 11.5227L18.3607 11.8097ZM17.2874 3.79121H17.0377V5.54121H17.2862L17.2874 3.79121ZM13.3966 5.73954L10.4624 10.1414L11.9184 11.112L14.8526 6.71021L13.3966 5.73954ZM9.24906 10.7912H4.66406V12.5412H9.24906V10.7912ZM3.78906 11.6662V20.9995H5.53906V11.6662H3.78906ZM23.3972 21.6295L24.7972 14.6295L23.0822 14.2854L21.6822 21.2854L23.3972 21.6284V21.6295ZM10.4624 10.1414C10.3293 10.3412 10.1489 10.5039 9.93722 10.6173C9.72555 10.7306 9.48917 10.79 9.24906 10.79V12.54C10.3224 12.54 11.3234 12.0045 11.9184 11.112L10.4624 10.1414ZM19.3011 6.16887C19.3497 5.87647 19.334 5.57582 19.2552 5.29007C19.1764 5.00432 19.0363 4.73916 18.8447 4.51301C18.6531 4.28686 18.4145 4.10515 18.1456 3.9805C17.8767 3.85585 17.5838 3.79126 17.2874 3.79121L17.2862 5.54121C17.3285 5.54131 17.3714 5.55061 17.4098 5.56846C17.4481 5.58631 17.4821 5.61228 17.5094 5.64457C17.5367 5.67687 17.5567 5.71472 17.5679 5.75549C17.5791 5.79626 17.5813 5.83899 17.5744 5.88071L19.3011 6.16887ZM21.6507 12.54C22.5724 12.54 23.2607 13.3824 23.0811 14.2842L24.7972 14.6284C24.8901 14.163 24.8785 13.6816 24.7634 13.2212C24.6483 12.7609 24.4324 12.3317 24.1315 11.9648C23.8305 11.5979 23.4519 11.3023 23.0229 11.0994C22.5939 10.8964 22.1253 10.7912 21.6507 10.7912V12.5412V12.54ZM20.2507 24.2079C20.9924 24.208 21.7112 23.95 22.2849 23.48C22.8585 23.0099 23.2516 22.3556 23.3972 21.6284L21.6822 21.2842C21.6161 21.6151 21.4373 21.9128 21.1763 22.1266C20.9152 22.3404 20.5881 22.4582 20.2507 22.4579V24.2079ZM17.0377 3.79121C16.3175 3.79126 15.6084 3.96795 14.9735 4.30783C14.3385 4.64771 13.7972 5.13909 13.3977 5.73837L14.8526 6.71021C15.0924 6.35047 15.4173 6.05437 15.7985 5.85044C16.1797 5.6465 16.6054 5.54105 17.0377 5.54121V3.79121ZM6.9974 22.4579C6.1924 22.4579 5.53906 21.8045 5.53906 20.9995H3.78906C3.78906 21.8504 4.12708 22.6665 4.72876 23.2682C5.33044 23.8699 6.14649 24.2079 6.9974 24.2079V22.4579Z" fill="#242A1F"/>
<path d="M9.33008 11.666V23.3327" stroke="#242A1F" stroke-width="1.5"/>
</svg>
