<svg width="26" height="27" viewBox="0 0 26 27" fill="none" xmlns="http://www.w3.org/2000/svg">
<path d="M12.9993 3.03613C8.80685 3.03613 5.41602 6.42697 5.41602 10.6195C5.41602 16.307 12.9993 24.7028 12.9993 24.7028C12.9993 24.7028 20.5827 16.307 20.5827 10.6195C20.5827 6.42697 17.1918 3.03613 12.9993 3.03613ZM12.9993 13.3278C12.2811 13.3278 11.5922 13.0425 11.0843 12.5345C10.5764 12.0266 10.291 11.3378 10.291 10.6195C10.291 9.90117 10.5764 9.2123 11.0843 8.70439C11.5922 8.19647 12.2811 7.91113 12.9993 7.91113C13.7176 7.91113 14.4065 8.19647 14.9144 8.70439C15.4223 9.2123 15.7077 9.90117 15.7077 10.6195C15.7077 11.3378 15.4223 12.0266 14.9144 12.5345C14.4065 13.0425 13.7176 13.3278 12.9993 13.3278Z" fill="#242A1F"/>
</svg>
