<svg width="35" height="35" viewBox="0 0 35 35" fill="none" xmlns="http://www.w3.org/2000/svg">
<path d="M15.93 22.0358L24.0631 13.9027L22.5649 12.4402L16.037 18.9681L12.4342 15.3653L10.8647 16.9348L15.93 22.0358ZM17.4996 31.5244C14.1702 30.6921 11.4354 28.7599 9.29514 25.7278C7.15486 22.6957 6.08472 19.3724 6.08472 15.7577V7.26787L17.4996 2.9873L28.9144 7.26787V15.7577C28.9144 19.3724 27.8442 22.6957 25.704 25.7278C23.5637 28.7599 20.8289 30.6921 17.4996 31.5244ZM17.4996 29.3128C20.2344 28.4091 22.4638 26.7028 24.1879 24.1939C25.912 21.685 26.7741 18.873 26.7741 15.7577V8.76607L17.4996 5.27027L8.225 8.76607V15.7577C8.225 18.873 9.08706 21.685 10.8112 24.1939C12.5353 26.7028 14.7647 28.4091 17.4996 29.3128Z" fill="#242A1F"/>
</svg>
