<svg width="29" height="29" viewBox="0 0 29 29" fill="none" xmlns="http://www.w3.org/2000/svg">
<path d="M14.5168 5.93886V3.10024C14.5168 2.30541 14.7963 1.62857 15.3551 1.06972C15.914 0.510871 16.5908 0.231445 17.3856 0.231445H20.2243V3.07007C20.2243 3.8649 19.9448 4.54174 19.386 5.10059C18.8271 5.65944 18.1503 5.93886 17.3555 5.93886H14.5168ZM4.52885 14.5C3.34661 14.5 2.33762 14.0821 1.50189 13.2464C0.666157 12.4107 0.248291 11.4017 0.248291 10.2194V5.93886H4.52885C5.7111 5.93886 6.72009 6.35673 7.55582 7.19246C8.39155 8.02819 8.80942 9.03718 8.80942 10.2194V14.5H4.52885ZM20.2243 28.7685C19.2368 28.7685 18.2936 28.6068 17.3947 28.2834C16.4958 27.96 15.6792 27.5153 14.9449 26.9493L13.8391 28.0551C13.6472 28.2691 13.4031 28.3762 13.1066 28.3762C12.8102 28.3762 12.5668 28.2691 12.3766 28.0551C12.1625 27.8633 12.0555 27.6191 12.0555 27.3227C12.0555 27.0262 12.1625 26.7828 12.3766 26.5926L13.4824 25.4868C12.9164 24.7525 12.4717 23.9359 12.1483 23.037C11.8248 22.1381 11.6631 21.1949 11.6631 20.2074C11.6631 17.8293 12.4955 15.802 14.1601 14.1254C15.8248 12.4489 17.8462 11.6225 20.2243 11.6463H28.7497V20.2074C28.7973 22.5855 27.9828 24.6069 26.3062 26.2715C24.6297 27.9362 22.6023 28.7685 20.2243 28.7685ZM20.2243 26.6283C22.0078 26.6283 23.5179 25.9981 24.7545 24.7377C25.9911 23.4773 26.6094 21.9553 26.6094 20.1717V13.7866H20.2599C18.4764 13.7866 16.9544 14.4114 15.694 15.661C14.4336 16.9106 13.8034 18.4261 13.8034 20.2074C13.8034 20.9082 13.9104 21.5709 14.1245 22.1955C14.3385 22.8201 14.6357 23.4059 15.0162 23.9529L19.5108 19.4583C19.7027 19.2443 19.9468 19.1373 20.2433 19.1373C20.5397 19.1373 20.7831 19.2443 20.9734 19.4583C21.1874 19.6502 21.2944 19.8943 21.2944 20.1908C21.2944 20.4872 21.1874 20.7306 20.9734 20.9208L16.4788 25.4154C17.0257 25.7959 17.6115 26.0932 18.2361 26.3072C18.8608 26.5212 19.5235 26.6283 20.2243 26.6283Z" fill="#242A1F"/>
</svg>
