<svg width="47" height="47" viewBox="0 0 47 47" fill="none" xmlns="http://www.w3.org/2000/svg">
<g filter="url(#filter0_b_1204_32557)">
<rect width="47" height="47" rx="5" fill="#EEEEEE"/>
<path d="M28.875 25.5C29.3958 25.5 29.8594 25.2969 30.2656 24.8906C30.6719 24.4844 30.875 24.0156 30.875 23.4844C30.875 22.9531 30.6719 22.4896 30.2656 22.0938C29.8594 21.6979 29.3958 21.5 28.875 21.5C28.3542 21.5 27.8906 21.6979 27.4844 22.0938C27.0781 22.4896 26.875 22.9531 26.875 23.4844C26.875 24.0156 27.0781 24.4844 27.4844 24.8906C27.8906 25.2969 28.3542 25.5 28.875 25.5ZM14.125 31.2188V32.875V14.125V31.2188ZM14.125 34.75C13.6458 34.75 13.2135 34.5625 12.8281 34.1875C12.4427 33.8125 12.25 33.375 12.25 32.875V14.125C12.25 13.6458 12.4427 13.2135 12.8281 12.8281C13.2135 12.4427 13.6458 12.25 14.125 12.25H32.875C33.375 12.25 33.8125 12.4427 34.1875 12.8281C34.5625 13.2135 34.75 13.6458 34.75 14.125V18.3125H32.875V14.125H14.125V32.875H32.875V28.7188H34.75V32.875C34.75 33.375 34.5625 33.8125 34.1875 34.1875C33.8125 34.5625 33.375 34.75 32.875 34.75H14.125ZM25.3125 29.3438C24.6042 29.3438 24.0417 29.1354 23.625 28.7188C23.2083 28.3021 23 27.75 23 27.0625V19.9688C23 19.2604 23.2083 18.7031 23.625 18.2969C24.0417 17.8906 24.6042 17.6875 25.3125 17.6875H33.75C34.4583 17.6875 35.0208 17.8906 35.4375 18.2969C35.8542 18.7031 36.0625 19.2604 36.0625 19.9688V27.0625C36.0625 27.75 35.8542 28.3021 35.4375 28.7188C35.0208 29.1354 34.4583 29.3438 33.75 29.3438H25.3125ZM34.1875 27.4688V19.5625H24.875V27.4688H34.1875Z" fill="#242A1F"/>
</g>
<defs>
<filter id="filter0_b_1204_32557" x="-5.86467" y="-5.86467" width="58.7293" height="58.7293" filterUnits="userSpaceOnUse" color-interpolation-filters="sRGB">
<feFlood flood-opacity="0" result="BackgroundImageFix"/>
<feGaussianBlur in="BackgroundImageFix" stdDeviation="2.93234"/>
<feComposite in2="SourceAlpha" operator="in" result="effect1_backgroundBlur_1204_32557"/>
<feBlend mode="normal" in="SourceGraphic" in2="effect1_backgroundBlur_1204_32557" result="shape"/>
</filter>
</defs>
</svg>
