
<svg width="49" height="49" viewBox="0 0 49 49" fill="none" xmlns="http://www.w3.org/2000/svg">
<g clip-path="url(#clip0_162_347895)">
<rect x="0.103516" y="0.402832" width="48" height="48" rx="24" fill="#AAE1FB"/>
<path d="M7.59411 20.2071C13.172 17.1947 14.6865 22.4747 22.2175 23.9809C29.7486 25.4871 29.8479 14.3312 36.1707 11.6168C39.0589 10.3754 42.7913 12.2788 46.1017 14.7037C47.4283 15.6754 48.3533 16.3734 48.6495 17.3118C50.4123 23.1315 51.3219 29.5505 48.6495 35.0126H0.104226C-1.42742 31.884 -2.25242 28.4569 -2.31233 24.974V24.5354C0.385605 24.6099 3.8948 22.2181 7.59411 20.2071Z" fill="#8BD383"/>
<path d="M48.1021 25.9092H-0.947266V27.2664H48.1021V25.9092Z" fill="white"/>
<path d="M48.2915 31.1064H-0.988281V32.4637H48.2915V31.1064Z" fill="white"/>
<path d="M12.9544 34.9877H9.33789V24.1298L11.2248 22.8057L12.9544 24.1298V34.9877Z" fill="white"/>
<path d="M38.4955 34.9877H34.8789V24.1298L36.7658 22.8057L38.4955 24.1298V34.9877Z" fill="white"/>
<path fill-rule="evenodd" clip-rule="evenodd" d="M34.8622 8.17412C31.7836 8.33137 30.5505 4.03619 26.5864 5.0955C22.6222 6.15481 24.9312 10.3341 22.4484 12.6431C19.9657 14.9521 18.4512 16.0445 19.2208 19.4293C19.9905 22.8141 26.1477 22.6652 26.4539 25.7521C26.7601 28.839 34.1588 30.37 36.6167 26.8279C39.0746 23.2858 42.625 24.0555 43.7091 19.1231C44.7933 14.1907 37.8333 15.4155 38.1726 12.1879C38.5119 8.96033 34.8622 8.17412 34.8622 8.17412Z" fill="#16AF6F"/>
<path d="M29.4819 39.0515C29.2624 39.0515 29.0519 38.9643 28.8967 38.8091C28.7415 38.6539 28.6543 38.4434 28.6543 38.2239V23.195C29.6226 16.8639 33.1646 14.3812 33.3136 14.2736C33.4033 14.2116 33.5043 14.1679 33.6108 14.145C33.7173 14.1221 33.8274 14.1204 33.9346 14.14C34.0418 14.1596 34.1441 14.2001 34.2356 14.2592C34.3271 14.3184 34.4061 14.3949 34.4681 14.4846C34.53 14.5743 34.5737 14.6753 34.5966 14.7818C34.6196 14.8883 34.6213 14.9984 34.6017 15.1056C34.5821 15.2128 34.5416 15.3151 34.4824 15.4066C34.4233 15.4981 34.3467 15.5771 34.2571 15.6391C34.2571 15.6391 31.1702 17.857 30.3095 23.3853V38.2239C30.3095 38.4434 30.2223 38.6539 30.0671 38.8091C29.9119 38.9643 29.7014 39.0515 29.4819 39.0515Z" fill="#823E00"/>
<path d="M30.6584 20.0249C30.588 20.0256 30.5188 20.0075 30.4577 19.9726C30.3966 19.9377 30.3459 19.8872 30.3108 19.8263L27.0004 14.5629C26.9595 14.4696 26.9537 14.3647 26.984 14.2675C27.0143 14.1703 27.0788 14.0874 27.1655 14.0339C27.2522 13.9805 27.3552 13.9602 27.4557 13.9768C27.5562 13.9934 27.6473 14.0458 27.7122 14.1243L31.0225 19.3877C31.0787 19.4815 31.0963 19.5934 31.0716 19.7C31.0469 19.8065 30.9818 19.8992 30.8901 19.9587C30.8205 20.002 30.7403 20.0249 30.6584 20.0249V20.0249Z" fill="#823E00"/>
<path d="M30.0953 26.4722C30.011 26.4714 29.929 26.4448 29.8603 26.3962C29.7915 26.3475 29.7392 26.279 29.7105 26.1998C29.6817 26.1207 29.6777 26.0346 29.6992 25.9531C29.7206 25.8717 29.7664 25.7987 29.8304 25.7439L35.218 21.0929C35.3031 21.0228 35.4121 20.9888 35.5219 20.9981C35.6317 21.0074 35.7335 21.0592 35.8056 21.1425C35.8439 21.1796 35.8743 21.2239 35.8951 21.273C35.9159 21.322 35.9267 21.3748 35.9267 21.4281C35.9267 21.4813 35.9159 21.5341 35.8951 21.5831C35.8743 21.6322 35.8439 21.6765 35.8056 21.7136V21.7136L30.418 26.3398C30.3756 26.382 30.3252 26.4154 30.2698 26.4381C30.2144 26.4609 30.1551 26.4724 30.0953 26.4722V26.4722Z" fill="#823E00"/>
<path d="M22.3058 48.4026H0.103516V39.1299H15.9217L17.6401 41.2448C18.2011 41.5066 18.7992 41.7966 19.4309 42.1029C21.9447 43.3218 24.9915 44.7991 28.3581 45.7844L29.5581 44.5844L39.3762 48.4026H25.9884C24.7643 48.4968 23.5331 48.4971 22.3058 48.4026Z" fill="#8BD383"/>
<path d="M-0.441406 35.0127H48.104V37.9506V48.4028C48.104 48.4028 42.2339 48.3601 41.0131 48.4028C32.2573 48.709 21.0336 43.1396 15.1577 40.4251C12.3688 39.1341 5.97152 40.0941 5.97152 40.0941C5.97152 40.0941 0.613496 41.5125 0.104029 40.7664C-0.193526 40.3703 0.357557 37.3737 0.10378 36.9482C-0.218978 36.3937 -0.160027 35.6003 -0.441406 35.0127Z" fill="#16AF6F"/>
</g>
<defs>
<clipPath id="clip0_162_347895">
<rect x="0.103516" y="0.402832" width="48" height="48" rx="24" fill="white"/>
</clipPath>
</defs>
</svg>
