<svg width="48" height="48" viewBox="0 0 48 48" fill="none" xmlns="http://www.w3.org/2000/svg">
<g clip-path="url(#clip0_228_1215)">
<rect width="48" height="48" rx="24" fill="#E2FBFD"/>
<rect width="81" height="36" transform="matrix(-1 0 0 1 64 24)" fill="#BEE0ED"/>
<rect x="6" y="9" width="36" height="29" fill="white"/>
<rect x="7.44828" y="12.4483" width="33.1034" height="21.1034" fill="#E0EFDB" stroke="white" stroke-width="1.10345"/>
<mask id="mask0_228_1215" style="mask-type:alpha" maskUnits="userSpaceOnUse" x="8" y="13" width="32" height="20">
<rect x="8.33008" y="13" width="31.394" height="20" fill="white"/>
</mask>
<g mask="url(#mask0_228_1215)">
<path d="M32.9366 23.8543C30.2826 26.7326 25.7774 24.0773 25.7774 24.0773C26.5394 23.5345 27.812 23.5281 28.1888 22.7083C28.5657 21.8885 27.391 20.2954 27.2858 19.4094L29.5989 20.5414L30.9161 20.123C30.9425 20.6958 31.0922 22.1985 31.1928 23.3846C31.9233 23.625 32.9366 23.8543 32.9366 23.8543Z" fill="#F6AE88"/>
<path d="M35.1797 42.211C35.1797 42.211 35.3623 43.0391 32.5735 43.8254C29.7846 44.6116 27.9055 44.4248 25.7881 43.855C25.5015 43.7813 24.821 43.5708 24.8187 43.3424C24.8163 43.1141 24.7655 42.7158 24.8107 42.2475C27.5552 36.4575 27.1028 33.614 27.0452 33.0351C26.6764 28.688 22.1816 31.8261 25.7524 23.7808C25.7524 23.7808 26.5254 23.5592 26.7959 23.5882C27.1509 23.9773 27.905 24.5895 29.1466 24.727C31.422 24.979 32.6418 24.1741 32.9367 23.8543L35.2524 24.5807C36.2377 24.8073 35.5361 31.7201 34.459 33.7162C34.6302 34.9332 34.6513 36.1832 34.7678 37.3568C35.0089 39.1673 35.1797 42.211 35.1797 42.211Z" fill="#16AF6E"/>
<path d="M21.6466 43.1119C22.0383 43.1623 22.4294 43.1576 22.8148 43.0979C22.8148 43.0979 23.9607 36.9593 24.1297 36.3944C24.2386 36.0304 24.1318 32.8717 24.0421 30.6708C23.9846 29.2595 24.2059 27.8546 24.7051 26.5394L25.7523 23.7808C25.7523 23.7808 21.4723 28.0224 20.9558 35.094C20.3036 37.5099 20.8456 42.7755 20.8456 42.7755C21.1018 42.9504 21.3724 43.064 21.6466 43.1119Z" fill="#007C56"/>
<mask id="mask1_228_1215" style="mask-type:alpha" maskUnits="userSpaceOnUse" x="25" y="19" width="8" height="6">
<path d="M32.9366 23.8543C30.1057 24.7303 25.7774 24.0773 25.7774 24.0773C26.5394 23.5345 27.812 23.5281 28.1888 22.7083C28.5657 21.8885 27.391 20.2954 27.2858 19.4094L29.5989 20.5414L30.9161 20.123C30.9425 20.6958 31.0922 22.1985 31.1928 23.3846C31.9233 23.625 32.9366 23.8543 32.9366 23.8543Z" fill="#F6AE88"/>
</mask>
<g mask="url(#mask1_228_1215)">
<path d="M27.5472 20.8396C27.5096 21.4962 27.527 22.1546 27.5993 22.8091C28.3455 22.76 29.0561 22.5 29.6331 22.065C30.21 21.63 30.6248 21.0414 30.8201 20.3806L29.4661 19.9879L27.5472 20.8396Z" fill="#DC9665"/>
</g>
<path d="M27.4771 22.0473C27.4771 22.0473 30.9398 21.8292 30.8237 19.6393C31.7832 19.0041 32.5736 15.5944 29.4769 15.819C26.3802 16.0436 26.277 16.5442 26.0759 17.3015C25.8748 18.0589 26.2176 22.0982 27.4771 22.0473Z" fill="#F6AE88"/>
<path d="M26.0246 17.6853C27.0696 17.6606 27.07 16.5216 28.783 17.3837C30.496 18.2457 30.6203 18.0145 30.6203 18.0145C30.6203 18.0145 30.9416 17.5239 31.3869 17.934C31.6073 18.1371 31.3749 18.9457 30.7718 19.4422C30.3922 19.7547 32.1475 20.6168 32.1475 20.6168C32.6915 20 33.0442 19.2573 33.1677 18.4684C33.2911 17.6795 33.1808 16.8742 32.8483 16.1388C31.6657 13.6406 28.2287 14.5247 26.8966 15.1258C24.0492 15.3264 25.6447 16.8736 26.0246 17.6853Z" fill="#014266"/>
<path d="M32.0973 24.0451C30.0174 23.6811 30.4282 20.7036 30.7715 19.4422L31.1969 19.3458L32.9644 16.6477C33.2781 17.5513 34.0105 19.5854 34.4304 20.4928C34.8504 21.4001 36.0898 21.3699 36.657 21.2413C36.3831 22.7654 34.6973 24.5002 32.0973 24.0451Z" fill="#014266"/>
<path d="M22.5707 23.59C19.766 24.2968 14.9111 22.3927 14.9111 22.3927C15.6912 21.8786 16.3274 21.1693 16.7584 20.3333C17.1893 19.4973 17.4004 18.5628 17.3714 17.6199L19.5118 18.9919L21.0372 19.9315C21.0157 20.5379 20.9444 21.1414 20.8239 21.7358C20.8239 21.927 20.7583 22.1183 20.7091 22.3345C21.3946 22.6443 22.0239 23.0687 22.5707 23.59Z" fill="#F6AE88"/>
<path d="M26.4825 44.3937C26.3954 44.4536 26.2925 44.4854 26.1873 44.4852C24.9981 44.7513 23.5958 45.1421 19.4708 44.7263C17.3438 44.5413 15.252 44.06 13.2546 43.2962C12.9839 43.1964 12.3443 42.922 12.3607 42.6809C12.3771 42.4398 12.3607 42.0157 12.4427 41.5251C12.7169 38.843 12.769 36.1423 12.5985 33.4514C12.5493 32.8195 12.5329 32.1875 12.5247 31.5722C12.5247 26.9575 13.6482 22.8915 15.9526 21.5196C16.827 21.6613 17.6739 21.9419 18.4621 22.3511C19.4276 22.718 20.4719 22.8185 21.4882 22.6421L22.4559 23.3239C23.8396 24.4778 24.8578 26.0191 25.3836 27.7557C25.9891 29.9226 26.3307 32.1565 26.4005 34.4076C26.4661 35.7047 26.5235 37.0185 26.5399 38.2657V38.2241C26.5481 38.3515 26.5481 38.4793 26.5399 38.6066C26.6243 40.5353 26.6052 42.4672 26.4825 44.3937Z" fill="#16AF6E"/>
<path d="M21.0377 19.9315C21.0122 20.5375 20.9409 21.1407 20.8245 21.7358C20.2102 21.6294 19.6435 21.3323 19.2028 20.8855C18.7622 20.4387 18.4691 19.8642 18.3643 19.2413L19.5206 18.9919L21.0377 19.9315Z" fill="#DC9665"/>
<path d="M21.6228 20.856C21.6228 20.856 16.944 20.7275 16.9367 18.4139C16.9293 16.1003 16.3267 14.4758 19.3422 14.4632C22.3577 14.4506 22.4852 14.9691 22.7217 15.7498C22.9582 16.5305 22.847 20.8083 21.6228 20.856Z" fill="#F6AE88"/>
<path d="M23.1395 16.0956C22.1247 16.1536 21.1093 16.1397 20.1009 16.0538C19.0666 15.8873 19.1033 17.2013 18.834 17.2171C18.5647 17.2328 18.1396 16.4808 17.6058 16.8422C17.3492 17.0119 17.5569 17.8133 17.9421 18.1116C18.3273 18.4099 17.0151 19.7262 17.0151 19.7262C16.4537 19.1209 16.0709 18.3678 15.908 17.5476C15.745 16.7275 15.808 15.8712 16.0901 15.0707C17.1002 12.347 21.5176 13.2703 21.8066 14.067C23.8059 12.549 25.0278 14.104 24.7038 14.9886C24.6056 15.3238 24.3958 15.6176 24.1103 15.8196C23.8249 16.0215 23.4816 16.1191 23.1395 16.0956Z" fill="#225994"/>
<path d="M10.0216 43.2753C10.6257 43.2267 24.0599 37.0876 24.644 36.9242C24.644 36.9242 14.0326 33.0465 14.2383 32.4052C14.4441 31.7639 15.8336 27.7755 15.8336 27.7755L15.8336 21.5976C15.8336 21.5976 9.36067 22.7646 10.3362 35.1166C9.56426 37.8407 8.76425 43.1279 8.76425 43.1279C9.17269 43.2462 9.59742 43.2959 10.0216 43.2753Z" fill="#16AF6E"/>
<path d="M21.5219 26.3553C19.5746 24.5746 18.137 24.7363 17.3353 25.0911C14.1409 26.5047 15.6014 31.0455 17.7248 33.781C19.8482 36.5165 25.7456 37.6052 28.0916 36.1483C30.4375 34.6915 30.2242 33.3669 29.7142 32.29C29.2441 31.2972 23.956 28.5812 21.5219 26.3553Z" fill="#EEEEEE"/>
<path d="M20.9283 26.8505C20.6872 26.05 19.6571 25.4721 19.0181 25.4396C18.4525 25.4107 17.2533 25.6027 16.9688 26.6488C16.7574 27.4262 17.312 28.4458 17.9889 28.8026C18.8164 29.2389 20.0845 29.3075 20.5342 28.9323C21.1276 28.4371 21.1694 27.6511 20.9283 26.8505Z" fill="#F6AE88"/>
<path d="M16.969 26.6488C17.5347 26.6776 18.4248 25.9348 18.4565 24.8855" stroke="#225994" stroke-width="1.10017"/>
<path d="M23.5376 30.3159C25.6866 30.6263 25.0726 31.2916 25.3796 31.6465L25.0726 32.9771C20.7747 33.2432 20.7747 31.1142 21.0816 30.582C21.4776 29.8954 23.4353 30.7594 23.8446 31.1142C23.5376 30.8481 22.58 30.1775 23.5376 30.3159Z" fill="#F6AE88"/>
<path d="M25.58 30.2973L31.4483 32.4594L30.1442 34.6216H24.2759L25.58 30.2973Z" fill="#16AF6E"/>
</g>
<rect x="5" y="38" width="37" height="1" fill="#E8EFF0"/>
<rect x="5" y="9" width="1" height="30" fill="#CBD6D9"/>
<rect x="16" y="34" width="15" height="1" fill="#E8EFF0"/>
<rect x="20" y="36" width="7" height="1" fill="#CBD6D9"/>
</g>
<defs>
<clipPath id="clip0_228_1215">
<rect width="48" height="48" rx="24" fill="white"/>
</clipPath>
</defs>
</svg>