
<svg width="48" height="49" viewBox="0 0 48 49" fill="none" xmlns="http://www.w3.org/2000/svg">
<g clip-path="url(#clip0_162_347909)">
<rect y="0.402832" width="48" height="48" rx="24" fill="#AAE1FB"/>
<path d="M-2 29.4028C-2 28.8505 -1.55228 28.4028 -1 28.4028H31C31.5523 28.4028 32 28.8505 32 29.4028V37.582C32 38.1343 32.4477 38.582 33 38.582H45C45.5523 38.582 46 39.0297 46 39.582V49.2373C46 49.7896 45.5523 50.2373 45 50.2373H-1C-1.55229 50.2373 -2 49.7896 -2 49.2373V29.4028Z" fill="white"/>
<rect x="-17" y="30.4028" width="26" height="8" fill="#007B56"/>
<rect x="11" y="30.4028" width="21" height="8" fill="#16AF6F"/>
<rect x="-1" y="40.4028" width="22" height="8" fill="#0C9459"/>
<rect x="23" y="40.4028" width="22" height="8" fill="#0C9459"/>
<path d="M10.7786 25.0721C9.82689 25.1737 9.29002 24.0088 9.98549 23.3512L20.7124 13.2081C21.2096 12.738 22.0213 12.8948 22.3077 13.5161L26.2605 22.0929C26.5469 22.7143 26.1387 23.4332 25.4584 23.5058L10.7786 25.0721Z" fill="#9BA9B1"/>
<path d="M22.8833 18.465L26.2614 16.7532C26.8189 16.4707 27.2123 15.9438 27.3247 15.329L27.4528 14.6287C27.554 14.0751 27.8837 13.5899 28.3611 13.2919L35.4712 8.85326" stroke="#566468" stroke-linecap="round"/>
<rect x="29.8359" y="10.1074" width="20.0825" height="3.64355" rx="1" transform="rotate(-31.6402 29.8359 10.1074)" fill="#FE9247"/>
</g>
<defs>
<clipPath id="clip0_162_347909">
<rect y="0.402832" width="48" height="48" rx="24" fill="white"/>
</clipPath>
</defs>
</svg>
