
<svg width="48" height="48" viewBox="0 0 48 48" fill="none" xmlns="http://www.w3.org/2000/svg">
<g clip-path="url(#clip0_217_502)">
<rect width="48" height="48" rx="24" fill="#E2FBFD"/>
<rect x="-13" y="0.21875" width="74" height="48.5625" fill="#F4682C"/>
<rect x="-13" y="0.21875" width="74" height="23.3819" fill="white"/>
<rect x="-13" y="16" width="74" height="16.1875" fill="#00599A"/>
<rect x="0.5" y="0.5" width="47" height="47" rx="23.5" stroke="#E8EFF0"/>
<g filter="url(#filter0_d_217_502)">
<path d="M25.2071 7.50001L24.5 6.79291L23.7929 7.50001L24.5 8.20712L25.2071 7.50001Z" fill="#FBBC33"/>
<path d="M22 9.99999L23 12H26L27 9.99999L26.7236 9.44721C26.3912 8.78231 25.4752 8.69972 25.0292 9.29442L24.5 9.99999L23.9708 9.29442C23.5248 8.69972 22.6088 8.78231 22.2764 9.44721L22 9.99999Z" fill="#FBBC33"/>
<path d="M20.738 11.5L20.0309 10.7929L19.3238 11.5L20.0309 12.2071L20.738 11.5Z" fill="#FBBC33"/>
<path d="M20.0309 13L19.2687 12.3902C18.9835 12.1621 18.5783 12.1621 18.2931 12.3902C17.9023 12.7028 17.9023 13.2972 18.2931 13.6098L18.7809 14H21.2809L21.7687 13.6098C22.1594 13.2972 22.1594 12.7028 21.7687 12.3902C21.4835 12.1621 21.0783 12.1621 20.7931 12.3902L20.0309 13Z" fill="#FBBC33"/>
<path d="M13.5256 10.9644C14.5336 10.6284 15.4116 11.4087 15.6611 12.2249C15.9833 13.279 16.698 13.5 17 13.5V14.5C16.2715 14.5 15.1593 14.0043 14.7048 12.5172C14.5552 12.0279 14.1289 11.8174 13.8418 11.9131L12.9512 12.21C13.1548 12.4434 13.3492 12.7157 13.4979 13.0153C13.8157 13.6559 13.9461 14.4821 13.416 15.2774L12.5839 14.7227C12.8538 14.3179 12.8176 13.8941 12.602 13.4597C12.3794 13.0109 11.9899 12.6175 11.7 12.4L10.9365 11.8274L13.5256 10.9644Z" fill="#FBBC33"/>
<path d="M35.4744 11.1715C34.4664 10.8355 33.5884 11.6157 33.3389 12.432C33.0167 13.4861 32.302 13.7071 32 13.7071V14.7071C32.7285 14.7071 33.8407 14.2114 34.2952 12.7243C34.4448 12.235 34.8711 12.0245 35.1582 12.1202L36.0488 12.4171C35.8452 12.6505 35.6508 12.9227 35.5021 13.2224C35.1843 13.863 35.0539 14.6892 35.584 15.4845L36.4161 14.9298C36.1462 14.525 36.1824 14.1012 36.398 13.6668C36.6206 13.218 37.0101 12.8246 37.3 12.6071L38.0635 12.0345L35.4744 11.1715Z" fill="#FBBC33"/>
<path d="M28.3238 11.7071L29.0309 11L29.738 11.7071L29.0309 12.4142L28.3238 11.7071Z" fill="#FBBC33"/>
<path d="M29.0309 13.2071L29.7931 12.5973C30.0783 12.3692 30.4835 12.3692 30.7687 12.5973C31.1595 12.9099 31.1595 13.5042 30.7687 13.8168L30.2809 14.2071H27.7809L27.2931 13.8168C26.9023 13.5042 26.9023 12.9099 27.2931 12.5973C27.5783 12.3692 27.9835 12.3692 28.2687 12.5973L29.0309 13.2071Z" fill="#FBBC33"/>
<path d="M19.9956 25.3158H17.9495C17.5185 25.3158 17.2483 24.8766 17.4621 24.5237C18.3599 23.0419 18.0687 21.1735 16.7568 19.998L8.94668 13L8.19143 15.3745C9.44619 17.3209 11.4052 18.5047 12.653 19.0115C12.5124 19.2933 12.3911 19.5886 12.291 19.8954C11.0523 19.3974 9.19643 18.3124 7.81784 16.549L7.45583 17.6871C7.28006 18.2397 7.15572 18.8007 7.08178 19.3641C8.62907 20.6618 10.5079 21.2536 11.9796 21.477C11.9666 21.6494 11.9599 21.8238 11.9599 22C11.9599 22.1458 11.9645 22.2904 11.9734 22.4337C10.502 22.2301 8.64091 21.6929 7.00042 20.5256C6.99097 21.5376 7.14142 22.5447 7.44585 23.5133C9.14803 24.1273 10.887 24.1527 12.2494 23.9725C12.3448 24.2872 12.4624 24.5905 12.6001 24.8801C11.2712 25.0799 9.59064 25.1074 7.88154 24.6481C8.18329 25.3088 8.56113 25.9435 9.01296 26.5402C9.10758 26.6651 9.20488 26.7879 9.30477 26.9086C10.9314 27.0577 12.4533 26.7645 13.6017 26.3805C13.8458 26.6494 14.1122 26.893 14.3976 27.1077C13.314 27.5222 11.8502 27.8882 10.2311 27.8961C10.8785 28.5064 11.6015 29.0411 12.3843 29.4884C13.8501 29.2027 15.0282 28.445 15.7177 27.8363C16.0735 27.9701 16.4455 28.0645 16.8295 28.1151C16.272 28.7158 15.1576 29.6001 13.6712 30.1219C13.7992 30.1755 13.9284 30.2268 14.0587 30.276L15.9778 31L16.6901 30.6641C17.4847 30.2893 17.9867 29.5233 17.9867 28.6854V28.5503C17.9867 27.8104 18.6226 27.2105 19.4072 27.2105C19.7839 27.2105 20.1452 27.3517 20.4116 27.6029L21 28.1579V26.2632C21 25.7399 20.5503 25.3158 19.9956 25.3158Z" fill="#FBBC33"/>
<path d="M29.0044 25.2921H31.0505C31.4815 25.2921 31.7517 24.853 31.5379 24.5C30.6401 23.0182 30.9313 21.1735 32.2432 19.998L40.0533 13L40.8086 15.3745C39.5538 17.3209 37.5948 18.5047 36.347 19.0115C36.4876 19.2933 36.6089 19.5886 36.709 19.8954C37.9477 19.3974 39.8036 18.3124 41.1822 16.549L41.5442 17.6871C41.7199 18.2397 41.8443 18.8007 41.9182 19.3641C40.3709 20.6618 38.4921 21.2536 37.0204 21.477C37.0334 21.6494 37.0401 21.8238 37.0401 22C37.0401 22.1458 37.0355 22.2904 37.0266 22.4337C38.498 22.2301 40.3591 21.6929 41.9996 20.5256C42.009 21.5376 41.8586 22.5447 41.5542 23.5133C39.852 24.1273 38.113 24.1527 36.7506 23.9725C36.6552 24.2872 36.5376 24.5905 36.3999 24.8801C37.7288 25.0799 39.4094 25.1074 41.1185 24.6481C40.8167 25.3088 40.4389 25.9435 39.987 26.5402C39.8924 26.6651 39.7951 26.7879 39.6952 26.9086C38.0686 27.0577 36.5467 26.7645 35.3983 26.3805C35.1542 26.6494 34.8878 26.893 34.6024 27.1077C35.686 27.5222 37.1498 27.8882 38.7689 27.8961C38.1215 28.5064 37.3985 29.0411 36.6157 29.4884C35.1499 29.2027 33.9718 28.445 33.2823 27.8363C32.9265 27.9701 32.5545 28.0645 32.1705 28.1151C32.728 28.7158 33.8424 29.6001 35.3288 30.1219C35.2008 30.1755 35.0716 30.2268 34.9413 30.276L33.0222 31L32.3099 30.6641C31.5153 30.2893 31.0133 29.5233 31.0133 28.6854V28.5503C31.0133 27.8104 30.3773 27.2105 29.5928 27.2105C29.2161 27.2105 28.8548 27.3517 28.5884 27.6029L28 28.1579V26.2395C28 25.7163 28.4497 25.2921 29.0044 25.2921Z" fill="#FBBC33"/>
<path d="M17 36.5C17 37.3284 16.3284 38 15.5 38C14.6716 38 14 37.3284 14 36.5C14 36.2684 14.0525 36.0491 14.1462 35.8533L10.1518 31.8589C10.0334 31.9214 9.91492 31.9149 9.77686 31.7768C9.73374 31.7337 9.69736 31.6864 9.6677 31.6362C9.1896 31.7732 8.65345 31.6534 8.27686 31.2768L7.77686 30.7768H8.77686C8.50071 30.5007 8.50071 30.0529 8.77686 29.7768C9.053 29.5007 9.50072 29.5007 9.77686 29.7768V28.7768L10.2769 29.2768C10.6535 29.6534 10.7733 30.1895 10.6363 30.6676C10.6864 30.6973 10.7337 30.7337 10.7769 30.7768C10.9149 30.9149 10.9215 31.0334 10.8589 31.1518L14.8533 35.1462C15.0491 35.0525 15.2684 35 15.5 35C15.8019 35 16.083 35.0892 16.3184 35.2427C16.4943 35.0374 16.721 34.8597 16.9403 34.708C17.6511 34.2162 18.0085 33.1825 17.9119 32.2265C17.7378 30.5038 19.0536 30 19.9999 30H21V32L24.5 34L28 32V30H29.0001C29.9464 30 31.2622 30.5038 31.0881 32.2265C30.9915 33.1825 31.3489 34.2162 32.0597 34.708C32.2005 34.8053 32.3443 34.9134 32.4757 35.0326C32.9301 34.4069 33.6675 34 34.5 34C35.8807 34 37 35.1193 37 36.5C37 37.8807 35.8807 39 34.5 39C33.1193 39 32 37.8807 32 36.5C32 36.3288 32.0172 36.1616 32.05 36H29.0001C29.1068 35.2525 28.9947 34.1493 28.1639 33.7686C27.3716 33.4055 26.6182 34.1877 26.0035 35.1488C26.1114 37.4249 28.6947 38 30 38L29.5989 38.4813C29.1173 39.0592 28.5518 39.5489 27.9275 39.9384C27.7794 39.3882 27.4199 39 27 39C26.4477 39 26 39.6716 26 40.5C26 40.5908 26.0054 40.6798 26.0157 40.7662C25.9205 40.7914 25.8246 40.8147 25.7282 40.836C25.2632 40.9385 24.8224 41.1496 24.5 41.5C24.1776 41.1496 23.7368 40.9385 23.2718 40.836C23.1754 40.8147 23.0795 40.7914 22.9843 40.7662C22.9946 40.6798 23 40.5908 23 40.5C23 39.6716 22.5523 39 22 39C21.5801 39 21.2206 39.3882 21.0724 39.9384C20.4482 39.5489 19.8827 39.0592 19.4011 38.4813L19 38C20.3053 38 22.8886 37.4249 22.9965 35.1488C22.3818 34.1877 21.6284 33.4055 20.8361 33.7686C20.0053 34.1493 19.8932 35.2525 19.9999 36H16.9146C16.9699 36.1564 17 36.3247 17 36.5Z" fill="#FBBC33"/>
<path d="M34 32.6464L34.6465 32L35.2929 32.6464L34.6465 33.2929L34 32.6464Z" fill="#FBBC33"/>
<path d="M16 17.4142C16 16.5087 16.3597 15.6403 17 15H23C22.4185 15.5815 22.3283 16.4925 22.7845 17.1767L23.5543 18.3314C23.8501 18.7752 24.0854 19.2564 24.2541 19.7623L24.5 20.5L24.7459 19.7623C24.9146 19.2564 25.1499 18.7752 25.4457 18.3314L26.2155 17.1767C26.6717 16.4925 26.5815 15.5815 26 15H32C32.6403 15.6403 33 16.5087 33 17.4142V18L32.8787 17.8787C32.3161 17.3161 31.553 17 30.7574 17H30L31 18C30.3424 18 29.6938 18.1531 29.1056 18.4472L28.741 18.6295C28.2665 18.8667 27.9058 19.2827 27.738 19.7859L27.3909 20.8274C27.1513 21.546 27.3384 22.3384 27.874 22.874L29 24H20L21.126 22.874C21.6616 22.3384 21.8487 21.546 21.6091 20.8274L21.262 19.7859C21.0942 19.2827 20.7335 18.8667 20.259 18.6295L19.8944 18.4472C19.3062 18.1531 18.6576 18 18 18L19 17H18.2426C17.447 17 16.6839 17.3161 16.1213 17.8787L16 18V17.4142Z" fill="#FBBC33"/>
<path d="M21 23H28V31.125L24.5 33L21 31.125L21 23Z" fill="#00599A"/>
<path fill-rule="evenodd" clip-rule="evenodd" d="M20 22H29V31.7237L24.5 34.1345L20 31.7237V22ZM21 31.125V23H28V31.125L24.5 33L21 31.125Z" fill="#FBBC33"/>
<path d="M23.6542 27.0855C23.4521 27.0868 23.2869 27.1183 23.1531 27.173C22.8319 26.6108 21.8749 26.7861 22.1217 27.864C22.2322 28.3466 22 28.4859 22 28.4859C22 28.4859 22.5004 28.6116 22.6581 28.1007C22.6752 28.3947 22.7713 28.7012 22.8878 28.9431C22.8436 29.4149 22.8419 30.0459 23.0156 30.6708H22.5743C22.3306 30.6708 22.1331 30.4469 22.1331 30.1708V30.4086C22.1331 31.1883 23.0156 31.1708 23.0156 31.1708C24.2547 31.93 25.5173 31.6345 26.2798 31.1443L26.3868 31.3591L26.5405 31.2608L26.4306 31.0402C26.8363 30.739 27.0571 30.3912 26.9872 30.1708C26.9268 29.9803 26.7063 29.8028 26.4851 29.6248C26.253 29.438 26.0201 29.2505 25.9706 29.0467C25.9062 28.7818 25.8191 28.5237 25.7099 28.2764L25.6633 28.1708C25.918 27.3521 26.5459 27.6708 26.5459 28.1708L26.9872 28.1708C26.9872 27.6708 26.5459 26.6708 25.6633 27.1708C25.6633 26.6708 25.6886 26.2501 25.918 26.1201C26.1619 25.9819 26.3117 26.208 26.4153 26.3644C26.5031 26.4969 26.5577 26.5793 26.6082 26.3471C26.6555 26.1297 26.6472 25.9003 26.5459 25.6708C26.0884 24.634 25.2298 25.7302 25.2298 25.7302C25.2298 25.1708 24.9781 24.9505 24.7808 24.9505C25.2221 24.6708 25.1184 24.1708 24.7808 24.1708C24.3749 24.1708 24.3395 24.6708 24.3982 24.9505C24.3982 24.9505 24.0392 25.0077 23.687 25.1962L23.3283 24.4822L23.2035 24.5613L23.1734 24.501L23.0197 24.5993L23.4088 25.3804C23.1868 25.5636 23.0156 25.8189 23.0156 26.1708C23.0156 26.7946 23.8982 26.6708 23.8982 26.6708L23.6542 27.0855Z" fill="#FBBC33"/>
</g>
</g>
<defs>
<filter id="filter0_d_217_502" x="7" y="6.79291" width="35" height="35.7071" filterUnits="userSpaceOnUse" color-interpolation-filters="sRGB">
<feFlood flood-opacity="0" result="BackgroundImageFix"/>
<feColorMatrix in="SourceAlpha" type="matrix" values="0 0 0 0 0 0 0 0 0 0 0 0 0 0 0 0 0 0 127 0" result="hardAlpha"/>
<feOffset dy="1"/>
<feComposite in2="hardAlpha" operator="out"/>
<feColorMatrix type="matrix" values="0 0 0 0 0 0 0 0 0 0 0 0 0 0 0 0 0 0 0.3 0"/>
<feBlend mode="normal" in2="BackgroundImageFix" result="effect1_dropShadow_217_502"/>
<feBlend mode="normal" in="SourceGraphic" in2="effect1_dropShadow_217_502" result="shape"/>
</filter>
<clipPath id="clip0_217_502">
<rect width="48" height="48" rx="24" fill="white"/>
</clipPath>
</defs>
</svg>
