<svg width="47" height="47" viewBox="0 0 47 47" fill="none" xmlns="http://www.w3.org/2000/svg">
<g filter="url(#filter0_b_1204_32550)">
<rect width="47" height="47" rx="5" fill="#EEEEEE"/>
<path d="M12.625 34.75C12.125 34.75 11.6875 34.5625 11.3125 34.1875C10.9375 33.8125 10.75 33.375 10.75 32.875V14.125C10.75 13.625 10.9375 13.1875 11.3125 12.8125C11.6875 12.4375 12.125 12.25 12.625 12.25H34.375C34.875 12.25 35.3125 12.4375 35.6875 12.8125C36.0625 13.1875 36.25 13.625 36.25 14.125V32.875C36.25 33.375 36.0625 33.8125 35.6875 34.1875C35.3125 34.5625 34.875 34.75 34.375 34.75H12.625ZM12.625 32.875H34.375V14.125H12.625V32.875ZM14.75 29.75H21V27.25H14.75V29.75ZM26.6875 27.25L32.875 21.0625L31.0937 19.2812L26.6875 23.7188L24.9062 21.9375L23.1562 23.7188L26.6875 27.25ZM14.75 24.75H21V22.25H14.75V24.75ZM14.75 19.75H21V17.25H14.75V19.75Z" fill="#242A1F"/>
</g>
<defs>
<filter id="filter0_b_1204_32550" x="-5.86467" y="-5.86467" width="58.7293" height="58.7293" filterUnits="userSpaceOnUse" color-interpolation-filters="sRGB">
<feFlood flood-opacity="0" result="BackgroundImageFix"/>
<feGaussianBlur in="BackgroundImageFix" stdDeviation="2.93234"/>
<feComposite in2="SourceAlpha" operator="in" result="effect1_backgroundBlur_1204_32550"/>
<feBlend mode="normal" in="SourceGraphic" in2="effect1_backgroundBlur_1204_32550" result="shape"/>
</filter>
</defs>
</svg>
