<svg width="48" height="48" viewBox="0 0 48 48" fill="none" xmlns="http://www.w3.org/2000/svg">
<g filter="url(#filter0_b_914_37491)">
<rect x="0.5" y="0.111328" width="47" height="47" rx="5" fill="#EEEEEE"/>
<g clip-path="url(#clip0_914_37491)">
<path d="M11.4375 28.6113V25.6738C11.4375 24.9447 11.625 24.2832 12 23.6895C12.375 23.0957 12.8958 22.653 13.5625 22.3613C14.8125 21.8197 16.0938 21.3717 17.4063 21.0176C18.7188 20.6634 20.0625 20.4863 21.4375 20.4863C22.5089 20.4863 23.5685 20.5957 24.6161 20.8145C25.6637 21.0332 26.6875 21.3301 27.6875 21.7051C27.4583 21.9342 27.2391 22.1711 27.0297 22.4157C26.8202 22.6603 26.6333 22.9234 26.4688 23.2051C25.6563 22.9134 24.831 22.6999 23.9931 22.5645C23.1552 22.429 22.3033 22.3613 21.4375 22.3613C20.1875 22.3613 18.9688 22.5176 17.7813 22.8301C16.5938 23.1426 15.4375 23.5488 14.3125 24.0488C14 24.1947 13.7552 24.4131 13.5781 24.704C13.401 24.995 13.3125 25.3182 13.3125 25.6738V26.7363H25.2813C25.2604 27.0488 25.2604 27.3613 25.2813 27.6738C25.3021 27.9863 25.3333 28.2988 25.375 28.6113H11.4375ZM21.4375 18.5801C20.125 18.5801 19.0156 18.127 18.1094 17.2207C17.2031 16.3145 16.75 15.2051 16.75 13.8926C16.75 12.5801 17.2031 11.4707 18.1094 10.5645C19.0156 9.6582 20.125 9.20508 21.4375 9.20508C22.75 9.20508 23.8594 9.6582 24.7656 10.5645C25.6719 11.4707 26.125 12.5801 26.125 13.8926C26.125 15.2051 25.6719 16.3145 24.7656 17.2207C23.8594 18.127 22.75 18.5801 21.4375 18.5801ZM21.4375 16.7051C22.2292 16.7051 22.8958 16.4342 23.4375 15.8926C23.9792 15.3509 24.25 14.6842 24.25 13.8926C24.25 13.1009 23.9792 12.4342 23.4375 11.8926C22.8958 11.3509 22.2292 11.0801 21.4375 11.0801C20.6458 11.0801 19.9792 11.3509 19.4375 11.8926C18.8958 12.4342 18.625 13.1009 18.625 13.8926C18.625 14.6842 18.8958 15.3509 19.4375 15.8926C19.9792 16.4342 20.6458 16.7051 21.4375 16.7051ZM32.6875 13.8926C32.6875 15.2051 32.2344 16.3145 31.3281 17.2207C30.4219 18.127 29.3125 18.5801 28 18.5801C27.7292 18.5801 27.4688 18.5697 27.2188 18.5488C26.9688 18.528 26.7188 18.4655 26.4688 18.3613C27.0313 17.7572 27.4271 17.0645 27.6563 16.2832C27.8854 15.502 28 14.7051 28 13.8926C28 13.0801 27.875 12.2884 27.625 11.5176C27.375 10.7467 26.9896 10.0488 26.4688 9.42383C26.7188 9.33268 26.9688 9.27343 27.2188 9.24608C27.4688 9.21875 27.7323 9.20508 28.0094 9.20508C29.3156 9.20508 30.4219 9.6582 31.3281 10.5645C32.2344 11.4707 32.6875 12.5801 32.6875 13.8926ZM33.0477 33.2988C31.4117 33.2988 30.0156 32.7199 28.8594 31.5621C27.7031 30.4043 27.125 29.004 27.125 27.3613C27.125 25.7155 27.7039 24.3145 28.8617 23.1582C30.0195 22.002 31.4198 21.4238 33.0625 21.4238C34.7083 21.4238 36.1094 22.002 37.2656 23.1582C38.4219 24.3145 39 25.7204 39 27.3761C39 29.0121 38.4219 30.4082 37.2656 31.5645C36.1094 32.7207 34.7034 33.2988 33.0477 33.2988ZM31.875 29.9238L36.0625 25.7363L35.4063 25.0801L31.875 28.6113L30.125 26.8301L29.4688 27.4863L31.875 29.9238Z" fill="#242A1F"/>
</g>
</g>
<defs>
<filter id="filter0_b_914_37491" x="-5.36467" y="-5.75335" width="58.7293" height="58.7293" filterUnits="userSpaceOnUse" color-interpolation-filters="sRGB">
<feFlood flood-opacity="0" result="BackgroundImageFix"/>
<feGaussianBlur in="BackgroundImageFix" stdDeviation="2.93234"/>
<feComposite in2="SourceAlpha" operator="in" result="effect1_backgroundBlur_914_37491"/>
<feBlend mode="normal" in="SourceGraphic" in2="effect1_backgroundBlur_914_37491" result="shape"/>
</filter>
<clipPath id="clip0_914_37491">
<rect width="30" height="30" fill="white" transform="translate(9 8.61133)"/>
</clipPath>
</defs>
</svg>
