<svg width="48" height="48" viewBox="0 0 48 48" fill="none" xmlns="http://www.w3.org/2000/svg">
<g filter="url(#filter0_b_914_37486)">
<rect x="0.5" y="0.111328" width="47" height="47" rx="5" fill="#EEEEEE"/>
<path d="M21.0312 25.7363L22.1562 22.1426L19.1875 19.8301H22.8125L24 16.1113L25.1562 19.8301H28.8125L25.8438 22.1426L26.9375 25.7363L24 23.5176L21.0312 25.7363ZM16.625 37.3613V27.8613C15.6875 26.8822 15.0156 25.8092 14.6094 24.6426C14.2031 23.4759 14 22.2988 14 21.1113C14 18.278 14.9583 15.903 16.875 13.9863C18.7917 12.0697 21.1667 11.1113 24 11.1113C26.8333 11.1113 29.2083 12.0697 31.125 13.9863C33.0417 15.903 34 18.278 34 21.1113C34 22.2988 33.7969 23.4759 33.3906 24.6426C32.9844 25.8092 32.3125 26.8822 31.375 27.8613V37.3613L24 34.8926L16.625 37.3613ZM24 29.2363C26.2708 29.2363 28.1927 28.4499 29.7656 26.877C31.3385 25.304 32.125 23.3822 32.125 21.1113C32.125 18.8405 31.3385 16.9186 29.7656 15.3457C28.1927 13.7728 26.2708 12.9863 24 12.9863C21.7292 12.9863 19.8073 13.7728 18.2344 15.3457C16.6615 16.9186 15.875 18.8405 15.875 21.1113C15.875 23.3822 16.6615 25.304 18.2344 26.877C19.8073 28.4499 21.7292 29.2363 24 29.2363ZM18.5 34.7363L24 33.0176L29.5 34.7363V29.3926C28.6667 29.9967 27.7708 30.4342 26.8125 30.7051C25.8542 30.9759 24.9167 31.1113 24 31.1113C23.0833 31.1113 22.1458 30.9759 21.1875 30.7051C20.2292 30.4342 19.3333 29.9967 18.5 29.3926V34.7363Z" fill="#242A1F"/>
</g>
<defs>
<filter id="filter0_b_914_37486" x="-5.36467" y="-5.75335" width="58.7293" height="58.7293" filterUnits="userSpaceOnUse" color-interpolation-filters="sRGB">
<feFlood flood-opacity="0" result="BackgroundImageFix"/>
<feGaussianBlur in="BackgroundImageFix" stdDeviation="2.93234"/>
<feComposite in2="SourceAlpha" operator="in" result="effect1_backgroundBlur_914_37486"/>
<feBlend mode="normal" in="SourceGraphic" in2="effect1_backgroundBlur_914_37486" result="shape"/>
</filter>
</defs>
</svg>
