<svg width="48" height="48" viewBox="0 0 48 48" fill="none" xmlns="http://www.w3.org/2000/svg">
<g filter="url(#filter0_b_914_37481)">
<rect x="0.5" y="0.111328" width="47" height="47" rx="5" fill="#EEEEEE"/>
<path d="M13.7266 34.4867C13.2432 34.4867 12.8203 34.3054 12.4578 33.9429C12.0953 33.5804 11.9141 33.1575 11.9141 32.6742V18.1742C11.9141 17.6908 12.0953 17.2679 12.4578 16.9054C12.8203 16.5429 13.2432 16.3617 13.7266 16.3617H19.1641V13.3408C19.1641 12.8776 19.3453 12.4597 19.7078 12.0872C20.0703 11.7146 20.4932 11.5283 20.9766 11.5283H27.0182C27.5016 11.5283 27.9245 11.7146 28.287 12.0872C28.6495 12.4597 28.8307 12.8776 28.8307 13.3408V16.3617H34.2682C34.7516 16.3617 35.1745 16.5429 35.537 16.9054C35.8995 17.2679 36.0807 17.6908 36.0807 18.1742V24.971C35.7988 24.7495 35.5118 24.5481 35.2198 24.3669C34.9278 24.1856 34.6106 24.0144 34.2682 23.8533V18.1742H13.7266V32.6742H23.8161C23.8967 32.9964 23.9974 33.3085 24.1182 33.6106C24.2391 33.9127 24.38 34.2047 24.5411 34.4867H13.7266ZM20.9766 16.3617H27.0182V13.3408H20.9766V16.3617ZM31.2474 36.6919C29.6564 36.6919 28.287 36.1179 27.1391 34.97C25.9911 33.8221 25.4172 32.4526 25.4172 30.8617C25.4172 29.2707 25.9911 27.9012 27.1391 26.7533C28.287 25.6054 29.6564 25.0314 31.2474 25.0314C32.8384 25.0314 34.2078 25.6054 35.3557 26.7533C36.5036 27.9012 37.0776 29.2707 37.0776 30.8617C37.0776 32.4526 36.5036 33.8221 35.3557 34.97C34.2078 36.1179 32.8384 36.6919 31.2474 36.6919ZM31.7609 30.8012V27.0554H30.4922V31.157L33.4828 33.9127L34.2984 33.0971L31.7609 30.8012Z" fill="#242A1F"/>
</g>
<defs>
<filter id="filter0_b_914_37481" x="-5.36467" y="-5.75335" width="58.7293" height="58.7293" filterUnits="userSpaceOnUse" color-interpolation-filters="sRGB">
<feFlood flood-opacity="0" result="BackgroundImageFix"/>
<feGaussianBlur in="BackgroundImageFix" stdDeviation="2.93234"/>
<feComposite in2="SourceAlpha" operator="in" result="effect1_backgroundBlur_914_37481"/>
<feBlend mode="normal" in="SourceGraphic" in2="effect1_backgroundBlur_914_37481" result="shape"/>
</filter>
</defs>
</svg>
