<svg width="47" height="48" viewBox="0 0 47 48" fill="none" xmlns="http://www.w3.org/2000/svg">
<g filter="url(#filter0_b_1204_10386)">
<rect y="0.736328" width="47" height="47" rx="5" fill="#EEEEEE"/>
<path d="M32.5 35.4863L24.6562 27.6426L26.4375 25.8613L34.2812 33.7051L32.5 35.4863ZM14.3438 35.4863L12.5625 33.7051L21.625 24.6426L18.2812 21.2988L17.5625 22.0176L16.1875 20.6426V23.2988L15.4375 24.0488L11.625 20.2363L12.375 19.4863H15.0625L13.5625 17.9863L17.6562 13.8926C18.0104 13.5384 18.3958 13.2988 18.8125 13.1738C19.2292 13.0488 19.6875 12.9863 20.1875 12.9863C20.6875 12.9863 21.1458 13.0749 21.5625 13.252C21.9792 13.429 22.3646 13.6947 22.7188 14.0488L19.375 17.3926L20.875 18.8926L20.125 19.6426L23.375 22.8926L27.1875 19.0801C27.0208 18.8092 26.8906 18.4967 26.7969 18.1426C26.7031 17.7884 26.6562 17.4134 26.6562 17.0176C26.6562 15.9134 27.0573 14.9603 27.8594 14.1582C28.6615 13.3561 29.6146 12.9551 30.7188 12.9551C31.0312 12.9551 31.2969 12.9863 31.5156 13.0488C31.7344 13.1113 31.9167 13.1947 32.0625 13.2988L29.4062 15.9551L31.75 18.2988L34.4062 15.6426C34.5104 15.8092 34.599 16.0124 34.6719 16.252C34.7448 16.4915 34.7812 16.7676 34.7812 17.0801C34.7812 18.1842 34.3802 19.1374 33.5781 19.9395C32.776 20.7415 31.8229 21.1426 30.7188 21.1426C30.3438 21.1426 30.0208 21.1165 29.75 21.0645C29.4792 21.0124 29.2292 20.9342 29 20.8301L14.3438 35.4863Z" fill="#242A1F"/>
</g>
<defs>
<filter id="filter0_b_1204_10386" x="-5.86467" y="-5.12835" width="58.7293" height="58.7293" filterUnits="userSpaceOnUse" color-interpolation-filters="sRGB">
<feFlood flood-opacity="0" result="BackgroundImageFix"/>
<feGaussianBlur in="BackgroundImageFix" stdDeviation="2.93234"/>
<feComposite in2="SourceAlpha" operator="in" result="effect1_backgroundBlur_1204_10386"/>
<feBlend mode="normal" in="SourceGraphic" in2="effect1_backgroundBlur_1204_10386" result="shape"/>
</filter>
</defs>
</svg>
