<svg width="47" height="48" viewBox="0 0 47 48" fill="none" xmlns="http://www.w3.org/2000/svg">
<g filter="url(#filter0_b_1204_10391)">
<rect y="0.736328" width="47" height="47" rx="5" fill="#EEEEEE"/>
<path d="M15.948 36.3197V34.5072H22.5938V29.0697H19.875C18.2035 29.0697 16.7787 28.4806 15.6006 27.3025C14.4224 26.1244 13.8334 24.6995 13.8334 23.028C13.8334 21.8197 14.1657 20.707 14.8302 19.69C15.4948 18.673 16.391 17.9329 17.5188 17.4697C17.7 15.9592 18.3596 14.6955 19.4974 13.6785C20.6353 12.6615 21.9695 12.153 23.5 12.153C25.0306 12.153 26.3648 12.6615 27.5026 13.6785C28.6405 14.6955 29.3 15.9592 29.4813 17.4697C30.6091 17.9329 31.5053 18.673 32.1698 19.69C32.8344 20.707 33.1667 21.8197 33.1667 23.028C33.1667 24.6995 32.5776 26.1244 31.3995 27.3025C30.2214 28.4806 28.7966 29.0697 27.125 29.0697H24.4063V34.5072H31.3542V36.3197H15.948ZM19.875 27.2572H27.125C28.2998 27.2572 29.2984 26.846 30.1207 26.0237C30.943 25.2013 31.3542 24.2028 31.3542 23.028C31.3542 22.1822 31.1125 21.4119 30.6292 20.7171C30.1459 20.0223 29.5216 19.5037 28.7563 19.1613L27.7896 18.7384L27.6688 17.6811C27.5278 16.6138 27.0628 15.7277 26.2737 15.0228C25.4846 14.3179 24.56 13.9655 23.5 13.9655C22.4401 13.9655 21.5155 14.3179 20.7264 15.0228C19.9373 15.7277 19.4723 16.6138 19.3313 17.6811L19.2105 18.7384L18.2438 19.1613C17.4785 19.5037 16.8542 20.0245 16.3709 20.7239C15.8875 21.4232 15.6459 22.1925 15.6459 23.0317C15.6459 24.1973 16.057 25.1929 16.8794 26.0186C17.7017 26.8443 18.7003 27.2572 19.875 27.2572Z" fill="#242A1F"/>
</g>
<defs>
<filter id="filter0_b_1204_10391" x="-5.86467" y="-5.12835" width="58.7293" height="58.7293" filterUnits="userSpaceOnUse" color-interpolation-filters="sRGB">
<feFlood flood-opacity="0" result="BackgroundImageFix"/>
<feGaussianBlur in="BackgroundImageFix" stdDeviation="2.93234"/>
<feComposite in2="SourceAlpha" operator="in" result="effect1_backgroundBlur_1204_10391"/>
<feBlend mode="normal" in="SourceGraphic" in2="effect1_backgroundBlur_1204_10391" result="shape"/>
</filter>
</defs>
</svg>
