<svg width="46" height="49" viewBox="0 0 46 49" fill="none" xmlns="http://www.w3.org/2000/svg">
<rect y="0.699219" width="46" height="48" rx="23" fill="#82C853"/>
<path d="M7.35831 30.6992V18.3356H11.7653C12.7272 18.3356 13.524 18.5107 14.1559 18.8608C14.7878 19.2109 15.2607 19.6899 15.5746 20.2976C15.8885 20.9013 16.0455 21.5814 16.0455 22.3381C16.0455 23.0987 15.8865 23.7829 15.5685 24.3906C15.2546 24.9943 14.7797 25.4732 14.1438 25.8274C13.512 26.1776 12.7171 26.3526 11.7592 26.3526H8.72869V24.771H11.5902C12.1979 24.771 12.6909 24.6663 13.0692 24.457C13.4476 24.2437 13.7253 23.954 13.9023 23.5877C14.0794 23.2215 14.168 22.8049 14.168 22.3381C14.168 21.8712 14.0794 21.4567 13.9023 21.0945C13.7253 20.7322 13.4455 20.4485 13.0632 20.2433C12.6849 20.038 12.1858 19.9354 11.5661 19.9354H9.22372V30.6992H7.35831ZM26.5995 22.2415C26.4828 21.8752 26.3258 21.5472 26.1286 21.2575C25.9355 20.9637 25.704 20.7141 25.4344 20.5089C25.1647 20.2996 24.8569 20.1406 24.5107 20.032C24.1686 19.9233 23.7923 19.869 23.3818 19.869C22.6856 19.869 22.0577 20.0481 21.4983 20.4062C20.9389 20.7644 20.4962 21.2897 20.1702 21.9819C19.8482 22.6701 19.6872 23.5133 19.6872 24.5114C19.6872 25.5135 19.8502 26.3607 20.1762 27.0529C20.5022 27.7451 20.949 28.2704 21.5164 28.6286C22.0839 28.9867 22.7298 29.1658 23.4543 29.1658C24.1264 29.1658 24.712 29.029 25.211 28.7553C25.7141 28.4817 26.1025 28.0953 26.3762 27.5962C26.6539 27.0932 26.7927 26.5015 26.7927 25.8214L27.2757 25.9119H23.738V24.3725H28.5977V25.7791C28.5977 26.8175 28.3764 27.719 27.9337 28.4837C27.495 29.2443 26.8873 29.8319 26.1105 30.2464C25.3378 30.661 24.4524 30.8683 23.4543 30.8683C22.3354 30.8683 21.3534 30.6107 20.5083 30.0955C19.6671 29.5804 19.0111 28.8499 18.5402 27.9041C18.0693 26.9543 17.8339 25.8274 17.8339 24.5234C17.8339 23.5374 17.9707 22.652 18.2444 21.8672C18.5181 21.0824 18.9024 20.4163 19.3975 19.869C19.8965 19.3176 20.4821 18.897 21.1542 18.6072C21.8303 18.3134 22.5689 18.1665 23.3698 18.1665C24.0378 18.1665 24.6597 18.2652 25.2352 18.4624C25.8147 18.6596 26.3299 18.9393 26.7806 19.3015C27.2354 19.6637 27.6117 20.0943 27.9095 20.5934C28.2074 21.0884 28.4086 21.6378 28.5132 22.2415H26.5995ZM30.9657 30.6992V18.3356H38.6326V19.9414H32.8311V23.7085H38.0833V25.3082H32.8311V30.6992H30.9657Z" fill="white"/>
</svg>
