<svg width="28" height="28" viewBox="0 0 28 28" fill="none" xmlns="http://www.w3.org/2000/svg">
<g clip-path="url(#clip0_1204_27097)">
<path d="M6.65014 2.5459C6.01614 2.5459 5.4081 2.80335 4.95979 3.26162C4.51148 3.71989 4.25963 4.34144 4.25963 4.98953V14.0514C4.63314 13.8559 5.05646 13.7459 5.50469 13.7459H5.7537V4.98953C5.7537 4.7465 5.84814 4.51342 6.01626 4.34157C6.18438 4.16972 6.41239 4.07317 6.65014 4.07317H14.2201V10.6914C14.2201 11.2314 14.43 11.7494 14.8036 12.1313C15.1772 12.5132 15.6839 12.7277 16.2122 12.7277H22.6865V24.5386C22.6865 24.7817 22.5921 25.0147 22.4239 25.1866C22.2558 25.3584 22.0278 25.455 21.7901 25.455H14.2201C13.8038 25.7747 13.2868 25.9641 12.726 25.9641V26.2186C12.726 26.4834 12.6902 26.7399 12.6224 26.9823H21.7901C22.4241 26.9823 23.0321 26.7248 23.4804 26.2665C23.9287 25.8083 24.1806 25.1867 24.1806 24.5386V12.298C24.1806 11.5558 23.8917 10.8441 23.3788 10.3187L16.4752 3.26168C16.0269 2.8034 15.4189 2.54593 14.7849 2.5459H6.65014ZM22.1287 11.2004H16.2122C16.0801 11.2004 15.9534 11.1468 15.86 11.0513C15.7666 10.9559 15.7142 10.8264 15.7142 10.6914V4.64335L22.1287 11.2004ZM5.50469 14.7641C5.04239 14.7641 4.59903 14.9518 4.27214 15.286C3.94525 15.6201 3.7616 16.0733 3.7616 16.5459V17.8186H3.26358C2.73524 17.8186 2.22855 18.0332 1.85496 18.4151C1.48137 18.797 1.27148 19.3149 1.27148 19.855V23.4186C1.27148 23.8237 1.4289 24.2122 1.70909 24.4986C1.98928 24.785 2.3693 24.9459 2.76556 24.9459H3.7616V26.2186C3.7616 27.2022 4.5425 28.0004 5.50469 28.0004H9.9869C10.4492 28.0004 10.8926 27.8127 11.2194 27.4786C11.5463 27.1444 11.73 26.6912 11.73 26.2186V24.9459H12.726C13.1223 24.9459 13.5023 24.785 13.7825 24.4986C14.0627 24.2122 14.2201 23.8237 14.2201 23.4186V19.855C14.2201 19.3149 14.0102 18.797 13.6366 18.4151C13.263 18.0332 12.7563 17.8186 12.228 17.8186H11.73V16.5459C11.73 16.0733 11.5463 15.6201 11.2194 15.286C10.8926 14.9518 10.4492 14.7641 9.9869 14.7641H5.50469ZM5.25567 17.8186V16.5459C5.25567 16.4784 5.28191 16.4136 5.32861 16.3659C5.37531 16.3182 5.43864 16.2914 5.50469 16.2914H9.9869C10.0529 16.2914 10.1163 16.3182 10.163 16.3659C10.2097 16.4136 10.2359 16.4784 10.2359 16.5459V17.8186H5.25567ZM5.25567 23.6732C5.25567 23.6057 5.28191 23.5409 5.32861 23.4932C5.37531 23.4454 5.43864 23.4186 5.50469 23.4186H9.9869C10.0529 23.4186 10.1163 23.4454 10.163 23.4932C10.2097 23.5409 10.2359 23.6057 10.2359 23.6732V26.2186C10.2359 26.2861 10.2097 26.3509 10.163 26.3986C10.1163 26.4464 10.0529 26.4732 9.9869 26.4732H5.50469C5.43864 26.4732 5.37531 26.4464 5.32861 26.3986C5.28191 26.3509 5.25567 26.2861 5.25567 26.2186V23.6732Z" fill="#242A1F"/>
</g>
<defs>
<clipPath id="clip0_1204_27097">
<rect width="28" height="28" fill="white" transform="translate(-0.00195312)"/>
</clipPath>
</defs>
</svg>
