<svg width="31" height="31" viewBox="0 0 31 31" fill="none" xmlns="http://www.w3.org/2000/svg">
<path d="M9.5625 26.541V22.4785H6.75V20.6035H9.5625V17.166H6.75V15.291H9.5625V4.04102H17.6875C19.517 4.04102 21.0682 4.67777 22.3409 5.95127C23.6136 7.22477 24.25 8.77685 24.25 10.6075C24.25 12.4382 23.6136 13.9889 22.3409 15.2598C21.0682 16.5306 19.517 17.166 17.6875 17.166H11.4375V20.6035H16.75V22.4785H11.4375V26.541H9.5625ZM11.4375 15.291H17.6875C19 15.291 20.1094 14.8379 21.0156 13.9316C21.9219 13.0254 22.375 11.916 22.375 10.6035C22.375 9.29102 21.9219 8.18164 21.0156 7.27539C20.1094 6.36914 19 5.91602 17.6875 5.91602H11.4375V15.291Z" fill="#242A1F"/>
</svg>
