<svg width="44" height="45" viewBox="0 0 44 45" fill="none" xmlns="http://www.w3.org/2000/svg">
<g filter="url(#filter0_b_1204_14568)">
<rect y="0.824219" width="44" height="44" rx="5" fill="#EEEEEE"/>
<path d="M21.85 22.6741C22.2833 22.1408 22.6042 21.5908 22.8125 21.0241C23.0208 20.4575 23.125 19.7991 23.125 19.0491C23.125 18.2991 23.0208 17.6408 22.8125 17.0741C22.6042 16.5075 22.2833 15.9575 21.85 15.4241C23.1167 15.1408 24.2292 15.3325 25.1875 15.9991C26.1458 16.6658 26.625 17.6825 26.625 19.0491C26.625 20.4158 26.1458 21.4325 25.1875 22.0991C24.2292 22.7658 23.1167 22.9575 21.85 22.6741ZM27.25 30.8241V28.4741C27.25 27.6241 27.0333 26.8325 26.6 26.0991C26.1667 25.3658 25.4167 24.7491 24.35 24.2491C27.2333 24.6158 29.2042 25.1491 30.2625 25.8491C31.3208 26.5491 31.85 27.4241 31.85 28.4741V30.8241H27.25ZM30 23.5991V21.0991H27.5V19.5991H30V17.0991H31.5V19.5991H34V21.0991H31.5V23.5991H30ZM17.875 22.7991C16.775 22.7991 15.875 22.4491 15.175 21.7491C14.475 21.0491 14.125 20.1491 14.125 19.0491C14.125 17.9491 14.475 17.0491 15.175 16.3491C15.875 15.6491 16.775 15.2991 17.875 15.2991C18.975 15.2991 19.875 15.6491 20.575 16.3491C21.275 17.0491 21.625 17.9491 21.625 19.0491C21.625 20.1491 21.275 21.0491 20.575 21.7491C19.875 22.4491 18.975 22.7991 17.875 22.7991ZM10 30.8241V28.4741C10 27.8908 10.1542 27.3616 10.4625 26.8866C10.7708 26.4116 11.1833 26.0575 11.7 25.8241C12.9 25.2908 13.9708 24.9075 14.9125 24.6741C15.8542 24.4408 16.8417 24.3241 17.875 24.3241C18.9083 24.3241 19.8917 24.4408 20.825 24.6741C21.7583 24.9075 22.825 25.2908 24.025 25.8241C24.5417 26.0575 24.9583 26.4116 25.275 26.8866C25.5917 27.3616 25.75 27.8908 25.75 28.4741V30.8241H10ZM17.875 21.2991C18.525 21.2991 19.0625 21.0866 19.4875 20.6616C19.9125 20.2366 20.125 19.6991 20.125 19.0491C20.125 18.3991 19.9125 17.8616 19.4875 17.4366C19.0625 17.0116 18.525 16.7991 17.875 16.7991C17.225 16.7991 16.6875 17.0116 16.2625 17.4366C15.8375 17.8616 15.625 18.3991 15.625 19.0491C15.625 19.6991 15.8375 20.2366 16.2625 20.6616C16.6875 21.0866 17.225 21.2991 17.875 21.2991ZM11.5 29.3241H24.25V28.4741C24.25 28.2075 24.1833 27.9575 24.05 27.7241C23.9167 27.4908 23.7083 27.3075 23.425 27.1741C22.275 26.6408 21.3 26.2825 20.5 26.0991C19.7 25.9158 18.825 25.8241 17.875 25.8241C16.925 25.8241 16.0542 25.9158 15.2625 26.0991C14.4708 26.2825 13.4833 26.6408 12.3 27.1741C12.05 27.2908 11.8542 27.47 11.7125 27.7116C11.5708 27.9533 11.5 28.2075 11.5 28.4741V29.3241Z" fill="#242A1F"/>
</g>
<defs>
<filter id="filter0_b_1204_14568" x="-5.86467" y="-5.04046" width="55.7293" height="55.7293" filterUnits="userSpaceOnUse" color-interpolation-filters="sRGB">
<feFlood flood-opacity="0" result="BackgroundImageFix"/>
<feGaussianBlur in="BackgroundImageFix" stdDeviation="2.93234"/>
<feComposite in2="SourceAlpha" operator="in" result="effect1_backgroundBlur_1204_14568"/>
<feBlend mode="normal" in="SourceGraphic" in2="effect1_backgroundBlur_1204_14568" result="shape"/>
</filter>
</defs>
</svg>
