<svg width="31" height="31" viewBox="0 0 31 31" fill="none" xmlns="http://www.w3.org/2000/svg">
<path d="M15.3125 15.1035C15.8542 14.4368 16.2552 13.7493 16.5156 13.041C16.776 12.3327 16.9062 11.5098 16.9062 10.5723C16.9062 9.63476 16.776 8.81185 16.5156 8.10351C16.2552 7.39518 15.8542 6.70768 15.3125 6.04101C16.8958 5.68684 18.2865 5.92643 19.4844 6.75976C20.6823 7.59309 21.2812 8.86393 21.2812 10.5723C21.2812 12.2806 20.6823 13.5514 19.4844 14.3848C18.2865 15.2181 16.8958 15.4577 15.3125 15.1035ZM22.0625 25.291V22.3535C22.0625 21.291 21.7917 20.3014 21.25 19.3848C20.7083 18.4681 19.7708 17.6973 18.4375 17.0723C22.0417 17.5306 24.5052 18.1973 25.8281 19.0723C27.151 19.9473 27.8125 21.041 27.8125 22.3535V25.291H22.0625ZM25.5 16.2598V13.1348H22.375V11.2598H25.5V8.13476H27.375V11.2598H30.5V13.1348H27.375V16.2598H25.5ZM10.3438 15.2598C8.96875 15.2598 7.84375 14.8223 6.96875 13.9473C6.09375 13.0723 5.65625 11.9473 5.65625 10.5723C5.65625 9.19726 6.09375 8.07226 6.96875 7.19726C7.84375 6.32226 8.96875 5.88476 10.3438 5.88476C11.7188 5.88476 12.8438 6.32226 13.7188 7.19726C14.5938 8.07226 15.0312 9.19726 15.0312 10.5723C15.0312 11.9473 14.5938 13.0723 13.7188 13.9473C12.8438 14.8223 11.7188 15.2598 10.3438 15.2598ZM0.5 25.291V22.3535C0.5 21.6243 0.692708 20.9629 1.07812 20.3691C1.46354 19.7754 1.97917 19.3327 2.625 19.041C4.125 18.3743 5.46354 17.8952 6.64062 17.6035C7.81771 17.3118 9.05208 17.166 10.3438 17.166C11.6354 17.166 12.8646 17.3118 14.0312 17.6035C15.1979 17.8952 16.5312 18.3743 18.0312 19.041C18.6771 19.3327 19.1979 19.7754 19.5938 20.3691C19.9896 20.9629 20.1875 21.6243 20.1875 22.3535V25.291H0.5ZM10.3438 13.3848C11.1562 13.3848 11.8281 13.1191 12.3594 12.5879C12.8906 12.0566 13.1562 11.3848 13.1562 10.5723C13.1562 9.75976 12.8906 9.08789 12.3594 8.55664C11.8281 8.02539 11.1562 7.75976 10.3438 7.75976C9.53125 7.75976 8.85938 8.02539 8.32812 8.55664C7.79688 9.08789 7.53125 9.75976 7.53125 10.5723C7.53125 11.3848 7.79688 12.0566 8.32812 12.5879C8.85938 13.1191 9.53125 13.3848 10.3438 13.3848ZM2.375 23.416H18.3125V22.3535C18.3125 22.0202 18.2292 21.7077 18.0625 21.416C17.8958 21.1243 17.6354 20.8952 17.2812 20.7285C15.8438 20.0618 14.625 19.6139 13.625 19.3848C12.625 19.1556 11.5312 19.041 10.3438 19.041C9.15625 19.041 8.06771 19.1556 7.07812 19.3848C6.08854 19.6139 4.85417 20.0618 3.375 20.7285C3.0625 20.8743 2.81771 21.0983 2.64062 21.4004C2.46354 21.7025 2.375 22.0202 2.375 22.3535V23.416Z" fill="#242A1F"/>
</svg>
