<svg width="160" height="161" viewBox="0 0 160 161" fill="none" xmlns="http://www.w3.org/2000/svg">
<path d="M6.40094 1.07422H0.960938V6.51422H6.40094V1.07422Z" fill="white"/>
<path d="M11.8404 1.07422H6.40039V6.51422H11.8404V1.07422Z" fill="white"/>
<path d="M17.2798 1.07422H11.8398V6.51422H17.2798V1.07422Z" fill="white"/>
<path d="M22.7213 1.07422H17.2812V6.51422H22.7213V1.07422Z" fill="white"/>
<path d="M28.1588 1.07422H22.7188V6.51422H28.1588V1.07422Z" fill="white"/>
<path d="M33.6002 1.07422H28.1602V6.51422H33.6002V1.07422Z" fill="white"/>
<path d="M39.0396 1.07422H33.5996V6.51422H39.0396V1.07422Z" fill="white"/>
<path d="M66.2408 1.07422H60.8008V6.51422H66.2408V1.07422Z" fill="white"/>
<path d="M82.5591 1.07422H77.1191V6.51422H82.5591V1.07422Z" fill="white"/>
<path d="M93.44 1.07422H88V6.51422H93.44V1.07422Z" fill="white"/>
<path d="M104.321 1.07422H98.8809V6.51422H104.321V1.07422Z" fill="white"/>
<path d="M115.2 1.07422H109.76V6.51422H115.2V1.07422Z" fill="white"/>
<path d="M126.081 1.07422H120.641V6.51422H126.081V1.07422Z" fill="white"/>
<path d="M131.52 1.07422H126.08V6.51422H131.52V1.07422Z" fill="white"/>
<path d="M136.96 1.07422H131.52V6.51422H136.96V1.07422Z" fill="white"/>
<path d="M142.399 1.07422H136.959V6.51422H142.399V1.07422Z" fill="white"/>
<path d="M147.84 1.07422H142.4V6.51422H147.84V1.07422Z" fill="white"/>
<path d="M153.28 1.07422H147.84V6.51422H153.28V1.07422Z" fill="white"/>
<path d="M158.719 1.07422H153.279V6.51422H158.719V1.07422Z" fill="white"/>
<path d="M6.40094 6.51367H0.960938V11.9537H6.40094V6.51367Z" fill="white"/>
<path d="M39.0396 6.51367H33.5996V11.9537H39.0396V6.51367Z" fill="white"/>
<path d="M66.2408 6.51367H60.8008V11.9537H66.2408V6.51367Z" fill="white"/>
<path d="M71.6802 6.51367H66.2402V11.9537H71.6802V6.51367Z" fill="white"/>
<path d="M109.76 6.51367H104.32V11.9537H109.76V6.51367Z" fill="white"/>
<path d="M115.2 6.51367H109.76V11.9537H115.2V6.51367Z" fill="white"/>
<path d="M126.081 6.51367H120.641V11.9537H126.081V6.51367Z" fill="white"/>
<path d="M158.719 6.51367H153.279V11.9537H158.719V6.51367Z" fill="white"/>
<path d="M6.40094 11.9551H0.960938V17.3951H6.40094V11.9551Z" fill="white"/>
<path d="M17.2798 11.9551H11.8398V17.3951H17.2798V11.9551Z" fill="white"/>
<path d="M22.7213 11.9551H17.2812V17.3951H22.7213V11.9551Z" fill="white"/>
<path d="M28.1588 11.9551H22.7188V17.3951H28.1588V11.9551Z" fill="white"/>
<path d="M39.0396 11.9551H33.5996V17.3951H39.0396V11.9551Z" fill="white"/>
<path d="M55.3599 11.9551H49.9199V17.3951H55.3599V11.9551Z" fill="white"/>
<path d="M60.7994 11.9551H55.3594V17.3951H60.7994V11.9551Z" fill="white"/>
<path d="M66.2408 11.9551H60.8008V17.3951H66.2408V11.9551Z" fill="white"/>
<path d="M77.1197 11.9551H71.6797V17.3951H77.1197V11.9551Z" fill="white"/>
<path d="M82.5611 11.9551H77.1211V17.3951H82.5611V11.9551Z" fill="white"/>
<path d="M87.9986 11.9551H82.5586V17.3951H87.9986V11.9551Z" fill="white"/>
<path d="M93.44 11.9551H88V17.3951H93.44V11.9551Z" fill="white"/>
<path d="M98.8814 11.9551H93.4414V17.3951H98.8814V11.9551Z" fill="white"/>
<path d="M104.319 11.9551H98.8789V17.3951H104.319V11.9551Z" fill="white"/>
<path d="M115.2 11.9551H109.76V17.3951H115.2V11.9551Z" fill="white"/>
<path d="M126.081 11.9551H120.641V17.3951H126.081V11.9551Z" fill="white"/>
<path d="M136.96 11.9551H131.52V17.3951H136.96V11.9551Z" fill="white"/>
<path d="M142.401 11.9551H136.961V17.3951H142.401V11.9551Z" fill="white"/>
<path d="M147.84 11.9551H142.4V17.3951H147.84V11.9551Z" fill="white"/>
<path d="M158.721 11.9551H153.281V17.3951H158.721V11.9551Z" fill="white"/>
<path d="M6.40094 17.3945H0.960938V22.8345H6.40094V17.3945Z" fill="white"/>
<path d="M17.2798 17.3945H11.8398V22.8345H17.2798V17.3945Z" fill="white"/>
<path d="M22.7213 17.3945H17.2812V22.8345H22.7213V17.3945Z" fill="white"/>
<path d="M28.1588 17.3945H22.7188V22.8345H28.1588V17.3945Z" fill="white"/>
<path d="M39.0396 17.3945H33.5996V22.8345H39.0396V17.3945Z" fill="white"/>
<path d="M55.3599 17.3945H49.9199V22.8345H55.3599V17.3945Z" fill="white"/>
<path d="M77.1197 17.3945H71.6797V22.8345H77.1197V17.3945Z" fill="white"/>
<path d="M93.44 17.3945H88V22.8345H93.44V17.3945Z" fill="white"/>
<path d="M104.319 17.3945H98.8789V22.8345H104.319V17.3945Z" fill="white"/>
<path d="M109.76 17.3945H104.32V22.8345H109.76V17.3945Z" fill="white"/>
<path d="M126.081 17.3945H120.641V22.8345H126.081V17.3945Z" fill="white"/>
<path d="M136.96 17.3945H131.52V22.8345H136.96V17.3945Z" fill="white"/>
<path d="M142.401 17.3945H136.961V22.8345H142.401V17.3945Z" fill="white"/>
<path d="M147.84 17.3945H142.4V22.8345H147.84V17.3945Z" fill="white"/>
<path d="M158.721 17.3945H153.281V22.8345H158.721V17.3945Z" fill="white"/>
<path d="M6.40094 22.8359H0.960938V28.2759H6.40094V22.8359Z" fill="white"/>
<path d="M17.2798 22.8359H11.8398V28.2759H17.2798V22.8359Z" fill="white"/>
<path d="M22.7213 22.8359H17.2812V28.2759H22.7213V22.8359Z" fill="white"/>
<path d="M28.1588 22.8359H22.7188V28.2759H28.1588V22.8359Z" fill="white"/>
<path d="M39.0396 22.8359H33.5996V28.2759H39.0396V22.8359Z" fill="white"/>
<path d="M49.9205 22.8359H44.4805V28.2759H49.9205V22.8359Z" fill="white"/>
<path d="M60.7994 22.8359H55.3594V28.2759H60.7994V22.8359Z" fill="white"/>
<path d="M66.2408 22.8359H60.8008V28.2759H66.2408V22.8359Z" fill="white"/>
<path d="M71.6802 22.8359H66.2402V28.2759H71.6802V22.8359Z" fill="white"/>
<path d="M87.9986 22.8359H82.5586V28.2759H87.9986V22.8359Z" fill="white"/>
<path d="M93.44 22.8359H88V28.2759H93.44V22.8359Z" fill="white"/>
<path d="M98.8814 22.8359H93.4414V28.2759H98.8814V22.8359Z" fill="white"/>
<path d="M104.319 22.8359H98.8789V28.2759H104.319V22.8359Z" fill="white"/>
<path d="M109.76 22.8359H104.32V28.2759H109.76V22.8359Z" fill="white"/>
<path d="M115.2 22.8359H109.76V28.2759H115.2V22.8359Z" fill="white"/>
<path d="M126.081 22.8359H120.641V28.2759H126.081V22.8359Z" fill="white"/>
<path d="M136.96 22.8359H131.52V28.2759H136.96V22.8359Z" fill="white"/>
<path d="M142.401 22.8359H136.961V28.2759H142.401V22.8359Z" fill="white"/>
<path d="M147.84 22.8359H142.4V28.2759H147.84V22.8359Z" fill="white"/>
<path d="M158.721 22.8359H153.281V28.2759H158.721V22.8359Z" fill="white"/>
<path d="M6.40094 28.2734H0.960938V33.7134H6.40094V28.2734Z" fill="white"/>
<path d="M39.0396 28.2734H33.5996V33.7134H39.0396V28.2734Z" fill="white"/>
<path d="M60.7994 28.2734H55.3594V33.7134H60.7994V28.2734Z" fill="white"/>
<path d="M66.2408 28.2734H60.8008V33.7134H66.2408V28.2734Z" fill="white"/>
<path d="M77.1197 28.2734H71.6797V33.7134H77.1197V28.2734Z" fill="white"/>
<path d="M82.5611 28.2734H77.1211V33.7134H82.5611V28.2734Z" fill="white"/>
<path d="M87.9986 28.2734H82.5586V33.7134H87.9986V28.2734Z" fill="white"/>
<path d="M109.76 28.2734H104.32V33.7134H109.76V28.2734Z" fill="white"/>
<path d="M115.2 28.2734H109.76V33.7134H115.2V28.2734Z" fill="white"/>
<path d="M126.081 28.2734H120.641V33.7134H126.081V28.2734Z" fill="white"/>
<path d="M158.721 28.2734H153.281V33.7134H158.721V28.2734Z" fill="white"/>
<path d="M6.40094 33.7148H0.960938V39.1548H6.40094V33.7148Z" fill="white"/>
<path d="M11.8404 33.7148H6.40039V39.1548H11.8404V33.7148Z" fill="white"/>
<path d="M17.2798 33.7148H11.8398V39.1548H17.2798V33.7148Z" fill="white"/>
<path d="M22.7213 33.7148H17.2812V39.1548H22.7213V33.7148Z" fill="white"/>
<path d="M28.1588 33.7148H22.7188V39.1548H28.1588V33.7148Z" fill="white"/>
<path d="M33.6002 33.7148H28.1602V39.1548H33.6002V33.7148Z" fill="white"/>
<path d="M39.0396 33.7148H33.5996V39.1548H39.0396V33.7148Z" fill="white"/>
<path d="M49.9205 33.7148H44.4805V39.1548H49.9205V33.7148Z" fill="white"/>
<path d="M60.7994 33.7148H55.3594V39.1548H60.7994V33.7148Z" fill="white"/>
<path d="M71.6802 33.7148H66.2402V39.1548H71.6802V33.7148Z" fill="white"/>
<path d="M82.5611 33.7148H77.1211V39.1548H82.5611V33.7148Z" fill="white"/>
<path d="M93.44 33.7148H88V39.1548H93.44V33.7148Z" fill="white"/>
<path d="M104.319 33.7148H98.8789V39.1548H104.319V33.7148Z" fill="white"/>
<path d="M115.2 33.7148H109.76V39.1548H115.2V33.7148Z" fill="white"/>
<path d="M126.081 33.7148H120.641V39.1548H126.081V33.7148Z" fill="white"/>
<path d="M131.52 33.7148H126.08V39.1548H131.52V33.7148Z" fill="white"/>
<path d="M136.96 33.7148H131.52V39.1548H136.96V33.7148Z" fill="white"/>
<path d="M142.401 33.7148H136.961V39.1548H142.401V33.7148Z" fill="white"/>
<path d="M147.84 33.7148H142.4V39.1548H147.84V33.7148Z" fill="white"/>
<path d="M153.28 33.7148H147.84V39.1548H153.28V33.7148Z" fill="white"/>
<path d="M158.721 33.7148H153.281V39.1548H158.721V33.7148Z" fill="white"/>
<path d="M49.9205 39.1543H44.4805V44.5943H49.9205V39.1543Z" fill="white"/>
<path d="M60.7994 39.1543H55.3594V44.5943H60.7994V39.1543Z" fill="white"/>
<path d="M77.1197 39.1543H71.6797V44.5943H77.1197V39.1543Z" fill="white"/>
<path d="M82.5611 39.1543H77.1211V44.5943H82.5611V39.1543Z" fill="white"/>
<path d="M98.8814 39.1543H93.4414V44.5943H98.8814V39.1543Z" fill="white"/>
<path d="M104.319 39.1543H98.8789V44.5943H104.319V39.1543Z" fill="white"/>
<path d="M109.76 39.1543H104.32V44.5943H109.76V39.1543Z" fill="white"/>
<path d="M115.2 39.1543H109.76V44.5943H115.2V39.1543Z" fill="white"/>
<path d="M17.2798 44.5938H11.8398V50.0338H17.2798V44.5938Z" fill="white"/>
<path d="M22.7213 44.5938H17.2812V50.0338H22.7213V44.5938Z" fill="white"/>
<path d="M39.0396 44.5938H33.5996V50.0338H39.0396V44.5938Z" fill="white"/>
<path d="M44.4791 44.5938H39.0391V50.0338H44.4791V44.5938Z" fill="white"/>
<path d="M49.9205 44.5938H44.4805V50.0338H49.9205V44.5938Z" fill="white"/>
<path d="M60.7994 44.5938H55.3594V50.0338H60.7994V44.5938Z" fill="white"/>
<path d="M66.2408 44.5938H60.8008V50.0338H66.2408V44.5938Z" fill="white"/>
<path d="M77.1197 44.5938H71.6797V50.0338H77.1197V44.5938Z" fill="white"/>
<path d="M93.44 44.5938H88V50.0338H93.44V44.5938Z" fill="white"/>
<path d="M109.76 44.5938H104.32V50.0338H109.76V44.5938Z" fill="white"/>
<path d="M115.2 44.5938H109.76V50.0338H115.2V44.5938Z" fill="white"/>
<path d="M120.639 44.5938H115.199V50.0338H120.639V44.5938Z" fill="white"/>
<path d="M126.081 44.5938H120.641V50.0338H126.081V44.5938Z" fill="white"/>
<path d="M136.96 44.5938H131.52V50.0338H136.96V44.5938Z" fill="white"/>
<path d="M6.40094 50.0332H0.960938V55.4732H6.40094V50.0332Z" fill="white"/>
<path d="M22.7213 50.0332H17.2812V55.4732H22.7213V50.0332Z" fill="white"/>
<path d="M28.1588 50.0332H22.7188V55.4732H28.1588V50.0332Z" fill="white"/>
<path d="M33.6002 50.0332H28.1602V55.4732H33.6002V50.0332Z" fill="white"/>
<path d="M44.4791 50.0332H39.0391V55.4732H44.4791V50.0332Z" fill="white"/>
<path d="M49.9205 50.0332H44.4805V55.4732H49.9205V50.0332Z" fill="white"/>
<path d="M77.1197 50.0332H71.6797V55.4732H77.1197V50.0332Z" fill="white"/>
<path d="M93.44 50.0332H88V55.4732H93.44V50.0332Z" fill="white"/>
<path d="M120.639 50.0332H115.199V55.4732H120.639V50.0332Z" fill="white"/>
<path d="M136.96 50.0332H131.52V55.4732H136.96V50.0332Z" fill="white"/>
<path d="M153.28 50.0332H147.84V55.4732H153.28V50.0332Z" fill="white"/>
<path d="M22.7213 55.4727H17.2812V60.9127H22.7213V55.4727Z" fill="white"/>
<path d="M33.6002 55.4727H28.1602V60.9127H33.6002V55.4727Z" fill="white"/>
<path d="M39.0396 55.4727H33.5996V60.9127H39.0396V55.4727Z" fill="white"/>
<path d="M55.3599 55.4727H49.9199V60.9127H55.3599V55.4727Z" fill="white"/>
<path d="M71.6802 55.4727H66.2402V60.9127H71.6802V55.4727Z" fill="white"/>
<path d="M77.1197 55.4727H71.6797V60.9127H77.1197V55.4727Z" fill="white"/>
<path d="M87.9986 55.4727H82.5586V60.9127H87.9986V55.4727Z" fill="white"/>
<path d="M98.8814 55.4727H93.4414V60.9127H98.8814V55.4727Z" fill="white"/>
<path d="M131.52 55.4727H126.08V60.9127H131.52V55.4727Z" fill="white"/>
<path d="M142.401 55.4727H136.961V60.9127H142.401V55.4727Z" fill="white"/>
<path d="M6.40094 60.9141H0.960938V66.3541H6.40094V60.9141Z" fill="white"/>
<path d="M17.2798 60.9141H11.8398V66.3541H17.2798V60.9141Z" fill="white"/>
<path d="M22.7213 60.9141H17.2812V66.3541H22.7213V60.9141Z" fill="white"/>
<path d="M33.6002 60.9141H28.1602V66.3541H33.6002V60.9141Z" fill="white"/>
<path d="M60.7994 60.9141H55.3594V66.3541H60.7994V60.9141Z" fill="white"/>
<path d="M66.2408 60.9141H60.8008V66.3541H66.2408V60.9141Z" fill="white"/>
<path d="M71.6802 60.9141H66.2402V66.3541H71.6802V60.9141Z" fill="white"/>
<path d="M104.319 60.9141H98.8789V66.3541H104.319V60.9141Z" fill="white"/>
<path d="M109.76 60.9141H104.32V66.3541H109.76V60.9141Z" fill="white"/>
<path d="M142.401 60.9141H136.961V66.3541H142.401V60.9141Z" fill="white"/>
<path d="M153.28 60.9141H147.84V66.3541H153.28V60.9141Z" fill="white"/>
<path d="M158.721 60.9141H153.281V66.3541H158.721V60.9141Z" fill="white"/>
<path d="M6.40094 66.3555H0.960938V71.7955H6.40094V66.3555Z" fill="white"/>
<path d="M11.8404 66.3555H6.40039V71.7955H11.8404V66.3555Z" fill="white"/>
<path d="M28.1588 66.3555H22.7188V71.7955H28.1588V66.3555Z" fill="white"/>
<path d="M33.6002 66.3555H28.1602V71.7955H33.6002V66.3555Z" fill="white"/>
<path d="M39.0396 66.3555H33.5996V71.7955H39.0396V66.3555Z" fill="white"/>
<path d="M44.4791 66.3555H39.0391V71.7955H44.4791V66.3555Z" fill="white"/>
<path d="M49.9205 66.3555H44.4805V71.7955H49.9205V66.3555Z" fill="white"/>
<path d="M60.7994 66.3555H55.3594V71.7955H60.7994V66.3555Z" fill="white"/>
<path d="M82.5591 66.3555H77.1191V71.7955H82.5591V66.3555Z" fill="white"/>
<path d="M87.9986 66.3555H82.5586V71.7955H87.9986V66.3555Z" fill="white"/>
<path d="M104.321 66.3555H98.8809V71.7955H104.321V66.3555Z" fill="white"/>
<path d="M115.2 66.3555H109.76V71.7955H115.2V66.3555Z" fill="white"/>
<path d="M120.639 66.3555H115.199V71.7955H120.639V66.3555Z" fill="white"/>
<path d="M126.081 66.3555H120.641V71.7955H126.081V66.3555Z" fill="white"/>
<path d="M153.28 66.3555H147.84V71.7955H153.28V66.3555Z" fill="white"/>
<path d="M6.40094 71.793H0.960938V77.233H6.40094V71.793Z" fill="white"/>
<path d="M11.8404 71.793H6.40039V77.233H11.8404V71.793Z" fill="white"/>
<path d="M22.7213 71.793H17.2812V77.233H22.7213V71.793Z" fill="white"/>
<path d="M28.1588 71.793H22.7188V77.233H28.1588V71.793Z" fill="white"/>
<path d="M33.6002 71.793H28.1602V77.233H33.6002V71.793Z" fill="white"/>
<path d="M44.4791 71.793H39.0391V77.233H44.4791V71.793Z" fill="white"/>
<path d="M55.3599 71.793H49.9199V77.233H55.3599V71.793Z" fill="white"/>
<path d="M77.1197 71.793H71.6797V77.233H77.1197V71.793Z" fill="white"/>
<path d="M82.5611 71.793H77.1211V77.233H82.5611V71.793Z" fill="white"/>
<path d="M93.44 71.793H88V77.233H93.44V71.793Z" fill="white"/>
<path d="M98.8814 71.793H93.4414V77.233H98.8814V71.793Z" fill="white"/>
<path d="M104.319 71.793H98.8789V77.233H104.319V71.793Z" fill="white"/>
<path d="M115.2 71.793H109.76V77.233H115.2V71.793Z" fill="white"/>
<path d="M120.639 71.793H115.199V77.233H120.639V71.793Z" fill="white"/>
<path d="M126.081 71.793H120.641V77.233H126.081V71.793Z" fill="white"/>
<path d="M131.52 71.793H126.08V77.233H131.52V71.793Z" fill="white"/>
<path d="M136.96 71.793H131.52V77.233H136.96V71.793Z" fill="white"/>
<path d="M142.401 71.793H136.961V77.233H142.401V71.793Z" fill="white"/>
<path d="M147.84 71.793H142.4V77.233H147.84V71.793Z" fill="white"/>
<path d="M153.28 71.793H147.84V77.233H153.28V71.793Z" fill="white"/>
<path d="M11.8404 77.2344H6.40039V82.6744H11.8404V77.2344Z" fill="white"/>
<path d="M28.1588 77.2344H22.7188V82.6744H28.1588V77.2344Z" fill="white"/>
<path d="M39.0396 77.2344H33.5996V82.6744H39.0396V77.2344Z" fill="white"/>
<path d="M44.4791 77.2344H39.0391V82.6744H44.4791V77.2344Z" fill="white"/>
<path d="M55.3602 77.2344H49.9202V82.6744H55.3602V77.2344Z" fill="white"/>
<path d="M93.44 77.2344H88V82.6744H93.44V77.2344Z" fill="white"/>
<path d="M98.8814 77.2344H93.4414V82.6744H98.8814V77.2344Z" fill="white"/>
<path d="M109.76 77.2344H104.32V82.6744H109.76V77.2344Z" fill="white"/>
<path d="M115.2 77.2344H109.76V82.6744H115.2V77.2344Z" fill="white"/>
<path d="M120.639 77.2344H115.199V82.6744H120.639V77.2344Z" fill="white"/>
<path d="M131.52 77.2344H126.08V82.6744H131.52V77.2344Z" fill="white"/>
<path d="M136.96 77.2344H131.52V82.6744H136.96V77.2344Z" fill="white"/>
<path d="M147.84 77.2344H142.4V82.6744H147.84V77.2344Z" fill="white"/>
<path d="M158.719 77.2344H153.279V82.6744H158.719V77.2344Z" fill="white"/>
<path d="M6.40094 82.6738H0.960938V88.1138H6.40094V82.6738Z" fill="white"/>
<path d="M17.2798 82.6738H11.8398V88.1138H17.2798V82.6738Z" fill="white"/>
<path d="M22.7213 82.6738H17.2812V88.1138H22.7213V82.6738Z" fill="white"/>
<path d="M33.6002 82.6738H28.1602V88.1138H33.6002V82.6738Z" fill="white"/>
<path d="M44.4791 82.6738H39.0391V88.1138H44.4791V82.6738Z" fill="white"/>
<path d="M55.3602 82.6738H49.9202V88.1138H55.3602V82.6738Z" fill="white"/>
<path d="M60.7994 82.6738H55.3594V88.1138H60.7994V82.6738Z" fill="white"/>
<path d="M71.6802 82.6738H66.2402V88.1138H71.6802V82.6738Z" fill="white"/>
<path d="M77.1197 82.6738H71.6797V88.1138H77.1197V82.6738Z" fill="white"/>
<path d="M82.5591 82.6738H77.1191V88.1138H82.5591V82.6738Z" fill="white"/>
<path d="M109.76 82.6738H104.32V88.1138H109.76V82.6738Z" fill="white"/>
<path d="M120.639 82.6738H115.199V88.1138H120.639V82.6738Z" fill="white"/>
<path d="M126.081 82.6738H120.641V88.1138H126.081V82.6738Z" fill="white"/>
<path d="M136.96 82.6738H131.52V88.1138H136.96V82.6738Z" fill="white"/>
<path d="M142.399 82.6738H136.959V88.1138H142.399V82.6738Z" fill="white"/>
<path d="M158.719 82.6738H153.279V88.1138H158.719V82.6738Z" fill="white"/>
<path d="M11.8404 88.1152H6.40039V93.5552H11.8404V88.1152Z" fill="white"/>
<path d="M22.7213 88.1152H17.2812V93.5552H22.7213V88.1152Z" fill="white"/>
<path d="M28.1588 88.1152H22.7188V93.5552H28.1588V88.1152Z" fill="white"/>
<path d="M33.6002 88.1152H28.1602V93.5552H33.6002V88.1152Z" fill="white"/>
<path d="M39.0396 88.1152H33.5996V93.5552H39.0396V88.1152Z" fill="white"/>
<path d="M49.9205 88.1152H44.4805V93.5552H49.9205V88.1152Z" fill="white"/>
<path d="M71.6802 88.1152H66.2402V93.5552H71.6802V88.1152Z" fill="white"/>
<path d="M77.1197 88.1152H71.6797V93.5552H77.1197V88.1152Z" fill="white"/>
<path d="M82.5611 88.1152H77.1211V93.5552H82.5611V88.1152Z" fill="white"/>
<path d="M87.9986 88.1152H82.5586V93.5552H87.9986V88.1152Z" fill="white"/>
<path d="M98.8814 88.1152H93.4414V93.5552H98.8814V88.1152Z" fill="white"/>
<path d="M115.2 88.1152H109.76V93.5552H115.2V88.1152Z" fill="white"/>
<path d="M120.639 88.1152H115.199V93.5552H120.639V88.1152Z" fill="white"/>
<path d="M126.081 88.1152H120.641V93.5552H126.081V88.1152Z" fill="white"/>
<path d="M136.96 88.1152H131.52V93.5552H136.96V88.1152Z" fill="white"/>
<path d="M147.84 88.1152H142.4V93.5552H147.84V88.1152Z" fill="white"/>
<path d="M22.7213 93.5547H17.2812V98.9947H22.7213V93.5547Z" fill="white"/>
<path d="M49.9205 93.5547H44.4805V98.9947H49.9205V93.5547Z" fill="white"/>
<path d="M55.3599 93.5547H49.9199V98.9947H55.3599V93.5547Z" fill="white"/>
<path d="M60.7994 93.5547H55.3594V98.9947H60.7994V93.5547Z" fill="white"/>
<path d="M71.6802 93.5547H66.2402V98.9947H71.6802V93.5547Z" fill="white"/>
<path d="M93.44 93.5547H88V98.9947H93.44V93.5547Z" fill="white"/>
<path d="M98.8814 93.5547H93.4414V98.9947H98.8814V93.5547Z" fill="white"/>
<path d="M104.319 93.5547H98.8789V98.9947H104.319V93.5547Z" fill="white"/>
<path d="M109.76 93.5547H104.32V98.9947H109.76V93.5547Z" fill="white"/>
<path d="M115.2 93.5547H109.76V98.9947H115.2V93.5547Z" fill="white"/>
<path d="M126.081 93.5547H120.641V98.9947H126.081V93.5547Z" fill="white"/>
<path d="M131.52 93.5547H126.08V98.9947H131.52V93.5547Z" fill="white"/>
<path d="M142.401 93.5547H136.961V98.9947H142.401V93.5547Z" fill="white"/>
<path d="M158.721 93.5547H153.281V98.9947H158.721V93.5547Z" fill="white"/>
<path d="M6.40094 98.9941H0.960938V104.434H6.40094V98.9941Z" fill="white"/>
<path d="M17.2798 98.9941H11.8398V104.434H17.2798V98.9941Z" fill="white"/>
<path d="M28.1588 98.9941H22.7188V104.434H28.1588V98.9941Z" fill="white"/>
<path d="M33.6002 98.9941H28.1602V104.434H33.6002V98.9941Z" fill="white"/>
<path d="M39.0396 98.9941H33.5996V104.434H39.0396V98.9941Z" fill="white"/>
<path d="M44.4791 98.9941H39.0391V104.434H44.4791V98.9941Z" fill="white"/>
<path d="M60.7994 98.9941H55.3594V104.434H60.7994V98.9941Z" fill="white"/>
<path d="M66.2408 98.9941H60.8008V104.434H66.2408V98.9941Z" fill="white"/>
<path d="M71.6802 98.9941H66.2402V104.434H71.6802V98.9941Z" fill="white"/>
<path d="M82.5611 98.9941H77.1211V104.434H82.5611V98.9941Z" fill="white"/>
<path d="M98.8814 98.9941H93.4414V104.434H98.8814V98.9941Z" fill="white"/>
<path d="M109.76 98.9941H104.32V104.434H109.76V98.9941Z" fill="white"/>
<path d="M120.639 98.9941H115.199V104.434H120.639V98.9941Z" fill="white"/>
<path d="M131.52 98.9941H126.08V104.434H131.52V98.9941Z" fill="white"/>
<path d="M142.401 98.9941H136.961V104.434H142.401V98.9941Z" fill="white"/>
<path d="M147.84 98.9941H142.4V104.434H147.84V98.9941Z" fill="white"/>
<path d="M17.2798 104.436H11.8398V109.876H17.2798V104.436Z" fill="white"/>
<path d="M22.7213 104.436H17.2812V109.876H22.7213V104.436Z" fill="white"/>
<path d="M28.1588 104.436H22.7188V109.876H28.1588V104.436Z" fill="white"/>
<path d="M33.6002 104.436H28.1602V109.876H33.6002V104.436Z" fill="white"/>
<path d="M44.4791 104.436H39.0391V109.876H44.4791V104.436Z" fill="white"/>
<path d="M49.9205 104.436H44.4805V109.876H49.9205V104.436Z" fill="white"/>
<path d="M60.7994 104.436H55.3594V109.876H60.7994V104.436Z" fill="white"/>
<path d="M66.2408 104.436H60.8008V109.876H66.2408V104.436Z" fill="white"/>
<path d="M82.5611 104.436H77.1211V109.876H82.5611V104.436Z" fill="white"/>
<path d="M87.9986 104.436H82.5586V109.876H87.9986V104.436Z" fill="white"/>
<path d="M93.44 104.436H88V109.876H93.44V104.436Z" fill="white"/>
<path d="M98.8814 104.436H93.4414V109.876H98.8814V104.436Z" fill="white"/>
<path d="M104.319 104.436H98.8789V109.876H104.319V104.436Z" fill="white"/>
<path d="M109.76 104.436H104.32V109.876H109.76V104.436Z" fill="white"/>
<path d="M120.639 104.436H115.199V109.876H120.639V104.436Z" fill="white"/>
<path d="M126.081 104.436H120.641V109.876H126.081V104.436Z" fill="white"/>
<path d="M131.52 104.436H126.08V109.876H131.52V104.436Z" fill="white"/>
<path d="M142.401 104.436H136.961V109.876H142.401V104.436Z" fill="white"/>
<path d="M147.84 104.436H142.4V109.876H147.84V104.436Z" fill="white"/>
<path d="M158.721 104.436H153.281V109.876H158.721V104.436Z" fill="white"/>
<path d="M11.8404 109.875H6.40039V115.315H11.8404V109.875Z" fill="white"/>
<path d="M22.7213 109.875H17.2812V115.315H22.7213V109.875Z" fill="white"/>
<path d="M28.1588 109.875H22.7188V115.315H28.1588V109.875Z" fill="white"/>
<path d="M33.6002 109.875H28.1602V115.315H33.6002V109.875Z" fill="white"/>
<path d="M39.0396 109.875H33.5996V115.315H39.0396V109.875Z" fill="white"/>
<path d="M49.9205 109.875H44.4805V115.315H49.9205V109.875Z" fill="white"/>
<path d="M60.7994 109.875H55.3594V115.315H60.7994V109.875Z" fill="white"/>
<path d="M66.2408 109.875H60.8008V115.315H66.2408V109.875Z" fill="white"/>
<path d="M71.6802 109.875H66.2402V115.315H71.6802V109.875Z" fill="white"/>
<path d="M77.1197 109.875H71.6797V115.315H77.1197V109.875Z" fill="white"/>
<path d="M82.5611 109.875H77.1211V115.315H82.5611V109.875Z" fill="white"/>
<path d="M93.44 109.875H88V115.315H93.44V109.875Z" fill="white"/>
<path d="M98.8814 109.875H93.4414V115.315H98.8814V109.875Z" fill="white"/>
<path d="M115.2 109.875H109.76V115.315H115.2V109.875Z" fill="white"/>
<path d="M120.639 109.875H115.199V115.315H120.639V109.875Z" fill="white"/>
<path d="M126.081 109.875H120.641V115.315H126.081V109.875Z" fill="white"/>
<path d="M131.52 109.875H126.08V115.315H131.52V109.875Z" fill="white"/>
<path d="M136.96 109.875H131.52V115.315H136.96V109.875Z" fill="white"/>
<path d="M147.84 109.875H142.4V115.315H147.84V109.875Z" fill="white"/>
<path d="M49.9205 115.314H44.4805V120.754H49.9205V115.314Z" fill="white"/>
<path d="M77.1197 115.314H71.6797V120.754H77.1197V115.314Z" fill="white"/>
<path d="M82.5611 115.314H77.1211V120.754H82.5611V115.314Z" fill="white"/>
<path d="M98.8814 115.314H93.4414V120.754H98.8814V115.314Z" fill="white"/>
<path d="M104.319 115.314H98.8789V120.754H104.319V115.314Z" fill="white"/>
<path d="M115.2 115.314H109.76V120.754H115.2V115.314Z" fill="white"/>
<path d="M136.96 115.314H131.52V120.754H136.96V115.314Z" fill="white"/>
<path d="M142.401 115.314H136.961V120.754H142.401V115.314Z" fill="white"/>
<path d="M153.28 115.314H147.84V120.754H153.28V115.314Z" fill="white"/>
<path d="M158.721 115.314H153.281V120.754H158.721V115.314Z" fill="white"/>
<path d="M6.40094 120.754H0.960938V126.194H6.40094V120.754Z" fill="white"/>
<path d="M11.8404 120.754H6.40039V126.194H11.8404V120.754Z" fill="white"/>
<path d="M17.2798 120.754H11.8398V126.194H17.2798V120.754Z" fill="white"/>
<path d="M22.7213 120.754H17.2812V126.194H22.7213V120.754Z" fill="white"/>
<path d="M28.1588 120.754H22.7188V126.194H28.1588V120.754Z" fill="white"/>
<path d="M33.6002 120.754H28.1602V126.194H33.6002V120.754Z" fill="white"/>
<path d="M39.0396 120.754H33.5996V126.194H39.0396V120.754Z" fill="white"/>
<path d="M49.9205 120.754H44.4805V126.194H49.9205V120.754Z" fill="white"/>
<path d="M66.2408 120.754H60.8008V126.194H66.2408V120.754Z" fill="white"/>
<path d="M71.6802 120.754H66.2402V126.194H71.6802V120.754Z" fill="white"/>
<path d="M77.1197 120.754H71.6797V126.194H77.1197V120.754Z" fill="white"/>
<path d="M87.9986 120.754H82.5586V126.194H87.9986V120.754Z" fill="white"/>
<path d="M98.8814 120.754H93.4414V126.194H98.8814V120.754Z" fill="white"/>
<path d="M115.2 120.754H109.76V126.194H115.2V120.754Z" fill="white"/>
<path d="M126.081 120.754H120.641V126.194H126.081V120.754Z" fill="white"/>
<path d="M136.96 120.754H131.52V126.194H136.96V120.754Z" fill="white"/>
<path d="M6.40094 126.193H0.960938V131.633H6.40094V126.193Z" fill="white"/>
<path d="M39.0396 126.193H33.5996V131.633H39.0396V126.193Z" fill="white"/>
<path d="M55.3599 126.193H49.9199V131.633H55.3599V126.193Z" fill="white"/>
<path d="M66.2408 126.193H60.8008V131.633H66.2408V126.193Z" fill="white"/>
<path d="M71.6802 126.193H66.2402V131.633H71.6802V126.193Z" fill="white"/>
<path d="M82.5611 126.193H77.1211V131.633H82.5611V126.193Z" fill="white"/>
<path d="M109.76 126.193H104.32V131.633H109.76V126.193Z" fill="white"/>
<path d="M115.2 126.193H109.76V131.633H115.2V126.193Z" fill="white"/>
<path d="M136.96 126.193H131.52V131.633H136.96V126.193Z" fill="white"/>
<path d="M153.28 126.193H147.84V131.633H153.28V126.193Z" fill="white"/>
<path d="M6.40094 131.635H0.960938V137.075H6.40094V131.635Z" fill="white"/>
<path d="M17.2798 131.635H11.8398V137.075H17.2798V131.635Z" fill="white"/>
<path d="M22.7213 131.635H17.2812V137.075H22.7213V131.635Z" fill="white"/>
<path d="M28.1588 131.635H22.7188V137.075H28.1588V131.635Z" fill="white"/>
<path d="M39.0396 131.635H33.5996V137.075H39.0396V131.635Z" fill="white"/>
<path d="M55.3599 131.635H49.9199V137.075H55.3599V131.635Z" fill="white"/>
<path d="M66.2408 131.635H60.8008V137.075H66.2408V131.635Z" fill="white"/>
<path d="M77.1197 131.635H71.6797V137.075H77.1197V131.635Z" fill="white"/>
<path d="M82.5611 131.635H77.1211V137.075H82.5611V131.635Z" fill="white"/>
<path d="M109.76 131.635H104.32V137.075H109.76V131.635Z" fill="white"/>
<path d="M115.2 131.635H109.76V137.075H115.2V131.635Z" fill="white"/>
<path d="M120.639 131.635H115.199V137.075H120.639V131.635Z" fill="white"/>
<path d="M126.081 131.635H120.641V137.075H126.081V131.635Z" fill="white"/>
<path d="M131.52 131.635H126.08V137.075H131.52V131.635Z" fill="white"/>
<path d="M136.96 131.635H131.52V137.075H136.96V131.635Z" fill="white"/>
<path d="M142.401 131.635H136.961V137.075H142.401V131.635Z" fill="white"/>
<path d="M153.28 131.635H147.84V137.075H153.28V131.635Z" fill="white"/>
<path d="M6.40094 137.072H0.960938V142.512H6.40094V137.072Z" fill="white"/>
<path d="M17.2798 137.072H11.8398V142.512H17.2798V137.072Z" fill="white"/>
<path d="M22.7213 137.072H17.2812V142.512H22.7213V137.072Z" fill="white"/>
<path d="M28.1588 137.072H22.7188V142.512H28.1588V137.072Z" fill="white"/>
<path d="M39.0396 137.072H33.5996V142.512H39.0396V137.072Z" fill="white"/>
<path d="M49.9205 137.072H44.4805V142.512H49.9205V137.072Z" fill="white"/>
<path d="M60.7994 137.072H55.3594V142.512H60.7994V137.072Z" fill="white"/>
<path d="M66.2408 137.072H60.8008V142.512H66.2408V137.072Z" fill="white"/>
<path d="M71.6802 137.072H66.2402V142.512H71.6802V137.072Z" fill="white"/>
<path d="M77.1197 137.072H71.6797V142.512H77.1197V137.072Z" fill="white"/>
<path d="M82.5611 137.072H77.1211V142.512H82.5611V137.072Z" fill="white"/>
<path d="M87.9986 137.072H82.5586V142.512H87.9986V137.072Z" fill="white"/>
<path d="M93.44 137.072H88V142.512H93.44V137.072Z" fill="white"/>
<path d="M98.8814 137.072H93.4414V142.512H98.8814V137.072Z" fill="white"/>
<path d="M109.76 137.072H104.32V142.512H109.76V137.072Z" fill="white"/>
<path d="M120.639 137.072H115.199V142.512H120.639V137.072Z" fill="white"/>
<path d="M131.52 137.072H126.08V142.512H131.52V137.072Z" fill="white"/>
<path d="M147.84 137.072H142.4V142.512H147.84V137.072Z" fill="white"/>
<path d="M153.28 137.072H147.84V142.512H153.28V137.072Z" fill="white"/>
<path d="M6.40094 142.514H0.960938V147.954H6.40094V142.514Z" fill="white"/>
<path d="M17.2798 142.514H11.8398V147.954H17.2798V142.514Z" fill="white"/>
<path d="M22.7213 142.514H17.2812V147.954H22.7213V142.514Z" fill="white"/>
<path d="M28.1588 142.514H22.7188V147.954H28.1588V142.514Z" fill="white"/>
<path d="M39.0396 142.514H33.5996V147.954H39.0396V142.514Z" fill="white"/>
<path d="M49.9205 142.514H44.4805V147.954H49.9205V142.514Z" fill="white"/>
<path d="M55.3599 142.514H49.9199V147.954H55.3599V142.514Z" fill="white"/>
<path d="M66.2408 142.514H60.8008V147.954H66.2408V142.514Z" fill="white"/>
<path d="M87.9986 142.514H82.5586V147.954H87.9986V142.514Z" fill="white"/>
<path d="M104.319 142.514H98.8789V147.954H104.319V142.514Z" fill="white"/>
<path d="M109.76 142.514H104.32V147.954H109.76V142.514Z" fill="white"/>
<path d="M120.639 142.514H115.199V147.954H120.639V142.514Z" fill="white"/>
<path d="M131.52 142.514H126.08V147.954H131.52V142.514Z" fill="white"/>
<path d="M136.96 142.514H131.52V147.954H136.96V142.514Z" fill="white"/>
<path d="M147.84 142.514H142.4V147.954H147.84V142.514Z" fill="white"/>
<path d="M158.721 142.514H153.281V147.954H158.721V142.514Z" fill="white"/>
<path d="M6.40094 147.955H0.960938V153.395H6.40094V147.955Z" fill="white"/>
<path d="M39.0396 147.955H33.5996V153.395H39.0396V147.955Z" fill="white"/>
<path d="M55.3602 147.955H49.9202V153.395H55.3602V147.955Z" fill="white"/>
<path d="M60.7994 147.955H55.3594V153.395H60.7994V147.955Z" fill="white"/>
<path d="M66.2408 147.955H60.8008V153.395H66.2408V147.955Z" fill="white"/>
<path d="M71.6802 147.955H66.2402V153.395H71.6802V147.955Z" fill="white"/>
<path d="M77.1197 147.955H71.6797V153.395H77.1197V147.955Z" fill="white"/>
<path d="M93.44 147.955H88V153.395H93.44V147.955Z" fill="white"/>
<path d="M104.321 147.955H98.8809V153.395H104.321V147.955Z" fill="white"/>
<path d="M109.76 147.955H104.32V153.395H109.76V147.955Z" fill="white"/>
<path d="M120.639 147.955H115.199V153.395H120.639V147.955Z" fill="white"/>
<path d="M158.719 147.955H153.279V153.395H158.719V147.955Z" fill="white"/>
<path d="M6.40094 153.395H0.960938V158.835H6.40094V153.395Z" fill="white"/>
<path d="M11.8404 153.395H6.40039V158.835H11.8404V153.395Z" fill="white"/>
<path d="M17.2798 153.395H11.8398V158.835H17.2798V153.395Z" fill="white"/>
<path d="M22.7213 153.395H17.2812V158.835H22.7213V153.395Z" fill="white"/>
<path d="M28.1588 153.395H22.7188V158.835H28.1588V153.395Z" fill="white"/>
<path d="M33.6002 153.395H28.1602V158.835H33.6002V153.395Z" fill="white"/>
<path d="M39.0396 153.395H33.5996V158.835H39.0396V153.395Z" fill="white"/>
<path d="M66.2408 153.395H60.8008V158.835H66.2408V153.395Z" fill="white"/>
<path d="M71.6802 153.395H66.2402V158.835H71.6802V153.395Z" fill="white"/>
<path d="M115.2 153.395H109.76V158.835H115.2V153.395Z" fill="white"/>
<path d="M120.639 153.395H115.199V158.835H120.639V153.395Z" fill="white"/>
<path d="M147.84 153.395H142.4V158.835H147.84V153.395Z" fill="white"/>
<path d="M153.28 153.395H147.84V158.835H153.28V153.395Z" fill="white"/>
</svg>
