
<svg width="32" height="32" viewBox="0 0 32 32" fill="none" xmlns="http://www.w3.org/2000/svg">
<rect width="32" height="32" rx="16" fill="white"/>
<path fill-rule="evenodd" clip-rule="evenodd" d="M16 29C23.1797 29 29 23.1797 29 16C29 8.8203 23.1797 3 16 3C8.8203 3 3 8.8203 3 16C3 23.1797 8.8203 29 16 29ZM22.7692 13.0192C23.2769 12.5116 23.2769 11.6884 22.7692 11.1808C22.2616 10.6731 21.4384 10.6731 20.9308 11.1808L14.05 18.0615L11.0692 15.0808C10.5616 14.5731 9.73844 14.5731 9.23076 15.0808C8.72308 15.5884 8.72308 16.4116 9.23076 16.9192L13.1308 20.8192C13.6384 21.3269 14.4616 21.3269 14.9692 20.8192L22.7692 13.0192Z" fill="#53B374"/>
</svg>
