<svg width="47" height="48" viewBox="0 0 47 48" fill="none" xmlns="http://www.w3.org/2000/svg">
<g filter="url(#filter0_b_914_31424)">
<rect y="0.5" width="47" height="47" rx="5" fill="#EEEEEE"/>
<path d="M11 35.25V20.25L21 12.75L28.5 18.375C28.0833 18.375 27.6667 18.4219 27.25 18.5156C26.8333 18.6094 26.4479 18.7396 26.0938 18.9062L21 15.0938L12.875 21.1875V33.375H19.125V35.25H11ZM21 35.25V32.875C21 32.4375 21.1094 32.026 21.3281 31.6406C21.5469 31.2552 21.8438 30.9479 22.2188 30.7188C23.1771 30.1562 24.1823 29.7292 25.2344 29.4375C26.2865 29.1458 27.375 29 28.5 29C29.625 29 30.7135 29.1458 31.7656 29.4375C32.8177 29.7292 33.8229 30.1562 34.7812 30.7188C35.1562 30.9479 35.4531 31.2552 35.6719 31.6406C35.8906 32.026 36 32.4375 36 32.875V35.25H21ZM22.875 33.375H34.125V32.4688C33.25 31.9688 32.3414 31.5781 31.3992 31.2969C30.4569 31.0156 29.4905 30.875 28.5 30.875C27.5095 30.875 26.5431 31.0208 25.6008 31.3125C24.6586 31.6042 23.75 32 22.875 32.5V33.375ZM28.5 27.75C27.4583 27.75 26.5729 27.3854 25.8438 26.6562C25.1146 25.9271 24.75 25.0417 24.75 24C24.75 22.9583 25.1146 22.0729 25.8438 21.3438C26.5729 20.6146 27.4583 20.25 28.5 20.25C29.5417 20.25 30.4271 20.6146 31.1562 21.3438C31.8854 22.0729 32.25 22.9583 32.25 24C32.25 25.0417 31.8854 25.9271 31.1562 26.6562C30.4271 27.3854 29.5417 27.75 28.5 27.75ZM28.5 25.875C29.0312 25.875 29.4766 25.6953 29.8359 25.3359C30.1953 24.9766 30.375 24.5312 30.375 24C30.375 23.4688 30.1953 23.0234 29.8359 22.6641C29.4766 22.3047 29.0312 22.125 28.5 22.125C27.9688 22.125 27.5234 22.3047 27.1641 22.6641C26.8047 23.0234 26.625 23.4688 26.625 24C26.625 24.5312 26.8047 24.9766 27.1641 25.3359C27.5234 25.6953 27.9688 25.875 28.5 25.875Z" fill="#242A1F"/>
</g>
<defs>
<filter id="filter0_b_914_31424" x="-5.86467" y="-5.36467" width="58.7293" height="58.7293" filterUnits="userSpaceOnUse" color-interpolation-filters="sRGB">
<feFlood flood-opacity="0" result="BackgroundImageFix"/>
<feGaussianBlur in="BackgroundImageFix" stdDeviation="2.93234"/>
<feComposite in2="SourceAlpha" operator="in" result="effect1_backgroundBlur_914_31424"/>
<feBlend mode="normal" in="SourceGraphic" in2="effect1_backgroundBlur_914_31424" result="shape"/>
</filter>
</defs>
</svg>
