<svg width="47" height="48" viewBox="0 0 47 48" fill="none" xmlns="http://www.w3.org/2000/svg">
<g filter="url(#filter0_b_914_31429)">
<rect y="0.5" width="47" height="47" rx="5" fill="#EEEEEE"/>
<g clip-path="url(#clip0_914_31429)">
<path d="M10.9375 29V26.0625C10.9375 25.3333 11.125 24.6719 11.5 24.0781C11.875 23.4844 12.3958 23.0417 13.0625 22.75C14.3125 22.2083 15.5938 21.7604 16.9063 21.4062C18.2188 21.0521 19.5625 20.875 20.9375 20.875C22.0089 20.875 23.0685 20.9844 24.1161 21.2031C25.1637 21.4219 26.1875 21.7188 27.1875 22.0938C26.9583 22.3229 26.7391 22.5598 26.5297 22.8044C26.3202 23.049 26.1333 23.3121 25.9688 23.5938C25.1563 23.3021 24.331 23.0885 23.4931 22.9531C22.6552 22.8177 21.8033 22.75 20.9375 22.75C19.6875 22.75 18.4688 22.9062 17.2813 23.2188C16.0938 23.5312 14.9375 23.9375 13.8125 24.4375C13.5 24.5833 13.2552 24.8017 13.0781 25.0927C12.901 25.3836 12.8125 25.7069 12.8125 26.0625V27.125H24.7813C24.7604 27.4375 24.7604 27.75 24.7813 28.0625C24.8021 28.375 24.8333 28.6875 24.875 29H10.9375ZM20.9375 18.9688C19.625 18.9688 18.5156 18.5156 17.6094 17.6094C16.7031 16.7031 16.25 15.5938 16.25 14.2812C16.25 12.9688 16.7031 11.8594 17.6094 10.9531C18.5156 10.0469 19.625 9.59375 20.9375 9.59375C22.25 9.59375 23.3594 10.0469 24.2656 10.9531C25.1719 11.8594 25.625 12.9688 25.625 14.2812C25.625 15.5938 25.1719 16.7031 24.2656 17.6094C23.3594 18.5156 22.25 18.9688 20.9375 18.9688ZM20.9375 17.0938C21.7292 17.0938 22.3958 16.8229 22.9375 16.2812C23.4792 15.7396 23.75 15.0729 23.75 14.2812C23.75 13.4896 23.4792 12.8229 22.9375 12.2812C22.3958 11.7396 21.7292 11.4688 20.9375 11.4688C20.1458 11.4688 19.4792 11.7396 18.9375 12.2812C18.3958 12.8229 18.125 13.4896 18.125 14.2812C18.125 15.0729 18.3958 15.7396 18.9375 16.2812C19.4792 16.8229 20.1458 17.0938 20.9375 17.0938ZM32.1875 14.2812C32.1875 15.5938 31.7344 16.7031 30.8281 17.6094C29.9219 18.5156 28.8125 18.9688 27.5 18.9688C27.2292 18.9688 26.9688 18.9583 26.7188 18.9375C26.4688 18.9167 26.2188 18.8542 25.9688 18.75C26.5313 18.1458 26.9271 17.4531 27.1563 16.6719C27.3854 15.8906 27.5 15.0938 27.5 14.2812C27.5 13.4688 27.375 12.6771 27.125 11.9062C26.875 11.1354 26.4896 10.4375 25.9688 9.8125C26.2188 9.72135 26.4688 9.6621 26.7188 9.63475C26.9688 9.60742 27.2323 9.59375 27.5094 9.59375C28.8156 9.59375 29.9219 10.0469 30.8281 10.9531C31.7344 11.8594 32.1875 12.9688 32.1875 14.2812ZM32.5477 33.6875C30.9117 33.6875 29.5156 33.1086 28.3594 31.9508C27.2031 30.793 26.625 29.3927 26.625 27.75C26.625 26.1042 27.2039 24.7031 28.3617 23.5469C29.5195 22.3906 30.9198 21.8125 32.5625 21.8125C34.2083 21.8125 35.6094 22.3906 36.7656 23.5469C37.9219 24.7031 38.5 26.1091 38.5 27.7648C38.5 29.4008 37.9219 30.7969 36.7656 31.9531C35.6094 33.1094 34.2034 33.6875 32.5477 33.6875ZM31.375 30.3125L35.5625 26.125L34.9063 25.4688L31.375 29L29.625 27.2188L28.9688 27.875L31.375 30.3125Z" fill="#242A1F"/>
</g>
</g>
<defs>
<filter id="filter0_b_914_31429" x="-5.86467" y="-5.36467" width="58.7293" height="58.7293" filterUnits="userSpaceOnUse" color-interpolation-filters="sRGB">
<feFlood flood-opacity="0" result="BackgroundImageFix"/>
<feGaussianBlur in="BackgroundImageFix" stdDeviation="2.93234"/>
<feComposite in2="SourceAlpha" operator="in" result="effect1_backgroundBlur_914_31429"/>
<feBlend mode="normal" in="SourceGraphic" in2="effect1_backgroundBlur_914_31429" result="shape"/>
</filter>
<clipPath id="clip0_914_31429">
<rect width="30" height="30" fill="white" transform="translate(8.5 9)"/>
</clipPath>
</defs>
</svg>
