<svg width="48" height="48" viewBox="0 0 48 48" fill="none" xmlns="http://www.w3.org/2000/svg">
<g filter="url(#filter0_b_914_32286)">
<rect x="0.671875" y="0.5" width="47" height="47" rx="5" fill="#EEEEEE"/>
<path d="M24.1885 15.4389V12.6002C24.1885 11.8054 24.4679 11.1286 25.0267 10.5697C25.5856 10.0109 26.2624 9.73145 27.0573 9.73145H29.8959V12.5701C29.8959 13.3649 29.6165 14.0417 29.0576 14.6006C28.4988 15.1594 27.8219 15.4389 27.0271 15.4389H24.1885ZM14.2005 24C13.0182 24 12.0093 23.5821 11.1735 22.7464C10.3378 21.9107 9.91992 20.9017 9.91992 19.7194V15.4389H14.2005C15.3827 15.4389 16.3917 15.8567 17.2275 16.6925C18.0632 17.5282 18.481 18.5372 18.481 19.7194V24H14.2005ZM29.8959 38.2685C28.9084 38.2685 27.9652 38.1068 27.0663 37.7834C26.1674 37.46 25.3508 37.0153 24.6165 36.4493L23.5107 37.5551C23.3189 37.7691 23.0747 37.8762 22.7783 37.8762C22.4818 37.8762 22.2384 37.7691 22.0482 37.5551C21.8342 37.3633 21.7271 37.1191 21.7271 36.8227C21.7271 36.5262 21.8342 36.2828 22.0482 36.0926L23.154 34.9868C22.588 34.2525 22.1433 33.4359 21.8199 32.537C21.4965 31.6381 21.3348 30.6949 21.3348 29.7074C21.3348 27.3293 22.1671 25.302 23.8318 23.6254C25.4964 21.9489 27.5178 21.1225 29.8959 21.1463H38.4213V29.7074C38.4689 32.0855 37.6544 34.1069 35.9779 35.7715C34.3013 37.4362 32.274 38.2685 29.8959 38.2685ZM29.8959 36.1283C31.6795 36.1283 33.1895 35.4981 34.4261 34.2377C35.6628 32.9773 36.2811 31.4553 36.2811 29.6717V23.2866H29.9316C28.148 23.2866 26.626 23.9114 25.3656 25.161C24.1052 26.4106 23.475 27.9261 23.475 29.7074C23.475 30.4082 23.5821 31.0709 23.7961 31.6955C24.0101 32.3201 24.3074 32.9059 24.6879 33.4529L29.1825 28.9583C29.3743 28.7443 29.6184 28.6373 29.9149 28.6373C30.2114 28.6373 30.4547 28.7443 30.645 28.9583C30.859 29.1502 30.966 29.3943 30.966 29.6908C30.966 29.9872 30.859 30.2306 30.645 30.4208L26.1504 34.9154C26.6974 35.2959 27.2831 35.5932 27.9078 35.8072C28.5324 36.0212 29.1951 36.1283 29.8959 36.1283Z" fill="#242A1F"/>
</g>
<defs>
<filter id="filter0_b_914_32286" x="-5.1928" y="-5.36467" width="58.7293" height="58.7293" filterUnits="userSpaceOnUse" color-interpolation-filters="sRGB">
<feFlood flood-opacity="0" result="BackgroundImageFix"/>
<feGaussianBlur in="BackgroundImageFix" stdDeviation="2.93234"/>
<feComposite in2="SourceAlpha" operator="in" result="effect1_backgroundBlur_914_32286"/>
<feBlend mode="normal" in="SourceGraphic" in2="effect1_backgroundBlur_914_32286" result="shape"/>
</filter>
</defs>
</svg>
