<svg width="50" height="51" viewBox="0 0 50 51" fill="none" xmlns="http://www.w3.org/2000/svg">
<rect width="50" height="50" transform="matrix(1 0 0 -1 0 50.0366)" fill="#EEEEEE"/>
<path fill-rule="evenodd" clip-rule="evenodd" d="M16.2381 25.6904C15.9072 25.2917 15.9248 24.6912 16.2909 24.314C16.3293 24.2744 16.37 24.2388 16.4126 24.2072L32.3165 7.81813C32.7011 7.42178 33.3247 7.42178 33.7093 7.81813C34.0939 8.21448 34.0939 8.85709 33.7093 9.25343L18.3892 25.041L33.701 40.8199C34.0856 41.2163 34.0856 41.8589 33.701 42.2552C33.3164 42.6516 32.6928 42.6516 32.3082 42.2552L16.333 25.7926C16.3215 25.7819 16.3103 25.7708 16.2992 25.7594C16.2776 25.7372 16.2572 25.7141 16.2381 25.6904Z" fill="#242A1F"/>
</svg>
