<svg width="47" height="48" viewBox="0 0 47 48" fill="none" xmlns="http://www.w3.org/2000/svg">
<g filter="url(#filter0_b_1204_11154)">
<rect y="0.932617" width="47" height="47" rx="5" fill="#EEEEEE"/>
<path d="M11 35.6826V20.6826L21 13.1826L28.5 18.8076C28.0833 18.8076 27.6667 18.8545 27.25 18.9482C26.8333 19.042 26.4479 19.1722 26.0938 19.3389L21 15.5264L12.875 21.6201V33.8076H19.125V35.6826H11ZM21 35.6826V33.3076C21 32.8701 21.1094 32.4587 21.3281 32.0732C21.5469 31.6878 21.8438 31.3805 22.2188 31.1514C23.1771 30.5889 24.1823 30.1618 25.2344 29.8701C26.2865 29.5785 27.375 29.4326 28.5 29.4326C29.625 29.4326 30.7135 29.5785 31.7656 29.8701C32.8177 30.1618 33.8229 30.5889 34.7812 31.1514C35.1562 31.3805 35.4531 31.6878 35.6719 32.0732C35.8906 32.4587 36 32.8701 36 33.3076V35.6826H21ZM22.875 33.8076H34.125V32.9014C33.25 32.4014 32.3414 32.0107 31.3992 31.7295C30.4569 31.4482 29.4905 31.3076 28.5 31.3076C27.5095 31.3076 26.5431 31.4535 25.6008 31.7451C24.6586 32.0368 23.75 32.4326 22.875 32.9326V33.8076ZM28.5 28.1826C27.4583 28.1826 26.5729 27.818 25.8438 27.0889C25.1146 26.3597 24.75 25.4743 24.75 24.4326C24.75 23.391 25.1146 22.5055 25.8438 21.7764C26.5729 21.0472 27.4583 20.6826 28.5 20.6826C29.5417 20.6826 30.4271 21.0472 31.1562 21.7764C31.8854 22.5055 32.25 23.391 32.25 24.4326C32.25 25.4743 31.8854 26.3597 31.1562 27.0889C30.4271 27.818 29.5417 28.1826 28.5 28.1826ZM28.5 26.3076C29.0312 26.3076 29.4766 26.1279 29.8359 25.7686C30.1953 25.4092 30.375 24.9639 30.375 24.4326C30.375 23.9014 30.1953 23.4561 29.8359 23.0967C29.4766 22.7373 29.0312 22.5576 28.5 22.5576C27.9688 22.5576 27.5234 22.7373 27.1641 23.0967C26.8047 23.4561 26.625 23.9014 26.625 24.4326C26.625 24.9639 26.8047 25.4092 27.1641 25.7686C27.5234 26.1279 27.9688 26.3076 28.5 26.3076Z" fill="#242A1F"/>
</g>
<defs>
<filter id="filter0_b_1204_11154" x="-5.86467" y="-4.93206" width="58.7293" height="58.7293" filterUnits="userSpaceOnUse" color-interpolation-filters="sRGB">
<feFlood flood-opacity="0" result="BackgroundImageFix"/>
<feGaussianBlur in="BackgroundImageFix" stdDeviation="2.93234"/>
<feComposite in2="SourceAlpha" operator="in" result="effect1_backgroundBlur_1204_11154"/>
<feBlend mode="normal" in="SourceGraphic" in2="effect1_backgroundBlur_1204_11154" result="shape"/>
</filter>
</defs>
</svg>
