<svg width="47" height="48" viewBox="0 0 47 48" fill="none" xmlns="http://www.w3.org/2000/svg">
<g filter="url(#filter0_b_1204_11159)">
<rect y="0.932617" width="47" height="47" rx="5" fill="#EEEEEE"/>
<g clip-path="url(#clip0_1204_11159)">
<path d="M10.9375 29.4326V26.4951C10.9375 25.766 11.125 25.1045 11.5 24.5107C11.875 23.917 12.3958 23.4743 13.0625 23.1826C14.3125 22.641 15.5938 22.193 16.9063 21.8389C18.2188 21.4847 19.5625 21.3076 20.9375 21.3076C22.0089 21.3076 23.0685 21.417 24.1161 21.6357C25.1637 21.8545 26.1875 22.1514 27.1875 22.5264C26.9583 22.7555 26.7391 22.9924 26.5297 23.237C26.3202 23.4816 26.1333 23.7447 25.9688 24.0264C25.1563 23.7347 24.331 23.5212 23.4931 23.3857C22.6552 23.2503 21.8033 23.1826 20.9375 23.1826C19.6875 23.1826 18.4688 23.3389 17.2813 23.6514C16.0938 23.9639 14.9375 24.3701 13.8125 24.8701C13.5 25.016 13.2552 25.2343 13.0781 25.5253C12.901 25.8162 12.8125 26.1395 12.8125 26.4951V27.5576H24.7813C24.7604 27.8701 24.7604 28.1826 24.7813 28.4951C24.8021 28.8076 24.8333 29.1201 24.875 29.4326H10.9375ZM20.9375 19.4014C19.625 19.4014 18.5156 18.9482 17.6094 18.042C16.7031 17.1357 16.25 16.0264 16.25 14.7139C16.25 13.4014 16.7031 12.292 17.6094 11.3857C18.5156 10.4795 19.625 10.0264 20.9375 10.0264C22.25 10.0264 23.3594 10.4795 24.2656 11.3857C25.1719 12.292 25.625 13.4014 25.625 14.7139C25.625 16.0264 25.1719 17.1357 24.2656 18.042C23.3594 18.9482 22.25 19.4014 20.9375 19.4014ZM20.9375 17.5264C21.7292 17.5264 22.3958 17.2555 22.9375 16.7139C23.4792 16.1722 23.75 15.5055 23.75 14.7139C23.75 13.9222 23.4792 13.2555 22.9375 12.7139C22.3958 12.1722 21.7292 11.9014 20.9375 11.9014C20.1458 11.9014 19.4792 12.1722 18.9375 12.7139C18.3958 13.2555 18.125 13.9222 18.125 14.7139C18.125 15.5055 18.3958 16.1722 18.9375 16.7139C19.4792 17.2555 20.1458 17.5264 20.9375 17.5264ZM32.1875 14.7139C32.1875 16.0264 31.7344 17.1357 30.8281 18.042C29.9219 18.9482 28.8125 19.4014 27.5 19.4014C27.2292 19.4014 26.9688 19.391 26.7188 19.3701C26.4688 19.3493 26.2188 19.2868 25.9688 19.1826C26.5313 18.5785 26.9271 17.8857 27.1563 17.1045C27.3854 16.3232 27.5 15.5264 27.5 14.7139C27.5 13.9014 27.375 13.1097 27.125 12.3389C26.875 11.568 26.4896 10.8701 25.9688 10.2451C26.2188 10.154 26.4688 10.0947 26.7188 10.0674C26.9688 10.04 27.2323 10.0264 27.5094 10.0264C28.8156 10.0264 29.9219 10.4795 30.8281 11.3857C31.7344 12.292 32.1875 13.4014 32.1875 14.7139ZM32.5477 34.1201C30.9117 34.1201 29.5156 33.5412 28.3594 32.3834C27.2031 31.2256 26.625 29.8253 26.625 28.1826C26.625 26.5368 27.2039 25.1357 28.3617 23.9795C29.5195 22.8232 30.9198 22.2451 32.5625 22.2451C34.2083 22.2451 35.6094 22.8232 36.7656 23.9795C37.9219 25.1357 38.5 26.5417 38.5 28.1974C38.5 29.8334 37.9219 31.2295 36.7656 32.3857C35.6094 33.542 34.2034 34.1201 32.5477 34.1201ZM31.375 30.7451L35.5625 26.5576L34.9063 25.9014L31.375 29.4326L29.625 27.6514L28.9688 28.3076L31.375 30.7451Z" fill="#242A1F"/>
</g>
</g>
<defs>
<filter id="filter0_b_1204_11159" x="-5.86467" y="-4.93206" width="58.7293" height="58.7293" filterUnits="userSpaceOnUse" color-interpolation-filters="sRGB">
<feFlood flood-opacity="0" result="BackgroundImageFix"/>
<feGaussianBlur in="BackgroundImageFix" stdDeviation="2.93234"/>
<feComposite in2="SourceAlpha" operator="in" result="effect1_backgroundBlur_1204_11159"/>
<feBlend mode="normal" in="SourceGraphic" in2="effect1_backgroundBlur_1204_11159" result="shape"/>
</filter>
<clipPath id="clip0_1204_11159">
<rect width="30" height="30" fill="white" transform="translate(8.5 9.43262)"/>
</clipPath>
</defs>
</svg>
