<svg width="44" height="44" viewBox="0 0 44 44" fill="none" xmlns="http://www.w3.org/2000/svg">
<g clip-path="url(#clip0_1241_9784)">
<g clip-path="url(#clip1_1241_9784)">
<g filter="url(#filter0_b_1241_9784)">
<rect x="0.0330811" y="0.5" width="43" height="43" rx="5" fill="white"/>
</g>
<path fill-rule="evenodd" clip-rule="evenodd" d="M34.08 15.8084C34.2617 15.24 34.08 14.8223 33.2151 14.8223H30.3553C29.6281 14.8223 29.2929 15.1831 29.1111 15.581C29.1111 15.581 27.6567 18.9063 25.5965 21.0663C24.93 21.6916 24.627 21.8905 24.2634 21.8905C24.0816 21.8905 23.8185 21.6916 23.8185 21.1232V15.8084C23.8185 15.1263 23.6074 14.8223 23.0014 14.8223H18.5074C18.053 14.8223 17.7797 15.1389 17.7797 15.4389C17.7797 16.0855 18.8098 16.2347 18.9159 18.0537V22.0043C18.9159 22.8704 18.7492 23.0274 18.3856 23.0274C17.4161 23.0274 15.0578 19.6873 13.6591 15.8652C13.385 15.1223 13.1101 14.8223 12.3792 14.8223H9.51934C8.70225 14.8223 8.53882 15.1831 8.53882 15.581C8.53882 16.2915 9.50837 19.8158 13.0532 24.4769C15.4164 27.6601 18.746 29.3856 21.7758 29.3856C23.5936 29.3856 23.8185 29.0023 23.8185 28.3422V25.9364C23.8185 25.1699 23.9907 25.0169 24.5664 25.0169C24.9905 25.0169 25.7177 25.2158 27.4144 26.7506C29.3535 28.5696 29.6731 29.3856 30.7638 29.3856H33.6237C34.4408 29.3856 34.8493 29.0023 34.6136 28.246C34.3557 27.4922 33.4299 26.3986 32.2015 25.1022C31.5349 24.3632 30.5351 23.5674 30.2321 23.1695C29.8079 22.6579 29.9291 22.4305 30.2321 21.9758C30.2321 21.9758 33.7164 17.3715 34.08 15.8084Z" fill="#242A1F"/>
</g>
</g>
<defs>
<filter id="filter0_b_1241_9784" x="-4.96692" y="-4.5" width="53" height="53" filterUnits="userSpaceOnUse" color-interpolation-filters="sRGB">
<feFlood flood-opacity="0" result="BackgroundImageFix"/>
<feGaussianBlur in="BackgroundImageFix" stdDeviation="2.5"/>
<feComposite in2="SourceAlpha" operator="in" result="effect1_backgroundBlur_1241_9784"/>
<feBlend mode="normal" in="SourceGraphic" in2="effect1_backgroundBlur_1241_9784" result="shape"/>
</filter>
<clipPath id="clip0_1241_9784">
<rect x="0.0330811" y="0.5" width="43" height="43" rx="5" fill="white"/>
</clipPath>
<clipPath id="clip1_1241_9784">
<rect x="0.0330811" y="0.5" width="43" height="43" rx="5" fill="white"/>
</clipPath>
</defs>
</svg>
