<svg width="43" height="44" viewBox="0 0 43 44" fill="none" xmlns="http://www.w3.org/2000/svg">
<rect x="-1" y="0.5" width="43.033" height="43.033" rx="5" fill="white"/>
<path d="M8.51648 34.0166L10.2128 27.8569C9.16404 26.0489 8.6139 24.0014 8.61963 21.9082C8.61963 15.3493 13.9835 10.0166 20.568 10.0166C23.7658 10.0166 26.7686 11.2542 29.0208 13.5014C31.2786 15.7485 32.5222 18.7371 32.5165 21.9139C32.5165 28.4729 27.1526 33.8056 20.5623 33.8056H20.5566C18.5566 33.8056 16.591 33.3037 14.8431 32.3569L8.51648 34.0166ZM15.1468 30.2067L15.5079 30.4234C17.0322 31.3246 18.7801 31.798 20.5623 31.8037H20.568C26.0408 31.8037 30.4993 27.3721 30.4993 21.9196C30.4993 19.279 29.4678 16.798 27.5938 14.9272C25.7199 13.0565 23.2213 12.0299 20.568 12.0299C15.0953 12.0242 10.6368 16.4558 10.6368 21.9082C10.6368 23.7733 11.1583 25.5927 12.1554 27.1668L12.3904 27.5432L11.3875 31.1877L15.1468 30.2067Z" fill="#242A1F"/>
<path d="M8.93481 33.5999L10.5738 27.6513C9.55946 25.9117 9.0265 23.9326 9.0265 21.9136C9.03224 15.5828 14.207 10.4326 20.568 10.4326C23.6569 10.4326 26.5508 11.6303 28.7285 13.7976C30.9061 15.9649 32.1039 18.8509 32.1039 21.9193C32.1039 28.2501 26.9233 33.4003 20.568 33.4003H20.5623C18.6311 33.4003 16.7342 32.9155 15.0494 32.003L8.93481 33.5999Z" fill="#242A1F"/>
<path d="M8.51648 34.0166L10.2128 27.8569C9.16404 26.0489 8.6139 24.0014 8.61963 21.9082C8.61963 15.3493 13.9835 10.0166 20.568 10.0166C23.7658 10.0166 26.7686 11.2542 29.0208 13.5014C31.2786 15.7485 32.5222 18.7371 32.5165 21.9139C32.5165 28.4729 27.1526 33.8056 20.5623 33.8056H20.5566C18.5566 33.8056 16.591 33.3037 14.8431 32.3569L8.51648 34.0166ZM15.1468 30.2067L15.5079 30.4234C17.0322 31.3246 18.7801 31.798 20.5623 31.8037H20.568C26.0408 31.8037 30.4993 27.3721 30.4993 21.9196C30.4993 19.279 29.4678 16.798 27.5938 14.9272C25.7199 13.0565 23.2213 12.0299 20.568 12.0299C15.0953 12.0242 10.6368 16.4558 10.6368 21.9082C10.6368 23.7733 11.1583 25.5927 12.1554 27.1668L12.3904 27.5432L11.3875 31.1877L15.1468 30.2067Z" fill="#242A1F"/>
<path fill-rule="evenodd" clip-rule="evenodd" d="M17.5822 16.935C17.3587 16.4388 17.1238 16.4274 16.9118 16.4217C16.7398 16.416 16.5393 16.416 16.3387 16.416C16.1381 16.416 15.8172 16.4902 15.5421 16.7867C15.2671 17.0833 14.4991 17.8019 14.4991 19.2677C14.4991 20.7278 15.5708 22.1423 15.7198 22.3419C15.8688 22.5415 17.7885 25.6384 20.8201 26.8305C23.3415 27.8229 23.8573 27.6232 24.4017 27.5719C24.9461 27.5206 26.1668 26.8533 26.4189 26.1575C26.6653 25.4616 26.6653 24.8685 26.5908 24.743C26.5163 24.6175 26.3158 24.5434 26.0178 24.3951C25.7198 24.2468 24.2527 23.5282 23.9776 23.4255C23.7026 23.3286 23.502 23.2772 23.3072 23.5738C23.1066 23.8704 22.5335 24.5377 22.3616 24.7373C22.1897 24.9369 22.012 24.9597 21.714 24.8115C21.416 24.6632 20.4533 24.3495 19.3129 23.3343C18.4246 22.5472 17.8229 21.5719 17.651 21.2753C17.4791 20.9788 17.6338 20.8191 17.7828 20.6708C17.9146 20.5396 18.0808 20.3229 18.2298 20.1518C18.3788 19.9807 18.4304 19.8552 18.5278 19.6556C18.6252 19.4559 18.5794 19.2848 18.5049 19.1365C18.4304 18.994 17.8458 17.5225 17.5822 16.935Z" fill="white"/>
</svg>
